<?xml version="1.0" encoding="UTF-8"?>
<svg width="20px" height="21px" viewBox="0 0 20 21" version="1.1" xmlns="http://www.w3.org/2000/svg" xmlns:xlink="http://www.w3.org/1999/xlink">
    <!-- Generator: Sketch 49.2 (51160) - http://www.bohemiancoding.com/sketch -->
    <title>Book-open - simple-line-icons</title>
    <desc>Created with Sketch.</desc>
    <defs></defs>
    <g id="Screen" stroke="none" stroke-width="1" fill="none" fill-rule="evenodd">
        <g id="Profile-view" transform="translate(-32.000000, -177.000000)" fill="#000000">
            <g id="main-nav">
                <path d="M50.59375,177.289062 C50.9583352,177.184895 51.2838527,177.243488 51.5703125,177.464844 C51.8567723,177.686199 52,177.979165 52,178.34375 L52,193.539062 C52,193.851564 51.8958344,194.141275 51.6875,194.408203 C51.4791656,194.675132 51.2252619,194.847656 50.9257812,194.925781 L42.6640625,197.171875 C42.5338535,197.210938 42.4003913,197.236979 42.2636719,197.25 C42.1269524,197.263021 42.0065109,197.269531 41.9023438,197.269531 C41.7591139,197.269531 41.6191413,197.259766 41.4824219,197.240234 C41.3457024,197.220703 41.2252609,197.197917 41.1210938,197.171875 L33.0742188,194.945312 C32.7747381,194.854166 32.5208344,194.675132 32.3125,194.408203 C32.1041656,194.141275 32,193.851564 32,193.539062 L32,178.34375 C32,177.979165 32.1432277,177.686199 32.4296875,177.464844 C32.7161473,177.243488 33.0416648,177.184895 33.40625,177.289062 L41.453125,179.515625 C41.5572922,179.541667 41.7037751,179.554688 41.8925781,179.554688 C42.0813812,179.554688 42.2278641,179.541667 42.3320312,179.515625 L50.59375,177.289062 Z M41.375,195.941406 L41.375,180.765625 C41.3359373,180.765625 41.29362,180.759115 41.2480469,180.746094 C41.2024737,180.733073 41.1601564,180.726562 41.1210938,180.726562 L33.25,178.539062 L33.25,193.539062 C33.25,193.578125 33.2662759,193.617187 33.2988281,193.65625 C33.3313804,193.695313 33.360677,193.721354 33.3867188,193.734375 L41.375,195.941406 Z M50.75,193.539062 L50.75,178.539062 L42.6640625,180.726562 L42.625,180.726562 L42.625,195.882812 L50.59375,193.734375 C50.6197918,193.721354 50.6523436,193.695313 50.6914062,193.65625 C50.7304689,193.617187 50.75,193.578125 50.75,193.539062 Z M44.5390625,184.398438 C44.4088535,184.398438 44.2851568,184.359375 44.1679688,184.28125 C44.0507807,184.203125 43.9726564,184.092449 43.9335938,183.949219 C43.8945311,183.779947 43.9173173,183.620443 44.0019531,183.470703 C44.086589,183.320963 44.2070305,183.220052 44.3632812,183.167969 L48.7382812,181.9375 C48.9075529,181.898437 49.0670565,181.921224 49.2167969,182.005859 C49.3665372,182.090495 49.4674477,182.217447 49.5195312,182.386719 C49.5585939,182.54297 49.5358077,182.695963 49.4511719,182.845703 C49.366536,182.995443 49.2460945,183.096354 49.0898438,183.148438 L44.7148438,184.378906 C44.688802,184.391927 44.6595054,184.398438 44.6269531,184.398438 L44.5390625,184.398438 Z M44.5390625,188.148438 C44.4088535,188.148438 44.2851568,188.109375 44.1679688,188.03125 C44.0507807,187.953125 43.9726564,187.842449 43.9335938,187.699219 C43.8945311,187.529947 43.9173173,187.370443 44.0019531,187.220703 C44.086589,187.070963 44.2070305,186.970052 44.3632812,186.917969 L48.7382812,185.6875 C48.9075529,185.648437 49.0670565,185.671224 49.2167969,185.755859 C49.3665372,185.840495 49.4674477,185.967447 49.5195312,186.136719 C49.5585939,186.29297 49.5358077,186.445963 49.4511719,186.595703 C49.366536,186.745443 49.2460945,186.846354 49.0898438,186.898438 L44.7148438,188.128906 C44.688802,188.141927 44.6595054,188.148438 44.6269531,188.148438 L44.5390625,188.148438 Z M44.5390625,191.898438 C44.4088535,191.898438 44.2851568,191.859375 44.1679688,191.78125 C44.0507807,191.703125 43.9726564,191.592449 43.9335938,191.449219 C43.8945311,191.279947 43.9173173,191.120443 44.0019531,190.970703 C44.086589,190.820963 44.2070305,190.720052 44.3632812,190.667969 L48.7382812,189.4375 C48.9075529,189.398437 49.0670565,189.421224 49.2167969,189.505859 C49.3665372,189.590495 49.4674477,189.717447 49.5195312,189.886719 C49.5585939,190.04297 49.5358077,190.195963 49.4511719,190.345703 C49.366536,190.495443 49.2460945,190.596354 49.0898438,190.648438 L44.7148438,191.878906 C44.688802,191.891927 44.6595054,191.898438 44.6269531,191.898438 L44.5390625,191.898438 Z M39.7148438,183.167969 C39.8710945,183.220052 39.991536,183.320963 40.0761719,183.470703 C40.1608077,183.620443 40.1835939,183.779947 40.1445312,183.949219 C40.1054686,184.092449 40.0273443,184.203125 39.9101562,184.28125 C39.7929682,184.359375 39.6692715,184.398438 39.5390625,184.398438 L39.4511719,184.398438 C39.4186196,184.398438 39.389323,184.391927 39.3632812,184.378906 L34.9882812,183.148438 C34.8320305,183.096354 34.711589,182.995443 34.6269531,182.845703 C34.5423173,182.695963 34.5195311,182.54297 34.5585938,182.386719 C34.6106773,182.217447 34.7115878,182.090495 34.8613281,182.005859 C35.0110685,181.921224 35.1705721,181.898437 35.3398438,181.9375 L39.7148438,183.167969 Z M39.7148438,186.917969 C39.8710945,186.970052 39.991536,187.070963 40.0761719,187.220703 C40.1608077,187.370443 40.1835939,187.529947 40.1445312,187.699219 C40.1054686,187.842449 40.0273443,187.953125 39.9101562,188.03125 C39.7929682,188.109375 39.6692715,188.148438 39.5390625,188.148438 L39.4511719,188.148438 C39.4186196,188.148438 39.389323,188.141927 39.3632812,188.128906 L34.9882812,186.898438 C34.8320305,186.846354 34.711589,186.745443 34.6269531,186.595703 C34.5423173,186.445963 34.5195311,186.29297 34.5585938,186.136719 C34.6106773,185.967447 34.7115878,185.840495 34.8613281,185.755859 C35.0110685,185.671224 35.1705721,185.648437 35.3398438,185.6875 L39.7148438,186.917969 Z M39.7148438,190.667969 C39.8710945,190.720052 39.991536,190.820963 40.0761719,190.970703 C40.1608077,191.120443 40.1835939,191.279947 40.1445312,191.449219 C40.1054686,191.592449 40.0273443,191.703125 39.9101562,191.78125 C39.7929682,191.859375 39.6692715,191.898438 39.5390625,191.898438 L39.4511719,191.898438 C39.4186196,191.898438 39.389323,191.891927 39.3632812,191.878906 L34.9882812,190.648438 C34.8320305,190.596354 34.711589,190.495443 34.6269531,190.345703 C34.5423173,190.195963 34.5195311,190.04297 34.5585938,189.886719 C34.6106773,189.717447 34.7115878,189.590495 34.8613281,189.505859 C35.0110685,189.421224 35.1705721,189.398437 35.3398438,189.4375 L39.7148438,190.667969 Z" id="Book-open---simple-line-icons"></path>
            </g>
        </g>
    </g>
</svg>