<?xml version="1.0" encoding="UTF-8"?>
<svg width="18px" height="21px" viewBox="0 0 18 21" version="1.1" xmlns="http://www.w3.org/2000/svg" xmlns:xlink="http://www.w3.org/1999/xlink">
    <!-- Generator: Sketch 49.2 (51160) - http://www.bohemiancoding.com/sketch -->
    <title>Bell - simple-line-icons</title>
    <desc>Created with Sketch.</desc>
    <defs></defs>
    <g id="Screen" stroke="none" stroke-width="1" fill="none" fill-rule="evenodd">
        <g id="Profiles-List" transform="translate(-1401.000000, -26.000000)" fill="#000000">
            <g id="Header" transform="translate(18.000000, 15.000000)">
                <path d="M1399.69531,25.15625 C1400.03386,25.5729187 1400.30078,25.9440088 1400.49609,26.2695312 C1400.69141,26.5950537 1400.71094,26.9205713 1400.55469,27.2460938 C1400.39844,27.5716162 1400.14453,27.7604164 1399.79297,27.8125 C1399.4414,27.8645836 1399.16797,27.890625 1398.97266,27.890625 L1395.32031,27.890625 C1395.32031,28.8151088 1394.99479,29.6028613 1394.34375,30.2539062 C1393.69271,30.9049512 1392.90495,31.2304688 1391.98047,31.2304688 C1391.05598,31.2304688 1390.26823,30.9049512 1389.61719,30.2539062 C1388.96614,29.6028613 1388.64062,28.8151088 1388.64062,27.890625 L1385.06641,27.890625 C1384.76693,27.890625 1384.45768,27.8548181 1384.13867,27.7832031 C1383.81966,27.7115882 1383.58854,27.5325535 1383.44531,27.2460938 C1383.28906,26.9205713 1383.30208,26.5852882 1383.48438,26.2402344 C1383.66667,25.8951806 1383.91406,25.514325 1384.22656,25.0976562 C1384.57813,24.6419248 1384.96224,24.1243519 1385.37891,23.5449219 C1385.79558,22.9654919 1386.00391,22.3632844 1386.00391,21.7382812 L1386.00391,17.65625 C1386.00391,16.7708289 1386.1569,15.9407591 1386.46289,15.1660156 C1386.76888,14.3912722 1387.1888,13.7141956 1387.72266,13.1347656 C1388.25651,12.5553356 1388.88802,12.099611 1389.61719,11.7675781 C1390.34636,11.4355452 1391.1276,11.2695312 1391.96094,11.2695312 C1392.8073,11.2695312 1393.59505,11.4355452 1394.32422,11.7675781 C1395.05339,12.099611 1395.68815,12.5553356 1396.22852,13.1347656 C1396.76888,13.7141956 1397.19206,14.3912722 1397.49805,15.1660156 C1397.80404,15.9407591 1397.95703,16.7708289 1397.95703,17.65625 L1397.95703,21.7382812 C1397.95703,22.3763053 1398.1556,22.9947887 1398.55273,23.59375 C1398.94987,24.1927113 1399.33073,24.7135395 1399.69531,25.15625 Z M1391.98047,29.921875 C1392.54037,29.921875 1393.01888,29.7233093 1393.41602,29.3261719 C1393.81315,28.9290345 1394.01172,28.4505236 1394.01172,27.890625 L1389.94922,27.890625 C1389.94922,28.4505236 1390.14778,28.9290345 1390.54492,29.3261719 C1390.94206,29.7233093 1391.42057,29.921875 1391.98047,29.921875 Z M1399.10938,26.5625 C1399.04427,26.4713537 1398.97266,26.3769536 1398.89453,26.2792969 C1398.81641,26.1816401 1398.73828,26.08724 1398.66016,25.9960938 C1398.23047,25.4752578 1397.78451,24.8535192 1397.32227,24.1308594 C1396.86002,23.4081995 1396.62891,22.6106814 1396.62891,21.7382812 L1396.62891,17.65625 C1396.62891,16.9531215 1396.50846,16.295576 1396.26758,15.6835938 C1396.02669,15.0716115 1395.69792,14.5377627 1395.28125,14.0820312 C1394.86458,13.6262998 1394.37305,13.2649753 1393.80664,12.9980469 C1393.24023,12.7311185 1392.625,12.5976562 1391.96094,12.5976562 C1391.30989,12.5976562 1390.70117,12.7311185 1390.13477,12.9980469 C1389.56836,13.2649753 1389.07683,13.6262998 1388.66016,14.0820312 C1388.24349,14.5377627 1387.91797,15.0716115 1387.68359,15.6835938 C1387.44922,16.295576 1387.33203,16.9531215 1387.33203,17.65625 L1387.33203,21.7382812 C1387.33203,22.5846396 1387.08789,23.3626267 1386.59961,24.0722656 C1386.11133,24.7819046 1385.67839,25.3906225 1385.30078,25.8984375 C1385.22266,26.0026047 1385.14128,26.1132807 1385.05664,26.2304688 C1384.972,26.3476568 1384.89714,26.4583328 1384.83203,26.5625 L1399.10938,26.5625 Z" id="Bell---simple-line-icons"></path>
            </g>
        </g>
    </g>
</svg>