<?xml version="1.0" encoding="UTF-8"?>
<svg width="20px" height="21px" viewBox="0 0 20 21" version="1.1" xmlns="http://www.w3.org/2000/svg" xmlns:xlink="http://www.w3.org/1999/xlink">
    <!-- Generator: Sketch 49.2 (51160) - http://www.bohemiancoding.com/sketch -->
    <title>Home - simple-line-icons</title>
    <desc>Created with Sketch.</desc>
    <defs></defs>
    <g id="Screen" stroke="none" stroke-width="1" fill="none" fill-rule="evenodd">
        <g id="Profiles-List" transform="translate(-1400.000000, -26.000000)" fill="#000000">
            <g id="Header" transform="translate(18.000000, 15.000000)">
                <path d="M1401.86328,21.2695312 C1401.98047,21.3997402 1402.03581,21.5494783 1402.0293,21.71875 C1402.02279,21.8880217 1401.96094,22.0377598 1401.84375,22.1679688 C1401.77865,22.2200523 1401.71029,22.2623696 1401.63867,22.2949219 C1401.56706,22.3274741 1401.49219,22.34375 1401.41406,22.34375 C1401.32292,22.34375 1401.23828,22.3274741 1401.16016,22.2949219 C1401.08203,22.2623696 1401.01693,22.213542 1400.96484,22.1484375 L1400.125,21.2695312 L1400.125,30.625 C1400.125,30.7942717 1400.06315,30.9407546 1399.93945,31.0644531 C1399.81575,31.1881517 1399.66927,31.25 1399.5,31.25 L1395.125,31.25 C1394.95573,31.25 1394.80925,31.1881517 1394.68555,31.0644531 C1394.56185,30.9407546 1394.5,30.7942717 1394.5,30.625 L1394.5,24.375 L1389.51953,24.375 L1389.5,30.625 C1389.5,30.7942717 1389.43815,30.9407546 1389.31445,31.0644531 C1389.19075,31.1881517 1389.04427,31.25 1388.875,31.25 L1384.51953,31.25 C1384.33724,31.25 1384.1875,31.1881517 1384.07031,31.0644531 C1383.95312,30.9407546 1383.89453,30.7942717 1383.89453,30.625 L1383.89453,21.2695312 L1383.05469,22.1484375 C1382.92448,22.2656256 1382.77474,22.3274739 1382.60547,22.3339844 C1382.4362,22.3404948 1382.28646,22.2851568 1382.15625,22.1679688 C1382.03906,22.0377598 1381.97721,21.8880217 1381.9707,21.71875 C1381.96419,21.5494783 1382.01953,21.3997402 1382.13672,21.2695312 L1391.57031,11.4453125 C1391.63542,11.380208 1391.70703,11.3313804 1391.78516,11.2988281 C1391.86328,11.2662759 1391.94141,11.25 1392.01953,11.25 C1392.11068,11.25 1392.19531,11.2662759 1392.27344,11.2988281 C1392.35156,11.3313804 1392.41667,11.380208 1392.46875,11.4453125 L1401.86328,21.2695312 Z M1398.875,20.0585938 C1398.875,20.032552 1398.88151,20.0065105 1398.89453,19.9804688 L1392.01953,12.7929688 L1385.125,19.9804688 C1385.125,20.0065105 1385.12826,20.032552 1385.13477,20.0585938 C1385.14128,20.0846355 1385.14453,20.110677 1385.14453,20.1367188 L1385.14453,30 L1388.25,30 L1388.26953,23.75 C1388.26953,23.5807283 1388.33138,23.4342454 1388.45508,23.3105469 C1388.57878,23.1868483 1388.72526,23.125 1388.89453,23.125 L1395.125,23.125 C1395.29427,23.125 1395.44075,23.1868483 1395.56445,23.3105469 C1395.68815,23.4342454 1395.75,23.5807283 1395.75,23.75 L1395.75,30 L1398.875,30 L1398.875,20.0585938 Z" id="Home---simple-line-icons"></path>
            </g>
        </g>
    </g>
</svg>