<?xml version="1.0" encoding="UTF-8"?>
<svg width="175px" height="167px" viewBox="0 0 175 167" version="1.1" xmlns="http://www.w3.org/2000/svg" xmlns:xlink="http://www.w3.org/1999/xlink">
    <!-- Generator: Sketch 49.2 (51160) - http://www.bohemiancoding.com/sketch -->
    <title>Name : Him Piseth Ro</title>
    <desc>Created with Sketch.</desc>
    <defs></defs>
    <g id="Screen" stroke="none" stroke-width="1" fill="none" fill-rule="evenodd">
        <g id="Profiles-List" transform="translate(-1121.000000, -120.000000)" fill="#323C47">
            <g id="Content" transform="translate(100.000000, 90.000000)">
                <g id="profile" transform="translate(894.000000, 0.000000)">
                    <path d="M128.455964,32.336184 L130.171964,32.336184 L133.449964,37.605184 L133.471964,37.605184 L133.471964,32.336184 L135.088964,32.336184 L135.088964,40.190184 L133.361964,40.190184 L130.094964,34.932184 L130.072964,34.932184 L130.072964,40.190184 L128.455964,40.190184 L128.455964,32.336184 Z M139.586964,37.154184 L141.621964,37.154184 L140.631964,34.272184 L140.609964,34.272184 L139.586964,37.154184 Z M139.751964,32.336184 L141.522964,32.336184 L144.459964,40.190184 L142.666964,40.190184 L142.072964,38.441184 L139.135964,38.441184 L138.519964,40.190184 L136.781964,40.190184 L139.751964,32.336184 Z M146.141964,32.336184 L148.572964,32.336184 L150.409964,37.737184 L150.431964,37.737184 L152.169964,32.336184 L154.600964,32.336184 L154.600964,40.190184 L152.983964,40.190184 L152.983964,34.624184 L152.961964,34.624184 L151.036964,40.190184 L149.705964,40.190184 L147.780964,34.679184 L147.758964,34.679184 L147.758964,40.190184 L146.141964,40.190184 L146.141964,32.336184 Z M157.118964,32.336184 L162.992964,32.336184 L162.992964,33.788184 L158.845964,33.788184 L158.845964,35.471184 L162.651964,35.471184 L162.651964,36.813184 L158.845964,36.813184 L158.845964,38.738184 L163.080964,38.738184 L163.080964,40.190184 L157.118964,40.190184 L157.118964,32.336184 Z M170.943964,36.296184 L169.216964,36.296184 L169.216964,34.602184 L170.943964,34.602184 L170.943964,36.296184 Z M169.216964,38.496184 L170.943964,38.496184 L170.943964,40.190184 L169.216964,40.190184 L169.216964,38.496184 Z M212.710964,30.908184 L213.945964,30.908184 L213.945964,34.899184 L218.833964,34.899184 L218.833964,30.908184 L220.068964,30.908184 L220.068964,40.190184 L218.833964,40.190184 L218.833964,35.939184 L213.945964,35.939184 L213.945964,40.190184 L212.710964,40.190184 L212.710964,30.908184 Z M224.084964,32.260184 L222.979964,32.260184 L222.979964,30.908184 L224.084964,30.908184 L224.084964,32.260184 Z M222.979964,33.469184 L224.084964,33.469184 L224.084964,40.190184 L222.979964,40.190184 L222.979964,33.469184 Z M226.800964,33.469184 L227.840964,33.469184 L227.840964,34.457184 L227.866964,34.457184 C228.369633,33.6945136 229.093292,33.313184 230.037964,33.313184 C230.453966,33.313184 230.830962,33.3998498 231.168964,33.573184 C231.506965,33.7465182 231.745296,34.041182 231.883964,34.457184 C232.109298,34.0931822 232.406128,33.8115184 232.774464,33.612184 C233.142799,33.4128497 233.547961,33.313184 233.989964,33.313184 C234.327965,33.313184 234.633462,33.350017 234.906464,33.423684 C235.179465,33.4973511 235.413463,33.6121833 235.608464,33.768184 C235.803465,33.9241848 235.95513,34.1256828 236.063464,34.372684 C236.171798,34.6196853 236.225964,34.9165156 236.225964,35.263184 L236.225964,40.190184 L235.120964,40.190184 L235.120964,35.783184 C235.120964,35.575183 235.10363,35.380185 235.068964,35.198184 C235.034297,35.0161831 234.969297,34.8580181 234.873964,34.723684 C234.77863,34.58935 234.646464,34.4831844 234.477464,34.405184 C234.308463,34.3271837 234.089632,34.288184 233.820964,34.288184 C233.274961,34.288184 232.845965,34.4441825 232.533964,34.756184 C232.221962,35.0681856 232.065964,35.4841814 232.065964,36.004184 L232.065964,40.190184 L230.960964,40.190184 L230.960964,35.783184 C230.960964,35.5665163 230.941464,35.367185 230.902464,35.185184 C230.863463,35.0031831 230.796297,34.8450181 230.700964,34.710684 C230.60563,34.57635 230.477798,34.4723511 230.317464,34.398684 C230.15713,34.325017 229.951298,34.288184 229.699964,34.288184 C229.379295,34.288184 229.104131,34.3531834 228.874464,34.483184 C228.644796,34.6131847 228.458464,34.7691831 228.315464,34.951184 C228.172463,35.133185 228.068464,35.3216831 228.003464,35.516684 C227.938463,35.711685 227.905964,35.8741834 227.905964,36.004184 L227.905964,40.190184 L226.800964,40.190184 L226.800964,33.469184 Z M244.920964,35.354184 L247.338964,35.354184 C248.040967,35.3628508 248.554462,35.2198522 248.879464,34.925184 C249.204465,34.6305159 249.366964,34.2058535 249.366964,33.651184 C249.366964,33.0965146 249.204465,32.6740188 248.879464,32.383684 C248.554462,32.0933493 248.040967,31.948184 247.338964,31.948184 L244.920964,31.948184 L244.920964,35.354184 Z M243.685964,30.908184 L247.754964,30.908184 C248.690968,30.908184 249.399461,31.1486816 249.880464,31.629684 C250.361466,32.1106865 250.601964,32.784513 250.601964,33.651184 C250.601964,34.517855 250.361466,35.1938483 249.880464,35.679184 C249.399461,36.1645198 248.690968,36.4028508 247.754964,36.394184 L244.920964,36.394184 L244.920964,40.190184 L243.685964,40.190184 L243.685964,30.908184 Z M254.097964,32.260184 L252.992964,32.260184 L252.992964,30.908184 L254.097964,30.908184 L254.097964,32.260184 Z M252.992964,33.469184 L254.097964,33.469184 L254.097964,40.190184 L252.992964,40.190184 L252.992964,33.469184 Z M257.489964,38.071184 C257.49863,38.3138519 257.554963,38.5196832 257.658964,38.688684 C257.762964,38.8576849 257.899463,38.9920169 258.068464,39.091684 C258.237464,39.1913512 258.428129,39.2628505 258.640464,39.306184 C258.852798,39.3495176 259.071629,39.371184 259.296964,39.371184 C259.470298,39.371184 259.652296,39.3581842 259.842964,39.332184 C260.033631,39.3061839 260.20913,39.2585177 260.369464,39.189184 C260.529798,39.1198504 260.661963,39.0180181 260.765964,38.883684 C260.869964,38.74935 260.921964,38.5781851 260.921964,38.370184 C260.921964,38.0841826 260.813631,37.8675181 260.596964,37.720184 C260.380296,37.57285 260.109465,37.4536845 259.784464,37.362684 C259.459462,37.2716836 259.106299,37.1893511 258.724964,37.115684 C258.343628,37.042017 257.990465,36.9380181 257.665464,36.803684 C257.340462,36.66935 257.069631,36.4808519 256.852964,36.238184 C256.636296,35.9955162 256.527964,35.6575195 256.527964,35.224184 C256.527964,34.8861824 256.603796,34.5958519 256.755464,34.353184 C256.907131,34.1105162 257.102129,33.9133515 257.340464,33.761684 C257.578798,33.6100166 257.847462,33.4973511 258.146464,33.423684 C258.445465,33.350017 258.742295,33.313184 259.036964,33.313184 C259.418299,33.313184 259.769295,33.3456837 260.089964,33.410684 C260.410632,33.4756844 260.694462,33.5883499 260.941464,33.748684 C261.188465,33.9090182 261.38563,34.1256827 261.532964,34.398684 C261.680298,34.6716854 261.766964,35.0118487 261.792964,35.419184 L260.687964,35.419184 C260.67063,35.2025163 260.614297,35.0226848 260.518964,34.879684 C260.42363,34.7366833 260.302298,34.6218511 260.154964,34.535184 C260.00763,34.4485169 259.845131,34.3856842 259.667464,34.346684 C259.489796,34.3076839 259.309965,34.288184 259.127964,34.288184 C258.963296,34.288184 258.796464,34.3011839 258.627464,34.327184 C258.458463,34.3531842 258.304631,34.3986837 258.165964,34.463684 C258.027296,34.5286844 257.914631,34.6153502 257.827964,34.723684 C257.741297,34.8320179 257.697964,34.9728498 257.697964,35.146184 C257.697964,35.3368517 257.76513,35.4950168 257.899464,35.620684 C258.033798,35.7463513 258.204963,35.8503503 258.412964,35.932684 C258.620965,36.0150178 258.854962,36.0843504 259.114964,36.140684 C259.374965,36.1970177 259.634962,36.2555171 259.894964,36.316184 C260.172298,36.376851 260.443129,36.4505169 260.707464,36.537184 C260.971798,36.6238511 261.205796,36.7386833 261.409464,36.881684 C261.613131,37.0246848 261.777796,37.2045163 261.903464,37.421184 C262.029131,37.6378518 262.091964,37.9065158 262.091964,38.227184 C262.091964,38.6345194 262.007464,38.972516 261.838464,39.241184 C261.669463,39.5098521 261.448465,39.7265166 261.175464,39.891184 C260.902462,40.0558515 260.594799,40.1706837 260.252464,40.235684 C259.910129,40.3006844 259.569965,40.333184 259.231964,40.333184 C258.859295,40.333184 258.503965,40.2941844 258.165964,40.216184 C257.827962,40.1381837 257.528965,40.0103516 257.268964,39.832684 C257.008962,39.6550165 256.800964,39.4210188 256.644964,39.130684 C256.488963,38.8403493 256.402297,38.4871861 256.384964,38.071184 L257.489964,38.071184 Z M268.980964,36.186184 C268.96363,35.9261827 268.905131,35.6791852 268.805464,35.445184 C268.705796,35.2111829 268.571464,35.0096849 268.402464,34.840684 C268.233463,34.6716832 268.034131,34.5373512 267.804464,34.437684 C267.574796,34.3380169 267.321298,34.288184 267.043964,34.288184 C266.757962,34.288184 266.500131,34.3380169 266.270464,34.437684 C266.040796,34.5373512 265.843631,34.6738498 265.678964,34.847184 C265.514296,35.0205182 265.384297,35.2220162 265.288964,35.451684 C265.19363,35.6813519 265.137297,35.9261827 265.119964,36.186184 L268.980964,36.186184 Z M270.046964,38.058184 C269.89963,38.8121878 269.574633,39.3798488 269.071964,39.761184 C268.569294,40.1425193 267.936634,40.333184 267.173964,40.333184 C266.636628,40.333184 266.170799,40.2465182 265.776464,40.073184 C265.382128,39.8998498 265.050632,39.6571856 264.781964,39.345184 C264.513296,39.0331825 264.311798,38.6605195 264.177464,38.227184 C264.04313,37.7938485 263.967297,37.3215199 263.949964,36.810184 C263.949964,36.2988482 264.027963,35.8308528 264.183964,35.406184 C264.339964,34.9815153 264.558796,34.6131856 264.840464,34.301184 C265.122132,33.9891825 265.455795,33.7465182 265.841464,33.573184 C266.227132,33.3998498 266.649628,33.313184 267.108964,33.313184 C267.706967,33.313184 268.203128,33.4366828 268.597464,33.683684 C268.991799,33.9306853 269.308129,34.2448488 269.546464,34.626184 C269.784798,35.0075193 269.949463,35.4235151 270.040464,35.874184 C270.131464,36.324853 270.168297,36.7538487 270.150964,37.161184 L265.119964,37.161184 C265.111297,37.4558522 265.145963,37.7353494 265.223964,37.999684 C265.301964,38.2640187 265.427629,38.4980164 265.600964,38.701684 C265.774298,38.9053517 265.995296,39.0678501 266.263964,39.189184 C266.532632,39.310518 266.848962,39.371184 267.212964,39.371184 C267.680966,39.371184 268.064462,39.2628518 268.363464,39.046184 C268.662465,38.8295163 268.85963,38.5001863 268.954964,38.058184 L270.046964,38.058184 Z M273.828964,33.469184 L275.167964,33.469184 L275.167964,34.444184 L273.828964,34.444184 L273.828964,38.617184 C273.828964,38.7471847 273.839797,38.8511837 273.861464,38.929184 C273.88313,39.0071844 273.924297,39.0678505 273.984964,39.111184 C274.045631,39.1545176 274.13013,39.182684 274.238464,39.195684 C274.346798,39.2086841 274.487629,39.215184 274.660964,39.215184 L275.167964,39.215184 L275.167964,40.190184 L274.322964,40.190184 C274.036962,40.190184 273.792131,40.1706842 273.588464,40.131684 C273.384796,40.0926839 273.220131,40.0211846 273.094464,39.917184 C272.968796,39.8131835 272.875631,39.6658517 272.814964,39.475184 C272.754297,39.2845164 272.723964,39.0331856 272.723964,38.721184 L272.723964,34.444184 L271.579964,34.444184 L271.579964,33.469184 L272.723964,33.469184 L272.723964,31.454184 L273.828964,31.454184 L273.828964,33.469184 Z M277.389964,30.908184 L278.494964,30.908184 L278.494964,34.457184 L278.520964,34.457184 C278.607631,34.249183 278.728963,34.0736848 278.884964,33.930684 C279.040964,33.7876833 279.216463,33.6706845 279.411464,33.579684 C279.606465,33.4886836 279.810129,33.4215176 280.022464,33.378184 C280.234798,33.3348505 280.440629,33.313184 280.639964,33.313184 C281.081966,33.313184 281.450295,33.3738501 281.744964,33.495184 C282.039632,33.616518 282.277963,33.7855163 282.459964,34.002184 C282.641965,34.2188518 282.769797,34.4766826 282.843464,34.775684 C282.917131,35.0746855 282.953964,35.4061822 282.953964,35.770184 L282.953964,40.190184 L281.848964,40.190184 L281.848964,35.640184 C281.848964,35.224182 281.727632,34.8948519 281.484964,34.652184 C281.242296,34.4095162 280.908632,34.288184 280.483964,34.288184 C280.145962,34.288184 279.853465,34.3401835 279.606464,34.444184 C279.359462,34.5481846 279.153631,34.6955164 278.988964,34.886184 C278.824296,35.0768517 278.700797,35.3000161 278.618464,35.555684 C278.53613,35.811352 278.494964,36.0908492 278.494964,36.394184 L278.494964,40.190184 L277.389964,40.190184 L277.389964,30.908184 Z M130.182964,61.889184 L132.074964,61.889184 C132.470966,61.889184 132.767963,61.8011849 132.965964,61.625184 C133.163965,61.4491832 133.262964,61.163186 133.262964,60.767184 C133.262964,60.3858488 133.163965,60.1090182 132.965964,59.936684 C132.767963,59.7643499 132.470966,59.678184 132.074964,59.678184 L130.182964,59.678184 L130.182964,61.889184 Z M128.455964,58.336184 L132.690964,58.336184 C133.042965,58.336184 133.360129,58.3930168 133.642464,58.506684 C133.924798,58.6203513 134.166796,58.7761831 134.368464,58.974184 C134.570131,59.172185 134.72413,59.4013494 134.830464,59.661684 C134.936798,59.9220187 134.989964,60.2025159 134.989964,60.503184 C134.989964,60.9651864 134.892798,61.364849 134.698464,61.702184 C134.504129,62.0395191 134.186966,62.2961832 133.746964,62.472184 L133.746964,62.494184 C133.959631,62.552851 134.13563,62.6426834 134.274964,62.763684 C134.414298,62.8846847 134.527963,63.0276832 134.615964,63.192684 C134.703964,63.3576849 134.76813,63.5391831 134.808464,63.737184 C134.848797,63.935185 134.876297,64.1331831 134.890964,64.331184 C134.898297,64.4558513 134.90563,64.6025165 134.912964,64.771184 C134.920297,64.9398516 134.93313,65.1121832 134.951464,65.288184 C134.969797,65.4641849 134.99913,65.6310166 135.039464,65.788684 C135.079797,65.9463515 135.140297,66.0801835 135.220964,66.190184 L133.493964,66.190184 C133.39863,65.9408495 133.339964,65.6438524 133.317964,65.299184 C133.295964,64.9545157 133.262964,64.624519 133.218964,64.309184 C133.160297,63.8985153 133.035631,63.5978517 132.844964,63.407184 C132.654296,63.2165164 132.342632,63.121184 131.909964,63.121184 L130.182964,63.121184 L130.182964,66.190184 L128.455964,66.190184 L128.455964,58.336184 Z M138.783964,62.296184 C138.783964,62.6261857 138.822463,62.9470158 138.899464,63.258684 C138.976464,63.5703523 139.099296,63.8508495 139.267964,64.100184 C139.436631,64.3495186 139.656629,64.54935 139.927964,64.699684 C140.199298,64.8500181 140.529295,64.925184 140.917964,64.925184 C141.306632,64.925184 141.636629,64.8500181 141.907964,64.699684 C142.179298,64.54935 142.399296,64.3495186 142.567964,64.100184 C142.736631,63.8508495 142.859463,63.5703523 142.936464,63.258684 C143.013464,62.9470158 143.051964,62.6261857 143.051964,62.296184 C143.051964,61.9515157 143.013464,61.6178523 142.936464,61.295184 C142.859463,60.9725158 142.736631,60.6846853 142.567964,60.431684 C142.399296,60.1786828 142.179298,59.9770181 141.907964,59.826684 C141.636629,59.67635 141.306632,59.601184 140.917964,59.601184 C140.529295,59.601184 140.199298,59.67635 139.927964,59.826684 C139.656629,59.9770181 139.436631,60.1786828 139.267964,60.431684 C139.099296,60.6846853 138.976464,60.9725158 138.899464,61.295184 C138.822463,61.6178523 138.783964,61.9515157 138.783964,62.296184 Z M137.056964,62.296184 C137.056964,61.7095144 137.144963,61.1650199 137.320964,60.662684 C137.496965,60.1603482 137.749962,59.7221859 138.079964,59.348184 C138.409965,58.9741822 138.815128,58.6808518 139.295464,58.468184 C139.775799,58.2555163 140.316627,58.149184 140.917964,58.149184 C141.526633,58.149184 142.069295,58.2555163 142.545964,58.468184 C143.022633,58.6808518 143.425962,58.9741822 143.755964,59.348184 C144.085965,59.7221859 144.338963,60.1603482 144.514964,60.662684 C144.690965,61.1650199 144.778964,61.7095144 144.778964,62.296184 C144.778964,62.8681869 144.690965,63.4016816 144.514964,63.896684 C144.338963,64.3916865 144.085965,64.8225155 143.755964,65.189184 C143.425962,65.5558525 143.022633,65.843683 142.545964,66.052684 C142.069295,66.2616851 141.526633,66.366184 140.917964,66.366184 C140.316627,66.366184 139.775799,66.2616851 139.295464,66.052684 C138.815128,65.843683 138.409965,65.5558525 138.079964,65.189184 C137.749962,64.8225155 137.496965,64.3916865 137.320964,63.896684 C137.144963,63.4016816 137.056964,62.8681869 137.056964,62.296184 Z M146.955964,58.336184 L148.682964,58.336184 L148.682964,64.738184 L152.510964,64.738184 L152.510964,66.190184 L146.955964,66.190184 L146.955964,58.336184 Z M154.478964,58.336184 L160.352964,58.336184 L160.352964,59.788184 L156.205964,59.788184 L156.205964,61.471184 L160.011964,61.471184 L160.011964,62.813184 L156.205964,62.813184 L156.205964,64.738184 L160.440964,64.738184 L160.440964,66.190184 L154.478964,66.190184 L154.478964,58.336184 Z M168.303964,62.296184 L166.576964,62.296184 L166.576964,60.602184 L168.303964,60.602184 L168.303964,62.296184 Z M166.576964,64.496184 L168.303964,64.496184 L168.303964,66.190184 L166.576964,66.190184 L166.576964,64.496184 Z M213.334964,62.888184 C213.334964,63.2001856 213.37613,63.5056826 213.458464,63.804684 C213.540797,64.1036855 213.666463,64.3701829 213.835464,64.604184 C214.004464,64.8381852 214.221129,65.0245167 214.485464,65.163184 C214.749798,65.3018514 215.059629,65.371184 215.414964,65.371184 C215.787632,65.371184 216.103962,65.2975181 216.363964,65.150184 C216.623965,65.00285 216.836296,64.8100186 217.000964,64.571684 C217.165631,64.3333495 217.284797,64.0625189 217.358464,63.759184 C217.432131,63.4558492 217.468964,63.1481856 217.468964,62.836184 C217.468964,62.5068491 217.429964,62.1883523 217.351964,61.880684 C217.273963,61.5730158 217.150464,61.3021852 216.981464,61.068184 C216.812463,60.8341829 216.593632,60.6456848 216.324964,60.502684 C216.056296,60.3596833 215.731299,60.288184 215.349964,60.288184 C214.977295,60.288184 214.660965,60.36185 214.400964,60.509184 C214.140962,60.6565181 213.932964,60.8515162 213.776964,61.094184 C213.620963,61.3368519 213.508297,61.6141825 213.438964,61.926184 C213.36963,62.2381856 213.334964,62.5588491 213.334964,62.888184 Z M218.534964,66.190184 L217.429964,66.190184 L217.429964,65.280184 L217.403964,65.280184 C217.221963,65.6528526 216.935966,65.9215166 216.545964,66.086184 C216.155962,66.2508515 215.726966,66.333184 215.258964,66.333184 C214.738961,66.333184 214.286132,66.2378517 213.900464,66.047184 C213.514795,65.8565164 213.194132,65.6008523 212.938464,65.280184 C212.682796,64.9595158 212.489964,64.5868528 212.359964,64.162184 C212.229963,63.7375153 212.164964,63.2868531 212.164964,62.810184 C212.164964,62.333515 212.227796,61.8828528 212.353464,61.458184 C212.479131,61.0335153 212.669796,60.663019 212.925464,60.346684 C213.181132,60.0303491 213.501795,59.7790183 213.887464,59.592684 C214.273132,59.4063498 214.721628,59.313184 215.232964,59.313184 C215.406298,59.313184 215.592629,59.3305172 215.791964,59.365184 C215.991298,59.3998509 216.190629,59.4583503 216.389964,59.540684 C216.589298,59.6230178 216.777796,59.73135 216.955464,59.865684 C217.133131,60.0000181 217.28263,60.1668497 217.403964,60.366184 L217.429964,60.366184 L217.429964,56.908184 L218.534964,56.908184 L218.534964,66.190184 Z M225.904964,62.186184 C225.88763,61.9261827 225.829131,61.6791852 225.729464,61.445184 C225.629796,61.2111829 225.495464,61.0096849 225.326464,60.840684 C225.157463,60.6716832 224.958131,60.5373512 224.728464,60.437684 C224.498796,60.3380169 224.245298,60.288184 223.967964,60.288184 C223.681962,60.288184 223.424131,60.3380169 223.194464,60.437684 C222.964796,60.5373512 222.767631,60.6738498 222.602964,60.847184 C222.438296,61.0205182 222.308297,61.2220162 222.212964,61.451684 C222.11763,61.6813519 222.061297,61.9261827 222.043964,62.186184 L225.904964,62.186184 Z M226.970964,64.058184 C226.82363,64.8121878 226.498633,65.3798488 225.995964,65.761184 C225.493294,66.1425193 224.860634,66.333184 224.097964,66.333184 C223.560628,66.333184 223.094799,66.2465182 222.700464,66.073184 C222.306128,65.8998498 221.974632,65.6571856 221.705964,65.345184 C221.437296,65.0331825 221.235798,64.6605195 221.101464,64.227184 C220.96713,63.7938485 220.891297,63.3215199 220.873964,62.810184 C220.873964,62.2988482 220.951963,61.8308528 221.107964,61.406184 C221.263964,60.9815153 221.482796,60.6131856 221.764464,60.301184 C222.046132,59.9891825 222.379795,59.7465182 222.765464,59.573184 C223.151132,59.3998498 223.573628,59.313184 224.032964,59.313184 C224.630967,59.313184 225.127128,59.4366828 225.521464,59.683684 C225.915799,59.9306853 226.232129,60.2448488 226.470464,60.626184 C226.708798,61.0075193 226.873463,61.4235151 226.964464,61.874184 C227.055464,62.324853 227.092297,62.7538487 227.074964,63.161184 L222.043964,63.161184 C222.035297,63.4558522 222.069963,63.7353494 222.147964,63.999684 C222.225964,64.2640187 222.351629,64.4980164 222.524964,64.701684 C222.698298,64.9053517 222.919296,65.0678501 223.187964,65.189184 C223.456632,65.310518 223.772962,65.371184 224.136964,65.371184 C224.604966,65.371184 224.988462,65.2628518 225.287464,65.046184 C225.586465,64.8295163 225.78363,64.5001863 225.878964,64.058184 L226.970964,64.058184 Z M229.283964,56.908184 L230.388964,56.908184 L230.388964,66.190184 L229.283964,66.190184 L229.283964,56.908184 Z M234.274964,58.260184 L233.169964,58.260184 L233.169964,56.908184 L234.274964,56.908184 L234.274964,58.260184 Z M233.169964,59.469184 L234.274964,59.469184 L234.274964,66.190184 L233.169964,66.190184 L233.169964,59.469184 Z M240.019964,66.190184 L238.836964,66.190184 L236.340964,59.469184 L237.575964,59.469184 L239.460964,65.072184 L239.486964,65.072184 L241.319964,59.469184 L242.476964,59.469184 L240.019964,66.190184 Z M249.157964,62.186184 C249.14063,61.9261827 249.082131,61.6791852 248.982464,61.445184 C248.882796,61.2111829 248.748464,61.0096849 248.579464,60.840684 C248.410463,60.6716832 248.211131,60.5373512 247.981464,60.437684 C247.751796,60.3380169 247.498298,60.288184 247.220964,60.288184 C246.934962,60.288184 246.677131,60.3380169 246.447464,60.437684 C246.217796,60.5373512 246.020631,60.6738498 245.855964,60.847184 C245.691296,61.0205182 245.561297,61.2220162 245.465964,61.451684 C245.37063,61.6813519 245.314297,61.9261827 245.296964,62.186184 L249.157964,62.186184 Z M250.223964,64.058184 C250.07663,64.8121878 249.751633,65.3798488 249.248964,65.761184 C248.746294,66.1425193 248.113634,66.333184 247.350964,66.333184 C246.813628,66.333184 246.347799,66.2465182 245.953464,66.073184 C245.559128,65.8998498 245.227632,65.6571856 244.958964,65.345184 C244.690296,65.0331825 244.488798,64.6605195 244.354464,64.227184 C244.22013,63.7938485 244.144297,63.3215199 244.126964,62.810184 C244.126964,62.2988482 244.204963,61.8308528 244.360964,61.406184 C244.516964,60.9815153 244.735796,60.6131856 245.017464,60.301184 C245.299132,59.9891825 245.632795,59.7465182 246.018464,59.573184 C246.404132,59.3998498 246.826628,59.313184 247.285964,59.313184 C247.883967,59.313184 248.380128,59.4366828 248.774464,59.683684 C249.168799,59.9306853 249.485129,60.2448488 249.723464,60.626184 C249.961798,61.0075193 250.126463,61.4235151 250.217464,61.874184 C250.308464,62.324853 250.345297,62.7538487 250.327964,63.161184 L245.296964,63.161184 C245.288297,63.4558522 245.322963,63.7353494 245.400964,63.999684 C245.478964,64.2640187 245.604629,64.4980164 245.777964,64.701684 C245.951298,64.9053517 246.172296,65.0678501 246.440964,65.189184 C246.709632,65.310518 247.025962,65.371184 247.389964,65.371184 C247.857966,65.371184 248.241462,65.2628518 248.540464,65.046184 C248.839465,64.8295163 249.03663,64.5001863 249.131964,64.058184 L250.223964,64.058184 Z M252.432964,59.469184 L253.472964,59.469184 L253.472964,60.886184 L253.498964,60.886184 C253.767632,60.3401813 254.096962,59.9371853 254.486964,59.677184 C254.876966,59.4171827 255.370961,59.2958506 255.968964,59.313184 L255.968964,60.483184 C255.526961,60.483184 255.149965,60.5438501 254.837964,60.665184 C254.525962,60.786518 254.274631,60.9641829 254.083964,61.198184 C253.893296,61.4321852 253.754631,61.7160157 253.667964,62.049684 C253.581297,62.3833524 253.537964,62.7668485 253.537964,63.200184 L253.537964,66.190184 L252.432964,66.190184 L252.432964,59.469184 Z M260.439964,67.087184 C260.309963,67.416519 260.182131,67.6938496 260.056464,67.919184 C259.930796,68.1445185 259.792131,68.3286833 259.640464,68.471684 C259.488796,68.6146848 259.319798,68.7186837 259.133464,68.783684 C258.947129,68.8486844 258.732632,68.881184 258.489964,68.881184 C258.359963,68.881184 258.229964,68.8725175 258.099964,68.855184 C257.969963,68.8378506 257.844298,68.8075176 257.722964,68.764184 L257.722964,67.750184 C257.818297,67.7935176 257.928796,67.8303506 258.054464,67.860684 C258.180131,67.8910175 258.286297,67.906184 258.372964,67.906184 C258.598298,67.906184 258.786796,67.8520179 258.938464,67.743684 C259.090131,67.6353502 259.204963,67.4815184 259.282964,67.282184 L259.737964,66.151184 L257.072964,59.469184 L258.320964,59.469184 L260.283964,64.968184 L260.309964,64.968184 L262.194964,59.469184 L263.364964,59.469184 L260.439964,67.087184 Z M269.914964,59.469184 L270.954964,59.469184 L270.954964,60.457184 L270.980964,60.457184 C271.483633,59.6945136 272.207292,59.313184 273.151964,59.313184 C273.567966,59.313184 273.944962,59.3998498 274.282964,59.573184 C274.620965,59.7465182 274.859296,60.041182 274.997964,60.457184 C275.223298,60.0931822 275.520128,59.8115184 275.888464,59.612184 C276.256799,59.4128497 276.661961,59.313184 277.103964,59.313184 C277.441965,59.313184 277.747462,59.350017 278.020464,59.423684 C278.293465,59.4973511 278.527463,59.6121833 278.722464,59.768184 C278.917465,59.9241848 279.06913,60.1256828 279.177464,60.372684 C279.285798,60.6196853 279.339964,60.9165156 279.339964,61.263184 L279.339964,66.190184 L278.234964,66.190184 L278.234964,61.783184 C278.234964,61.575183 278.21763,61.380185 278.182964,61.198184 C278.148297,61.0161831 278.083297,60.8580181 277.987964,60.723684 C277.89263,60.58935 277.760464,60.4831844 277.591464,60.405184 C277.422463,60.3271837 277.203632,60.288184 276.934964,60.288184 C276.388961,60.288184 275.959965,60.4441825 275.647964,60.756184 C275.335962,61.0681856 275.179964,61.4841814 275.179964,62.004184 L275.179964,66.190184 L274.074964,66.190184 L274.074964,61.783184 C274.074964,61.5665163 274.055464,61.367185 274.016464,61.185184 C273.977463,61.0031831 273.910297,60.8450181 273.814964,60.710684 C273.71963,60.57635 273.591798,60.4723511 273.431464,60.398684 C273.27113,60.325017 273.065298,60.288184 272.813964,60.288184 C272.493295,60.288184 272.218131,60.3531834 271.988464,60.483184 C271.758796,60.6131847 271.572464,60.7691831 271.429464,60.951184 C271.286463,61.133185 271.182464,61.3216831 271.117464,61.516684 C271.052463,61.711685 271.019964,61.8741834 271.019964,62.004184 L271.019964,66.190184 L269.914964,66.190184 L269.914964,59.469184 Z M287.957964,66.164184 C287.767296,66.2768513 287.502965,66.333184 287.164964,66.333184 C286.878962,66.333184 286.651464,66.2530182 286.482464,66.092684 C286.313463,65.9323499 286.228964,65.6701859 286.228964,65.306184 C285.925629,65.6701859 285.572466,65.9323499 285.169464,66.092684 C284.766462,66.2530182 284.330966,66.333184 283.862964,66.333184 C283.559629,66.333184 283.271465,66.2985177 282.998464,66.229184 C282.725462,66.1598504 282.489298,66.0515181 282.289964,65.904184 C282.090629,65.75685 281.932464,65.5640186 281.815464,65.325684 C281.698463,65.0873495 281.639964,64.7991857 281.639964,64.461184 C281.639964,64.0798488 281.704963,63.7678519 281.834964,63.525184 C281.964964,63.2825162 282.136129,63.0853515 282.348464,62.933684 C282.560798,62.7820166 282.803462,62.6671844 283.076464,62.589184 C283.349465,62.5111837 283.628962,62.4461843 283.914964,62.394184 C284.218298,62.3335171 284.506462,62.2880175 284.779464,62.257684 C285.052465,62.2273506 285.292963,62.1840177 285.500964,62.127684 C285.708965,62.0713504 285.87363,61.9890179 285.994964,61.880684 C286.116298,61.7723502 286.176964,61.6141851 286.176964,61.406184 C286.176964,61.1635162 286.131464,60.9685181 286.040464,60.821184 C285.949463,60.67385 285.832464,60.5611844 285.689464,60.483184 C285.546463,60.4051837 285.386131,60.3531842 285.208464,60.327184 C285.030796,60.3011839 284.855298,60.288184 284.681964,60.288184 C284.213961,60.288184 283.823965,60.3770165 283.511964,60.554684 C283.199962,60.7323516 283.030964,61.0681816 283.004964,61.562184 L281.899964,61.562184 C281.917297,61.146182 282.003963,60.7951855 282.159964,60.509184 C282.315964,60.2231826 282.523962,59.9913516 282.783964,59.813684 C283.043965,59.6360165 283.340795,59.5081844 283.674464,59.430184 C284.008132,59.3521837 284.365628,59.313184 284.746964,59.313184 C285.050298,59.313184 285.351462,59.3348505 285.650464,59.378184 C285.949465,59.4215176 286.220296,59.51035 286.462964,59.644684 C286.705632,59.7790181 286.90063,59.9675162 287.047964,60.210184 C287.195298,60.4528519 287.268964,60.7691821 287.268964,61.159184 L287.268964,64.617184 C287.268964,64.8771853 287.28413,65.0678501 287.314464,65.189184 C287.344797,65.310518 287.446629,65.371184 287.619964,65.371184 C287.715297,65.371184 287.827963,65.3495176 287.957964,65.306184 L287.957964,66.164184 Z M286.163964,62.719184 C286.025296,62.8231846 285.843298,62.8990171 285.617964,62.946684 C285.392629,62.994351 285.156465,63.0333506 284.909464,63.063684 C284.662462,63.0940175 284.413298,63.1286839 284.161964,63.167684 C283.910629,63.2066842 283.685298,63.2695169 283.485964,63.356184 C283.286629,63.4428511 283.124131,63.5663499 282.998464,63.726684 C282.872796,63.8870182 282.809964,64.1058493 282.809964,64.383184 C282.809964,64.565185 282.846797,64.7190168 282.920464,64.844684 C282.994131,64.9703513 283.089463,65.0721837 283.206464,65.150184 C283.323464,65.2281844 283.459963,65.2845172 283.615964,65.319184 C283.771964,65.3538509 283.936629,65.371184 284.109964,65.371184 C284.473965,65.371184 284.785962,65.3213512 285.045964,65.221684 C285.305965,65.1220169 285.518296,64.9963515 285.682964,64.844684 C285.847631,64.6930166 285.968963,64.5283516 286.046964,64.350684 C286.124964,64.1730165 286.163964,64.0061848 286.163964,63.850184 L286.163964,62.719184 Z M289.984964,59.469184 L291.024964,59.469184 L291.024964,60.535184 L291.050964,60.535184 C291.510299,59.7205133 292.238292,59.313184 293.234964,59.313184 C293.676966,59.313184 294.045295,59.3738501 294.339964,59.495184 C294.634632,59.616518 294.872963,59.7855163 295.054964,60.002184 C295.236965,60.2188518 295.364797,60.4766826 295.438464,60.775684 C295.512131,61.0746855 295.548964,61.4061822 295.548964,61.770184 L295.548964,66.190184 L294.443964,66.190184 L294.443964,61.640184 C294.443964,61.224182 294.322632,60.8948519 294.079964,60.652184 C293.837296,60.4095162 293.503632,60.288184 293.078964,60.288184 C292.740962,60.288184 292.448465,60.3401835 292.201464,60.444184 C291.954462,60.5481846 291.748631,60.6955164 291.583964,60.886184 C291.419296,61.0768517 291.295797,61.3000161 291.213464,61.555684 C291.13113,61.811352 291.089964,62.0908492 291.089964,62.394184 L291.089964,66.190184 L289.984964,66.190184 L289.984964,59.469184 Z M130.435964,115.154184 L132.470964,115.154184 L131.480964,112.272184 L131.458964,112.272184 L130.435964,115.154184 Z M130.600964,110.336184 L132.371964,110.336184 L135.308964,118.190184 L133.515964,118.190184 L132.921964,116.441184 L129.984964,116.441184 L129.368964,118.190184 L127.630964,118.190184 L130.600964,110.336184 Z M142.666964,117.299184 C142.358962,117.695186 142.017966,117.972017 141.643964,118.129684 C141.269962,118.287352 140.892299,118.366184 140.510964,118.366184 C139.909627,118.366184 139.368799,118.261685 138.888464,118.052684 C138.408128,117.843683 138.002965,117.555853 137.672964,117.189184 C137.342962,116.822516 137.089965,116.391687 136.913964,115.896684 C136.737963,115.401682 136.649964,114.868187 136.649964,114.296184 C136.649964,113.709514 136.737963,113.16502 136.913964,112.662684 C137.089965,112.160348 137.342962,111.722186 137.672964,111.348184 C138.002965,110.974182 138.408128,110.680852 138.888464,110.468184 C139.368799,110.255516 139.909627,110.149184 140.510964,110.149184 C140.914299,110.149184 141.304795,110.209683 141.682464,110.330684 C142.060132,110.451685 142.401129,110.629516 142.705464,110.864184 C143.009798,111.098852 143.260963,111.388516 143.458964,111.733184 C143.656965,112.077852 143.777963,112.473848 143.821964,112.921184 L142.171964,112.921184 C142.069296,112.481182 141.871298,112.151185 141.577964,111.931184 C141.284629,111.711183 140.928966,111.601184 140.510964,111.601184 C140.122295,111.601184 139.792298,111.67635 139.520964,111.826684 C139.249629,111.977018 139.029631,112.178683 138.860964,112.431684 C138.692296,112.684685 138.569464,112.972516 138.492464,113.295184 C138.415463,113.617852 138.376964,113.951516 138.376964,114.296184 C138.376964,114.626186 138.415463,114.947016 138.492464,115.258684 C138.569464,115.570352 138.692296,115.850849 138.860964,116.100184 C139.029631,116.349519 139.249629,116.54935 139.520964,116.699684 C139.792298,116.850018 140.122295,116.925184 140.510964,116.925184 C141.082966,116.925184 141.524795,116.780352 141.836464,116.490684 C142.148132,116.201016 142.32963,115.781187 142.380964,115.231184 L140.642964,115.231184 L140.642964,113.944184 L143.942964,113.944184 L143.942964,118.190184 L142.842964,118.190184 L142.666964,117.299184 Z M146.339964,110.336184 L152.213964,110.336184 L152.213964,111.788184 L148.066964,111.788184 L148.066964,113.471184 L151.872964,113.471184 L151.872964,114.813184 L148.066964,114.813184 L148.066964,116.738184 L152.301964,116.738184 L152.301964,118.190184 L146.339964,118.190184 L146.339964,110.336184 Z M160.164964,114.296184 L158.437964,114.296184 L158.437964,112.602184 L160.164964,112.602184 L160.164964,114.296184 Z M158.437964,116.496184 L160.164964,116.496184 L160.164964,118.190184 L158.437964,118.190184 L158.437964,116.496184 Z M214.530964,112.925184 C214.574297,112.933851 214.613297,112.938184 214.647964,112.938184 L215.011964,112.938184 C215.245965,112.938184 215.469129,112.905684 215.681464,112.840684 C215.893798,112.775684 216.08013,112.680351 216.240464,112.554684 C216.400798,112.429017 216.52863,112.270852 216.623964,112.080184 C216.719297,111.889516 216.766964,111.672852 216.766964,111.430184 C216.766964,110.936182 216.610965,110.565685 216.298964,110.318684 C215.986962,110.071683 215.596966,109.948184 215.128964,109.948184 C214.834295,109.948184 214.576465,110.00235 214.355464,110.110684 C214.134463,110.219018 213.952464,110.364183 213.809464,110.546184 C213.666463,110.728185 213.560297,110.940516 213.490964,111.183184 C213.42163,111.425852 213.386964,111.681516 213.386964,111.950184 L212.281964,111.950184 C212.299297,111.508182 212.370796,111.105186 212.496464,110.741184 C212.622131,110.377182 212.801962,110.065185 213.035964,109.805184 C213.269965,109.545183 213.562462,109.341518 213.913464,109.194184 C214.264465,109.04685 214.669628,108.973184 215.128964,108.973184 C215.527632,108.973184 215.898129,109.023017 216.240464,109.122684 C216.582799,109.222351 216.879629,109.37185 217.130964,109.571184 C217.382298,109.770518 217.579463,110.026182 217.722464,110.338184 C217.865464,110.650186 217.936964,111.018515 217.936964,111.443184 C217.936964,111.859186 217.815632,112.227516 217.572964,112.548184 C217.330296,112.868852 217.026965,113.111517 216.662964,113.276184 L216.662964,113.302184 C217.2263,113.423518 217.644462,113.687849 217.917464,114.095184 C218.190465,114.502519 218.326964,114.983515 218.326964,115.538184 C218.326964,115.99752 218.242464,116.402682 218.073464,116.753684 C217.904463,117.104686 217.676965,117.397183 217.390964,117.631184 C217.104962,117.865185 216.769132,118.040683 216.383464,118.157684 C215.997795,118.274685 215.588299,118.333184 215.154964,118.333184 C214.686961,118.333184 214.262299,118.268185 213.880964,118.138184 C213.499628,118.008183 213.174632,117.815352 212.905964,117.559684 C212.637296,117.304016 212.431464,116.989853 212.288464,116.617184 C212.145463,116.244516 212.078297,115.819853 212.086964,115.343184 L213.191964,115.343184 C213.209297,115.941187 213.382629,116.428682 213.711964,116.805684 C214.041299,117.182686 214.522294,117.371184 215.154964,117.371184 C215.423632,117.371184 215.679296,117.330018 215.921964,117.247684 C216.164632,117.16535 216.376963,117.048351 216.558964,116.896684 C216.740965,116.745017 216.88613,116.558685 216.994464,116.337684 C217.102798,116.116683 217.156964,115.867519 217.156964,115.590184 C217.156964,115.304183 217.104964,115.050685 217.000964,114.829684 C216.896963,114.608683 216.758298,114.422351 216.584964,114.270684 C216.411629,114.119017 216.205798,114.006351 215.967464,113.932684 C215.729129,113.859017 215.471298,113.822184 215.193964,113.822184 C214.959962,113.822184 214.738965,113.835184 214.530964,113.861184 L214.530964,112.925184 Z M222.758964,112.925184 C222.802297,112.933851 222.841297,112.938184 222.875964,112.938184 L223.239964,112.938184 C223.473965,112.938184 223.697129,112.905684 223.909464,112.840684 C224.121798,112.775684 224.30813,112.680351 224.468464,112.554684 C224.628798,112.429017 224.75663,112.270852 224.851964,112.080184 C224.947297,111.889516 224.994964,111.672852 224.994964,111.430184 C224.994964,110.936182 224.838965,110.565685 224.526964,110.318684 C224.214962,110.071683 223.824966,109.948184 223.356964,109.948184 C223.062295,109.948184 222.804465,110.00235 222.583464,110.110684 C222.362463,110.219018 222.180464,110.364183 222.037464,110.546184 C221.894463,110.728185 221.788297,110.940516 221.718964,111.183184 C221.64963,111.425852 221.614964,111.681516 221.614964,111.950184 L220.509964,111.950184 C220.527297,111.508182 220.598796,111.105186 220.724464,110.741184 C220.850131,110.377182 221.029962,110.065185 221.263964,109.805184 C221.497965,109.545183 221.790462,109.341518 222.141464,109.194184 C222.492465,109.04685 222.897628,108.973184 223.356964,108.973184 C223.755632,108.973184 224.126129,109.023017 224.468464,109.122684 C224.810799,109.222351 225.107629,109.37185 225.358964,109.571184 C225.610298,109.770518 225.807463,110.026182 225.950464,110.338184 C226.093464,110.650186 226.164964,111.018515 226.164964,111.443184 C226.164964,111.859186 226.043632,112.227516 225.800964,112.548184 C225.558296,112.868852 225.254965,113.111517 224.890964,113.276184 L224.890964,113.302184 C225.4543,113.423518 225.872462,113.687849 226.145464,114.095184 C226.418465,114.502519 226.554964,114.983515 226.554964,115.538184 C226.554964,115.99752 226.470464,116.402682 226.301464,116.753684 C226.132463,117.104686 225.904965,117.397183 225.618964,117.631184 C225.332962,117.865185 224.997132,118.040683 224.611464,118.157684 C224.225795,118.274685 223.816299,118.333184 223.382964,118.333184 C222.914961,118.333184 222.490299,118.268185 222.108964,118.138184 C221.727628,118.008183 221.402632,117.815352 221.133964,117.559684 C220.865296,117.304016 220.659464,116.989853 220.516464,116.617184 C220.373463,116.244516 220.306297,115.819853 220.314964,115.343184 L221.419964,115.343184 C221.437297,115.941187 221.610629,116.428682 221.939964,116.805684 C222.269299,117.182686 222.750294,117.371184 223.382964,117.371184 C223.651632,117.371184 223.907296,117.330018 224.149964,117.247684 C224.392632,117.16535 224.604963,117.048351 224.786964,116.896684 C224.968965,116.745017 225.11413,116.558685 225.222464,116.337684 C225.330798,116.116683 225.384964,115.867519 225.384964,115.590184 C225.384964,115.304183 225.332964,115.050685 225.228964,114.829684 C225.124963,114.608683 224.986298,114.422351 224.812964,114.270684 C224.639629,114.119017 224.433798,114.006351 224.195464,113.932684 C223.957129,113.859017 223.699298,113.822184 223.421964,113.822184 C223.187962,113.822184 222.966965,113.835184 222.758964,113.861184 L222.758964,112.925184 Z M236.237964,119.087184 C236.107963,119.416519 235.980131,119.69385 235.854464,119.919184 C235.728796,120.144519 235.590131,120.328683 235.438464,120.471684 C235.286796,120.614685 235.117798,120.718684 234.931464,120.783684 C234.745129,120.848684 234.530632,120.881184 234.287964,120.881184 C234.157963,120.881184 234.027964,120.872517 233.897964,120.855184 C233.767963,120.837851 233.642298,120.807518 233.520964,120.764184 L233.520964,119.750184 C233.616297,119.793518 233.726796,119.830351 233.852464,119.860684 C233.978131,119.891018 234.084297,119.906184 234.170964,119.906184 C234.396298,119.906184 234.584796,119.852018 234.736464,119.743684 C234.888131,119.63535 235.002963,119.481518 235.080964,119.282184 L235.535964,118.151184 L232.870964,111.469184 L234.118964,111.469184 L236.081964,116.968184 L236.107964,116.968184 L237.992964,111.469184 L239.162964,111.469184 L236.237964,119.087184 Z M245.765964,114.186184 C245.74863,113.926183 245.690131,113.679185 245.590464,113.445184 C245.490796,113.211183 245.356464,113.009685 245.187464,112.840684 C245.018463,112.671683 244.819131,112.537351 244.589464,112.437684 C244.359796,112.338017 244.106298,112.288184 243.828964,112.288184 C243.542962,112.288184 243.285131,112.338017 243.055464,112.437684 C242.825796,112.537351 242.628631,112.67385 242.463964,112.847184 C242.299296,113.020518 242.169297,113.222016 242.073964,113.451684 C241.97863,113.681352 241.922297,113.926183 241.904964,114.186184 L245.765964,114.186184 Z M246.831964,116.058184 C246.68463,116.812188 246.359633,117.379849 245.856964,117.761184 C245.354294,118.142519 244.721634,118.333184 243.958964,118.333184 C243.421628,118.333184 242.955799,118.246518 242.561464,118.073184 C242.167128,117.89985 241.835632,117.657186 241.566964,117.345184 C241.298296,117.033182 241.096798,116.66052 240.962464,116.227184 C240.82813,115.793849 240.752297,115.32152 240.734964,114.810184 C240.734964,114.298848 240.812963,113.830853 240.968964,113.406184 C241.124964,112.981515 241.343796,112.613186 241.625464,112.301184 C241.907132,111.989182 242.240795,111.746518 242.626464,111.573184 C243.012132,111.39985 243.434628,111.313184 243.893964,111.313184 C244.491967,111.313184 244.988128,111.436683 245.382464,111.683684 C245.776799,111.930685 246.093129,112.244849 246.331464,112.626184 C246.569798,113.007519 246.734463,113.423515 246.825464,113.874184 C246.916464,114.324853 246.953297,114.753849 246.935964,115.161184 L241.904964,115.161184 C241.896297,115.455852 241.930963,115.735349 242.008964,115.999684 C242.086964,116.264019 242.212629,116.498016 242.385964,116.701684 C242.559298,116.905352 242.780296,117.06785 243.048964,117.189184 C243.317632,117.310518 243.633962,117.371184 243.997964,117.371184 C244.465966,117.371184 244.849462,117.262852 245.148464,117.046184 C245.447465,116.829516 245.64463,116.500186 245.739964,116.058184 L246.831964,116.058184 Z M255.033964,118.164184 C254.843296,118.276851 254.578965,118.333184 254.240964,118.333184 C253.954962,118.333184 253.727464,118.253018 253.558464,118.092684 C253.389463,117.93235 253.304964,117.670186 253.304964,117.306184 C253.001629,117.670186 252.648466,117.93235 252.245464,118.092684 C251.842462,118.253018 251.406966,118.333184 250.938964,118.333184 C250.635629,118.333184 250.347465,118.298518 250.074464,118.229184 C249.801462,118.15985 249.565298,118.051518 249.365964,117.904184 C249.166629,117.75685 249.008464,117.564019 248.891464,117.325684 C248.774463,117.08735 248.715964,116.799186 248.715964,116.461184 C248.715964,116.079849 248.780963,115.767852 248.910964,115.525184 C249.040964,115.282516 249.212129,115.085351 249.424464,114.933684 C249.636798,114.782017 249.879462,114.667184 250.152464,114.589184 C250.425465,114.511184 250.704962,114.446184 250.990964,114.394184 C251.294298,114.333517 251.582462,114.288018 251.855464,114.257684 C252.128465,114.227351 252.368963,114.184018 252.576964,114.127684 C252.784965,114.07135 252.94963,113.989018 253.070964,113.880684 C253.192298,113.77235 253.252964,113.614185 253.252964,113.406184 C253.252964,113.163516 253.207464,112.968518 253.116464,112.821184 C253.025463,112.67385 252.908464,112.561184 252.765464,112.483184 C252.622463,112.405184 252.462131,112.353184 252.284464,112.327184 C252.106796,112.301184 251.931298,112.288184 251.757964,112.288184 C251.289961,112.288184 250.899965,112.377016 250.587964,112.554684 C250.275962,112.732352 250.106964,113.068182 250.080964,113.562184 L248.975964,113.562184 C248.993297,113.146182 249.079963,112.795185 249.235964,112.509184 C249.391964,112.223183 249.599962,111.991352 249.859964,111.813684 C250.119965,111.636016 250.416795,111.508184 250.750464,111.430184 C251.084132,111.352184 251.441628,111.313184 251.822964,111.313184 C252.126298,111.313184 252.427462,111.33485 252.726464,111.378184 C253.025465,111.421518 253.296296,111.51035 253.538964,111.644684 C253.781632,111.779018 253.97663,111.967516 254.123964,112.210184 C254.271298,112.452852 254.344964,112.769182 254.344964,113.159184 L254.344964,116.617184 C254.344964,116.877185 254.36013,117.06785 254.390464,117.189184 C254.420797,117.310518 254.522629,117.371184 254.695964,117.371184 C254.791297,117.371184 254.903963,117.349518 255.033964,117.306184 L255.033964,118.164184 Z M253.239964,114.719184 C253.101296,114.823185 252.919298,114.899017 252.693964,114.946684 C252.468629,114.994351 252.232465,115.033351 251.985464,115.063684 C251.738462,115.094018 251.489298,115.128684 251.237964,115.167684 C250.986629,115.206684 250.761298,115.269517 250.561964,115.356184 C250.362629,115.442851 250.200131,115.56635 250.074464,115.726684 C249.948796,115.887018 249.885964,116.105849 249.885964,116.383184 C249.885964,116.565185 249.922797,116.719017 249.996464,116.844684 C250.070131,116.970351 250.165463,117.072184 250.282464,117.150184 C250.399464,117.228184 250.535963,117.284517 250.691964,117.319184 C250.847964,117.353851 251.012629,117.371184 251.185964,117.371184 C251.549965,117.371184 251.861962,117.321351 252.121964,117.221684 C252.381965,117.122017 252.594296,116.996351 252.758964,116.844684 C252.923631,116.693017 253.044963,116.528352 253.122964,116.350684 C253.200964,116.173016 253.239964,116.006185 253.239964,115.850184 L253.239964,114.719184 Z M257.021964,111.469184 L258.061964,111.469184 L258.061964,112.886184 L258.087964,112.886184 C258.356632,112.340181 258.685962,111.937185 259.075964,111.677184 C259.465966,111.417183 259.959961,111.295851 260.557964,111.313184 L260.557964,112.483184 C260.115961,112.483184 259.738965,112.54385 259.426964,112.665184 C259.114962,112.786518 258.863631,112.964183 258.672964,113.198184 C258.482296,113.432185 258.343631,113.716016 258.256964,114.049684 C258.170297,114.383352 258.126964,114.766849 258.126964,115.200184 L258.126964,118.190184 L257.021964,118.190184 L257.021964,111.469184 Z M263.065964,116.071184 C263.07463,116.313852 263.130963,116.519683 263.234964,116.688684 C263.338964,116.857685 263.475463,116.992017 263.644464,117.091684 C263.813464,117.191351 264.004129,117.26285 264.216464,117.306184 C264.428798,117.349518 264.647629,117.371184 264.872964,117.371184 C265.046298,117.371184 265.228296,117.358184 265.418964,117.332184 C265.609631,117.306184 265.78513,117.258518 265.945464,117.189184 C266.105798,117.11985 266.237963,117.018018 266.341964,116.883684 C266.445964,116.74935 266.497964,116.578185 266.497964,116.370184 C266.497964,116.084183 266.389631,115.867518 266.172964,115.720184 C265.956296,115.57285 265.685465,115.453685 265.360464,115.362684 C265.035462,115.271684 264.682299,115.189351 264.300964,115.115684 C263.919628,115.042017 263.566465,114.938018 263.241464,114.803684 C262.916462,114.66935 262.645631,114.480852 262.428964,114.238184 C262.212296,113.995516 262.103964,113.65752 262.103964,113.224184 C262.103964,112.886182 262.179796,112.595852 262.331464,112.353184 C262.483131,112.110516 262.678129,111.913351 262.916464,111.761684 C263.154798,111.610017 263.423462,111.497351 263.722464,111.423684 C264.021465,111.350017 264.318295,111.313184 264.612964,111.313184 C264.994299,111.313184 265.345295,111.345684 265.665964,111.410684 C265.986632,111.475684 266.270462,111.58835 266.517464,111.748684 C266.764465,111.909018 266.96163,112.125683 267.108964,112.398684 C267.256298,112.671685 267.342964,113.011849 267.368964,113.419184 L266.263964,113.419184 C266.24663,113.202516 266.190297,113.022685 266.094964,112.879684 C265.99963,112.736683 265.878298,112.621851 265.730964,112.535184 C265.58363,112.448517 265.421131,112.385684 265.243464,112.346684 C265.065796,112.307684 264.885965,112.288184 264.703964,112.288184 C264.539296,112.288184 264.372464,112.301184 264.203464,112.327184 C264.034463,112.353184 263.880631,112.398684 263.741964,112.463684 C263.603296,112.528684 263.490631,112.61535 263.403964,112.723684 C263.317297,112.832018 263.273964,112.97285 263.273964,113.146184 C263.273964,113.336852 263.34113,113.495017 263.475464,113.620684 C263.609798,113.746351 263.780963,113.85035 263.988964,113.932684 C264.196965,114.015018 264.430962,114.08435 264.690964,114.140684 C264.950965,114.197018 265.210962,114.255517 265.470964,114.316184 C265.748298,114.376851 266.019129,114.450517 266.283464,114.537184 C266.547798,114.623851 266.781796,114.738683 266.985464,114.881684 C267.189131,115.024685 267.353796,115.204516 267.479464,115.421184 C267.605131,115.637852 267.667964,115.906516 267.667964,116.227184 C267.667964,116.634519 267.583464,116.972516 267.414464,117.241184 C267.245463,117.509852 267.024465,117.726517 266.751464,117.891184 C266.478462,118.055852 266.170799,118.170684 265.828464,118.235684 C265.486129,118.300684 265.145965,118.333184 264.807964,118.333184 C264.435295,118.333184 264.079965,118.294184 263.741964,118.216184 C263.403962,118.138184 263.104965,118.010352 262.844964,117.832684 C262.584962,117.655016 262.376964,117.421019 262.220964,117.130684 C262.064963,116.840349 261.978297,116.487186 261.960964,116.071184 L263.065964,116.071184 Z M275.309964,114.836184 C275.309964,115.243519 275.36413,115.605349 275.472464,115.921684 C275.580798,116.238019 275.730296,116.50235 275.920964,116.714684 C276.111631,116.927018 276.334796,117.089517 276.590464,117.202184 C276.846132,117.314851 277.116962,117.371184 277.402964,117.371184 C277.688965,117.371184 277.959796,117.314851 278.215464,117.202184 C278.471132,117.089517 278.694296,116.927018 278.884964,116.714684 C279.075631,116.50235 279.22513,116.238019 279.333464,115.921684 C279.441798,115.605349 279.495964,115.243519 279.495964,114.836184 C279.495964,114.428849 279.441798,114.067019 279.333464,113.750684 C279.22513,113.434349 279.075631,113.167852 278.884964,112.951184 C278.694296,112.734516 278.471132,112.569851 278.215464,112.457184 C277.959796,112.344517 277.688965,112.288184 277.402964,112.288184 C277.116962,112.288184 276.846132,112.344517 276.590464,112.457184 C276.334796,112.569851 276.111631,112.734516 275.920964,112.951184 C275.730296,113.167852 275.580798,113.434349 275.472464,113.750684 C275.36413,114.067019 275.309964,114.428849 275.309964,114.836184 Z M274.139964,114.836184 C274.139964,114.342182 274.209296,113.880686 274.347964,113.451684 C274.486631,113.022682 274.694629,112.650019 274.971964,112.333684 C275.249298,112.017349 275.591628,111.768185 275.998964,111.586184 C276.406299,111.404183 276.874294,111.313184 277.402964,111.313184 C277.9403,111.313184 278.410462,111.404183 278.813464,111.586184 C279.216466,111.768185 279.556629,112.017349 279.833964,112.333684 C280.111298,112.650019 280.319296,113.022682 280.457964,113.451684 C280.596631,113.880686 280.665964,114.342182 280.665964,114.836184 C280.665964,115.330187 280.596631,115.789515 280.457964,116.214184 C280.319296,116.638853 280.111298,117.009349 279.833964,117.325684 C279.556629,117.642019 279.216466,117.889016 278.813464,118.066684 C278.410462,118.244352 277.9403,118.333184 277.402964,118.333184 C276.874294,118.333184 276.406299,118.244352 275.998964,118.066684 C275.591628,117.889016 275.249298,117.642019 274.971964,117.325684 C274.694629,117.009349 274.486631,116.638853 274.347964,116.214184 C274.209296,115.789515 274.139964,115.330187 274.139964,114.836184 Z M283.030964,108.908184 L284.135964,108.908184 L284.135964,118.190184 L283.030964,118.190184 L283.030964,108.908184 Z M287.657964,114.888184 C287.657964,115.200186 287.69913,115.505683 287.781464,115.804684 C287.863797,116.103686 287.989463,116.370183 288.158464,116.604184 C288.327464,116.838185 288.544129,117.024517 288.808464,117.163184 C289.072798,117.301851 289.382629,117.371184 289.737964,117.371184 C290.110632,117.371184 290.426962,117.297518 290.686964,117.150184 C290.946965,117.00285 291.159296,116.810019 291.323964,116.571684 C291.488631,116.33335 291.607797,116.062519 291.681464,115.759184 C291.755131,115.455849 291.791964,115.148186 291.791964,114.836184 C291.791964,114.506849 291.752964,114.188352 291.674964,113.880684 C291.596963,113.573016 291.473464,113.302185 291.304464,113.068184 C291.135463,112.834183 290.916632,112.645685 290.647964,112.502684 C290.379296,112.359683 290.054299,112.288184 289.672964,112.288184 C289.300295,112.288184 288.983965,112.36185 288.723964,112.509184 C288.463962,112.656518 288.255964,112.851516 288.099964,113.094184 C287.943963,113.336852 287.831297,113.614182 287.761964,113.926184 C287.69263,114.238186 287.657964,114.558849 287.657964,114.888184 Z M292.857964,118.190184 L291.752964,118.190184 L291.752964,117.280184 L291.726964,117.280184 C291.544963,117.652853 291.258966,117.921517 290.868964,118.086184 C290.478962,118.250852 290.049966,118.333184 289.581964,118.333184 C289.061961,118.333184 288.609132,118.237852 288.223464,118.047184 C287.837795,117.856516 287.517132,117.600852 287.261464,117.280184 C287.005796,116.959516 286.812964,116.586853 286.682964,116.162184 C286.552963,115.737515 286.487964,115.286853 286.487964,114.810184 C286.487964,114.333515 286.550796,113.882853 286.676464,113.458184 C286.802131,113.033515 286.992796,112.663019 287.248464,112.346684 C287.504132,112.030349 287.824795,111.779018 288.210464,111.592684 C288.596132,111.40635 289.044628,111.313184 289.555964,111.313184 C289.729298,111.313184 289.915629,111.330517 290.114964,111.365184 C290.314298,111.399851 290.513629,111.45835 290.712964,111.540684 C290.912298,111.623018 291.100796,111.73135 291.278464,111.865684 C291.456131,112.000018 291.60563,112.16685 291.726964,112.366184 L291.752964,112.366184 L291.752964,108.908184 L292.857964,108.908184 L292.857964,118.190184 Z M134.131964,143.299184 C133.823962,143.695186 133.482966,143.972017 133.108964,144.129684 C132.734962,144.287352 132.357299,144.366184 131.975964,144.366184 C131.374627,144.366184 130.833799,144.261685 130.353464,144.052684 C129.873128,143.843683 129.467965,143.555853 129.137964,143.189184 C128.807962,142.822516 128.554965,142.391687 128.378964,141.896684 C128.202963,141.401682 128.114964,140.868187 128.114964,140.296184 C128.114964,139.709514 128.202963,139.16502 128.378964,138.662684 C128.554965,138.160348 128.807962,137.722186 129.137964,137.348184 C129.467965,136.974182 129.873128,136.680852 130.353464,136.468184 C130.833799,136.255516 131.374627,136.149184 131.975964,136.149184 C132.379299,136.149184 132.769795,136.209683 133.147464,136.330684 C133.525132,136.451685 133.866129,136.629516 134.170464,136.864184 C134.474798,137.098852 134.725963,137.388516 134.923964,137.733184 C135.121965,138.077852 135.242963,138.473848 135.286964,138.921184 L133.636964,138.921184 C133.534296,138.481182 133.336298,138.151185 133.042964,137.931184 C132.749629,137.711183 132.393966,137.601184 131.975964,137.601184 C131.587295,137.601184 131.257298,137.67635 130.985964,137.826684 C130.714629,137.977018 130.494631,138.178683 130.325964,138.431684 C130.157296,138.684685 130.034464,138.972516 129.957464,139.295184 C129.880463,139.617852 129.841964,139.951516 129.841964,140.296184 C129.841964,140.626186 129.880463,140.947016 129.957464,141.258684 C130.034464,141.570352 130.157296,141.850849 130.325964,142.100184 C130.494631,142.349519 130.714629,142.54935 130.985964,142.699684 C131.257298,142.850018 131.587295,142.925184 131.975964,142.925184 C132.547966,142.925184 132.989795,142.780352 133.301464,142.490684 C133.613132,142.201016 133.79463,141.781187 133.845964,141.231184 L132.107964,141.231184 L132.107964,139.944184 L135.407964,139.944184 L135.407964,144.190184 L134.307964,144.190184 L134.131964,143.299184 Z M137.804964,136.336184 L143.678964,136.336184 L143.678964,137.788184 L139.531964,137.788184 L139.531964,139.471184 L143.337964,139.471184 L143.337964,140.813184 L139.531964,140.813184 L139.531964,142.738184 L143.766964,142.738184 L143.766964,144.190184 L137.804964,144.190184 L137.804964,136.336184 Z M145.932964,136.336184 L147.648964,136.336184 L150.926964,141.605184 L150.948964,141.605184 L150.948964,136.336184 L152.565964,136.336184 L152.565964,144.190184 L150.838964,144.190184 L147.571964,138.932184 L147.549964,138.932184 L147.549964,144.190184 L145.932964,144.190184 L145.932964,136.336184 Z M156.810964,142.738184 L158.350964,142.738184 C158.600298,142.738184 158.842296,142.697851 159.076964,142.617184 C159.311631,142.536517 159.520629,142.402685 159.703964,142.215684 C159.887298,142.028683 160.033963,141.784852 160.143964,141.484184 C160.253964,141.183516 160.308964,140.816853 160.308964,140.384184 C160.308964,139.988182 160.270464,139.630686 160.193464,139.311684 C160.116463,138.992682 159.989965,138.719519 159.813964,138.492184 C159.637963,138.26485 159.405132,138.090685 159.115464,137.969684 C158.825796,137.848683 158.468299,137.788184 158.042964,137.788184 L156.810964,137.788184 L156.810964,142.738184 Z M155.083964,136.336184 L158.471964,136.336184 C158.977966,136.336184 159.449128,136.41685 159.885464,136.578184 C160.321799,136.739518 160.699462,136.981516 161.018464,137.304184 C161.337465,137.626852 161.586796,138.030182 161.766464,138.514184 C161.946131,138.998186 162.035964,139.566514 162.035964,140.219184 C162.035964,140.791187 161.962631,141.319182 161.815964,141.803184 C161.669296,142.287186 161.447465,142.705182 161.150464,143.057184 C160.853462,143.409186 160.483133,143.686016 160.039464,143.887684 C159.595795,144.089352 159.0733,144.190184 158.471964,144.190184 L155.083964,144.190184 L155.083964,136.336184 Z M164.234964,136.336184 L170.108964,136.336184 L170.108964,137.788184 L165.961964,137.788184 L165.961964,139.471184 L169.767964,139.471184 L169.767964,140.813184 L165.961964,140.813184 L165.961964,142.738184 L170.196964,142.738184 L170.196964,144.190184 L164.234964,144.190184 L164.234964,136.336184 Z M174.089964,139.889184 L175.981964,139.889184 C176.377966,139.889184 176.674963,139.801185 176.872964,139.625184 C177.070965,139.449183 177.169964,139.163186 177.169964,138.767184 C177.169964,138.385849 177.070965,138.109018 176.872964,137.936684 C176.674963,137.76435 176.377966,137.678184 175.981964,137.678184 L174.089964,137.678184 L174.089964,139.889184 Z M172.362964,136.336184 L176.597964,136.336184 C176.949965,136.336184 177.267129,136.393017 177.549464,136.506684 C177.831798,136.620351 178.073796,136.776183 178.275464,136.974184 C178.477131,137.172185 178.63113,137.401349 178.737464,137.661684 C178.843798,137.922019 178.896964,138.202516 178.896964,138.503184 C178.896964,138.965186 178.799798,139.364849 178.605464,139.702184 C178.411129,140.039519 178.093966,140.296183 177.653964,140.472184 L177.653964,140.494184 C177.866631,140.552851 178.04263,140.642683 178.181964,140.763684 C178.321298,140.884685 178.434963,141.027683 178.522964,141.192684 C178.610964,141.357685 178.67513,141.539183 178.715464,141.737184 C178.755797,141.935185 178.783297,142.133183 178.797964,142.331184 C178.805297,142.455851 178.81263,142.602517 178.819964,142.771184 C178.827297,142.939852 178.84013,143.112183 178.858464,143.288184 C178.876797,143.464185 178.90613,143.631017 178.946464,143.788684 C178.986797,143.946352 179.047297,144.080183 179.127964,144.190184 L177.400964,144.190184 C177.30563,143.940849 177.246964,143.643852 177.224964,143.299184 C177.202964,142.954516 177.169964,142.624519 177.125964,142.309184 C177.067297,141.898515 176.942631,141.597852 176.751964,141.407184 C176.561296,141.216516 176.249632,141.121184 175.816964,141.121184 L174.089964,141.121184 L174.089964,144.190184 L172.362964,144.190184 L172.362964,136.336184 Z M187.001964,140.296184 L185.274964,140.296184 L185.274964,138.602184 L187.001964,138.602184 L187.001964,140.296184 Z M185.274964,142.496184 L187.001964,142.496184 L187.001964,144.190184 L185.274964,144.190184 L185.274964,142.496184 Z M212.736964,134.908184 L214.426964,134.908184 L217.351964,142.708184 L220.289964,134.908184 L221.979964,134.908184 L221.979964,144.190184 L220.809964,144.190184 L220.809964,136.468184 L220.783964,136.468184 L217.884964,144.190184 L216.831964,144.190184 L213.932964,136.468184 L213.906964,136.468184 L213.906964,144.190184 L212.736964,144.190184 L212.736964,134.908184 Z M224.812964,137.469184 L225.852964,137.469184 L225.852964,138.886184 L225.878964,138.886184 C226.147632,138.340181 226.476962,137.937185 226.866964,137.677184 C227.256966,137.417183 227.750961,137.295851 228.348964,137.313184 L228.348964,138.483184 C227.906961,138.483184 227.529965,138.54385 227.217964,138.665184 C226.905962,138.786518 226.654631,138.964183 226.463964,139.198184 C226.273296,139.432185 226.134631,139.716016 226.047964,140.049684 C225.961297,140.383352 225.917964,140.766849 225.917964,141.200184 L225.917964,144.190184 L224.812964,144.190184 L224.812964,137.469184 Z M130.193964,163.788184 L127.839964,163.788184 L127.839964,162.336184 L134.274964,162.336184 L134.274964,163.788184 L131.920964,163.788184 L131.920964,170.190184 L130.193964,170.190184 L130.193964,163.788184 Z M136.176964,162.336184 L142.050964,162.336184 L142.050964,163.788184 L137.903964,163.788184 L137.903964,165.471184 L141.709964,165.471184 L141.709964,166.813184 L137.903964,166.813184 L137.903964,168.738184 L142.138964,168.738184 L142.138964,170.190184 L136.176964,170.190184 L136.176964,162.336184 Z M144.304964,162.336184 L146.031964,162.336184 L146.031964,168.738184 L149.859964,168.738184 L149.859964,170.190184 L144.304964,170.190184 L144.304964,162.336184 Z M157.524964,166.296184 L155.797964,166.296184 L155.797964,164.602184 L157.524964,164.602184 L157.524964,166.296184 Z M155.797964,168.496184 L157.524964,168.496184 L157.524964,170.190184 L155.797964,170.190184 L155.797964,168.496184 Z M213.412964,165.653184 C213.412964,165.999852 213.423797,166.387682 213.445464,166.816684 C213.46713,167.245686 213.536463,167.648682 213.653464,168.025684 C213.770464,168.402686 213.958962,168.721183 214.218964,168.981184 C214.478965,169.241185 214.842961,169.371184 215.310964,169.371184 C215.778966,169.371184 216.142962,169.241185 216.402964,168.981184 C216.662965,168.721183 216.851463,168.402686 216.968464,168.025684 C217.085464,167.648682 217.154797,167.245686 217.176464,166.816684 C217.19813,166.387682 217.208964,165.999852 217.208964,165.653184 C217.208964,165.42785 217.206797,165.178685 217.202464,164.905684 C217.19813,164.632683 217.176464,164.359685 217.137464,164.086684 C217.098463,163.813683 217.042131,163.547185 216.968464,163.287184 C216.894797,163.027183 216.786464,162.799685 216.643464,162.604684 C216.500463,162.409683 216.320631,162.251518 216.103964,162.130184 C215.887296,162.00885 215.622965,161.948184 215.310964,161.948184 C214.998962,161.948184 214.734631,162.00885 214.517964,162.130184 C214.301296,162.251518 214.121464,162.409683 213.978464,162.604684 C213.835463,162.799685 213.727131,163.027183 213.653464,163.287184 C213.579797,163.547185 213.523464,163.813683 213.484464,164.086684 C213.445463,164.359685 213.423797,164.632683 213.419464,164.905684 C213.41513,165.178685 213.412964,165.42785 213.412964,165.653184 Z M212.242964,165.666184 C212.242964,165.328182 212.25163,164.977186 212.268964,164.613184 C212.286297,164.249182 212.32963,163.893852 212.398964,163.547184 C212.468297,163.200516 212.567963,162.871186 212.697964,162.559184 C212.827964,162.247182 213.005629,161.974185 213.230964,161.740184 C213.456298,161.506183 213.740129,161.319851 214.082464,161.181184 C214.424799,161.042517 214.834295,160.973184 215.310964,160.973184 C215.787633,160.973184 216.197129,161.042517 216.539464,161.181184 C216.881799,161.319851 217.165629,161.506183 217.390964,161.740184 C217.616298,161.974185 217.793963,162.247182 217.923964,162.559184 C218.053964,162.871186 218.15363,163.200516 218.222964,163.547184 C218.292297,163.893852 218.33563,164.249182 218.352964,164.613184 C218.370297,164.977186 218.378964,165.328182 218.378964,165.666184 C218.378964,166.004186 218.370297,166.355182 218.352964,166.719184 C218.33563,167.083186 218.292297,167.438516 218.222964,167.785184 C218.15363,168.131852 218.053964,168.459016 217.923964,168.766684 C217.793963,169.074352 217.616298,169.345183 217.390964,169.579184 C217.165629,169.813185 216.883965,169.99735 216.545964,170.131684 C216.207962,170.266018 215.796299,170.333184 215.310964,170.333184 C214.834295,170.333184 214.424799,170.266018 214.082464,170.131684 C213.740129,169.99735 213.456298,169.813185 213.230964,169.579184 C213.005629,169.345183 212.827964,169.074352 212.697964,168.766684 C212.567963,168.459016 212.468297,168.131852 212.398964,167.785184 C212.32963,167.438516 212.286297,167.083186 212.268964,166.719184 C212.25163,166.355182 212.242964,166.004186 212.242964,165.666184 Z M221.666964,167.967184 C221.710297,168.417853 221.892295,168.764516 222.212964,169.007184 C222.533632,169.249852 222.914961,169.371184 223.356964,169.371184 C224.032967,169.371184 224.539962,169.078687 224.877964,168.493684 C225.215965,167.908681 225.402297,167.013857 225.436964,165.809184 L225.410964,165.783184 C225.202963,166.173186 224.908299,166.483016 224.526964,166.712684 C224.145628,166.942352 223.729633,167.057184 223.278964,167.057184 C222.810961,167.057184 222.394965,166.981351 222.030964,166.829684 C221.666962,166.678017 221.361465,166.467852 221.114464,166.199184 C220.867462,165.930516 220.681131,165.605519 220.555464,165.224184 C220.429796,164.842849 220.366964,164.426853 220.366964,163.976184 C220.366964,163.534182 220.44063,163.129019 220.587964,162.760684 C220.735298,162.392349 220.943296,162.076019 221.211964,161.811684 C221.480632,161.547349 221.801295,161.341518 222.173964,161.194184 C222.546632,161.04685 222.953961,160.973184 223.395964,160.973184 C223.829299,160.973184 224.236628,161.04035 224.617964,161.174684 C224.999299,161.309018 225.332962,161.540849 225.618964,161.870184 C225.904965,162.199519 226.132463,162.648015 226.301464,163.215684 C226.470464,163.783354 226.554964,164.504846 226.554964,165.380184 C226.554964,166.974859 226.301466,168.199013 225.794464,169.052684 C225.287461,169.906355 224.474969,170.333184 223.356964,170.333184 C222.585626,170.333184 221.9443,170.138186 221.432964,169.748184 C220.921628,169.358182 220.631297,168.764521 220.561964,167.967184 L221.666964,167.967184 Z M225.241964,164.054184 C225.241964,163.768183 225.200797,163.499519 225.118464,163.248184 C225.03613,162.996849 224.914798,162.773685 224.754464,162.578684 C224.59413,162.383683 224.396965,162.229851 224.162964,162.117184 C223.928962,162.004517 223.655965,161.948184 223.343964,161.948184 C223.014629,161.948184 222.735131,162.00885 222.505464,162.130184 C222.275796,162.251518 222.089464,162.414016 221.946464,162.617684 C221.803463,162.821352 221.699464,163.053183 221.634464,163.313184 C221.569463,163.573185 221.536964,163.846183 221.536964,164.132184 C221.536964,164.383519 221.582463,164.626183 221.673464,164.860184 C221.764464,165.094185 221.89013,165.302183 222.050464,165.484184 C222.210798,165.666185 222.401463,165.81135 222.622464,165.919684 C222.843465,166.028018 223.088296,166.082184 223.356964,166.082184 C223.642965,166.082184 223.902962,166.028018 224.136964,165.919684 C224.370965,165.81135 224.570296,165.664018 224.734964,165.477684 C224.899631,165.29135 225.025297,165.074685 225.111964,164.827684 C225.198631,164.580683 225.241964,164.322852 225.241964,164.054184 Z M233.534964,163.326184 C233.482963,162.910182 233.322632,162.576519 233.053964,162.325184 C232.785296,162.073849 232.429966,161.948184 231.987964,161.948184 C231.519961,161.948184 231.142965,162.063016 230.856964,162.292684 C230.570962,162.522352 230.347798,162.812682 230.187464,163.163684 C230.02713,163.514686 229.916631,163.893849 229.855964,164.301184 C229.795297,164.708519 229.76063,165.089849 229.751964,165.445184 L229.777964,165.471184 C230.037965,165.046515 230.360795,164.738852 230.746464,164.548184 C231.132132,164.357516 231.576294,164.262184 232.078964,164.262184 C232.520966,164.262184 232.917462,164.338017 233.268464,164.489684 C233.619465,164.641351 233.914129,164.851516 234.152464,165.120184 C234.390798,165.388852 234.574963,165.705182 234.704964,166.069184 C234.834964,166.433186 234.899964,166.827515 234.899964,167.252184 C234.899964,167.590186 234.847964,167.941182 234.743964,168.305184 C234.639963,168.669186 234.468798,169.000683 234.230464,169.299684 C233.992129,169.598686 233.675799,169.845683 233.281464,170.040684 C232.887128,170.235685 232.399633,170.333184 231.818964,170.333184 C231.134294,170.333184 230.583966,170.194519 230.167964,169.917184 C229.751962,169.639849 229.431298,169.28452 229.205964,168.851184 C228.980629,168.417849 228.831131,167.941187 228.757464,167.421184 C228.683797,166.901181 228.646964,166.39852 228.646964,165.913184 C228.646964,165.280514 228.70113,164.667354 228.809464,164.073684 C228.917798,163.480014 229.101962,162.95352 229.361964,162.494184 C229.621965,162.034848 229.968628,161.666519 230.401964,161.389184 C230.835299,161.111849 231.381294,160.973184 232.039964,160.973184 C232.802634,160.973184 233.409295,161.174682 233.859964,161.577684 C234.310633,161.980686 234.57063,162.563514 234.639964,163.326184 L233.534964,163.326184 Z M231.870964,165.237184 C231.558962,165.237184 231.285965,165.29135 231.051964,165.399684 C230.817962,165.508018 230.618631,165.65535 230.453964,165.841684 C230.289296,166.028018 230.165797,166.249016 230.083464,166.504684 C230.00113,166.760352 229.959964,167.031183 229.959964,167.317184 C229.959964,167.603185 230.003297,167.871849 230.089964,168.123184 C230.176631,168.374519 230.30013,168.591183 230.460464,168.773184 C230.620798,168.955185 230.820129,169.10035 231.058464,169.208684 C231.296798,169.317018 231.567629,169.371184 231.870964,169.371184 C232.174298,169.371184 232.440796,169.317018 232.670464,169.208684 C232.900131,169.10035 233.092963,168.950852 233.248964,168.760184 C233.404964,168.569516 233.52413,168.350685 233.606464,168.103684 C233.688797,167.856683 233.729964,167.598852 233.729964,167.330184 C233.729964,167.044183 233.693131,166.773352 233.619464,166.517684 C233.545797,166.262016 233.430964,166.041018 233.274964,165.854684 C233.118963,165.66835 232.923965,165.518851 232.689964,165.406184 C232.455962,165.293517 232.182965,165.237184 231.870964,165.237184 Z M243.828964,164.925184 C243.872297,164.933851 243.911297,164.938184 243.945964,164.938184 L244.309964,164.938184 C244.543965,164.938184 244.767129,164.905684 244.979464,164.840684 C245.191798,164.775684 245.37813,164.680351 245.538464,164.554684 C245.698798,164.429017 245.82663,164.270852 245.921964,164.080184 C246.017297,163.889516 246.064964,163.672852 246.064964,163.430184 C246.064964,162.936182 245.908965,162.565685 245.596964,162.318684 C245.284962,162.071683 244.894966,161.948184 244.426964,161.948184 C244.132295,161.948184 243.874465,162.00235 243.653464,162.110684 C243.432463,162.219018 243.250464,162.364183 243.107464,162.546184 C242.964463,162.728185 242.858297,162.940516 242.788964,163.183184 C242.71963,163.425852 242.684964,163.681516 242.684964,163.950184 L241.579964,163.950184 C241.597297,163.508182 241.668796,163.105186 241.794464,162.741184 C241.920131,162.377182 242.099962,162.065185 242.333964,161.805184 C242.567965,161.545183 242.860462,161.341518 243.211464,161.194184 C243.562465,161.04685 243.967628,160.973184 244.426964,160.973184 C244.825632,160.973184 245.196129,161.023017 245.538464,161.122684 C245.880799,161.222351 246.177629,161.37185 246.428964,161.571184 C246.680298,161.770518 246.877463,162.026182 247.020464,162.338184 C247.163464,162.650186 247.234964,163.018515 247.234964,163.443184 C247.234964,163.859186 247.113632,164.227516 246.870964,164.548184 C246.628296,164.868852 246.324965,165.111517 245.960964,165.276184 L245.960964,165.302184 C246.5243,165.423518 246.942462,165.687849 247.215464,166.095184 C247.488465,166.502519 247.624964,166.983515 247.624964,167.538184 C247.624964,167.99752 247.540464,168.402682 247.371464,168.753684 C247.202463,169.104686 246.974965,169.397183 246.688964,169.631184 C246.402962,169.865185 246.067132,170.040683 245.681464,170.157684 C245.295795,170.274685 244.886299,170.333184 244.452964,170.333184 C243.984961,170.333184 243.560299,170.268185 243.178964,170.138184 C242.797628,170.008183 242.472632,169.815352 242.203964,169.559684 C241.935296,169.304016 241.729464,168.989853 241.586464,168.617184 C241.443463,168.244516 241.376297,167.819853 241.384964,167.343184 L242.489964,167.343184 C242.507297,167.941187 242.680629,168.428682 243.009964,168.805684 C243.339299,169.182686 243.820294,169.371184 244.452964,169.371184 C244.721632,169.371184 244.977296,169.330018 245.219964,169.247684 C245.462632,169.16535 245.674963,169.048351 245.856964,168.896684 C246.038965,168.745017 246.18413,168.558685 246.292464,168.337684 C246.400798,168.116683 246.454964,167.867519 246.454964,167.590184 C246.454964,167.304183 246.402964,167.050685 246.298964,166.829684 C246.194963,166.608683 246.056298,166.422351 245.882964,166.270684 C245.709629,166.119017 245.503798,166.006351 245.265464,165.932684 C245.027129,165.859017 244.769298,165.822184 244.491964,165.822184 C244.257962,165.822184 244.036965,165.835184 243.828964,165.861184 L243.828964,164.925184 Z M252.056964,164.925184 C252.100297,164.933851 252.139297,164.938184 252.173964,164.938184 L252.537964,164.938184 C252.771965,164.938184 252.995129,164.905684 253.207464,164.840684 C253.419798,164.775684 253.60613,164.680351 253.766464,164.554684 C253.926798,164.429017 254.05463,164.270852 254.149964,164.080184 C254.245297,163.889516 254.292964,163.672852 254.292964,163.430184 C254.292964,162.936182 254.136965,162.565685 253.824964,162.318684 C253.512962,162.071683 253.122966,161.948184 252.654964,161.948184 C252.360295,161.948184 252.102465,162.00235 251.881464,162.110684 C251.660463,162.219018 251.478464,162.364183 251.335464,162.546184 C251.192463,162.728185 251.086297,162.940516 251.016964,163.183184 C250.94763,163.425852 250.912964,163.681516 250.912964,163.950184 L249.807964,163.950184 C249.825297,163.508182 249.896796,163.105186 250.022464,162.741184 C250.148131,162.377182 250.327962,162.065185 250.561964,161.805184 C250.795965,161.545183 251.088462,161.341518 251.439464,161.194184 C251.790465,161.04685 252.195628,160.973184 252.654964,160.973184 C253.053632,160.973184 253.424129,161.023017 253.766464,161.122684 C254.108799,161.222351 254.405629,161.37185 254.656964,161.571184 C254.908298,161.770518 255.105463,162.026182 255.248464,162.338184 C255.391464,162.650186 255.462964,163.018515 255.462964,163.443184 C255.462964,163.859186 255.341632,164.227516 255.098964,164.548184 C254.856296,164.868852 254.552965,165.111517 254.188964,165.276184 L254.188964,165.302184 C254.7523,165.423518 255.170462,165.687849 255.443464,166.095184 C255.716465,166.502519 255.852964,166.983515 255.852964,167.538184 C255.852964,167.99752 255.768464,168.402682 255.599464,168.753684 C255.430463,169.104686 255.202965,169.397183 254.916964,169.631184 C254.630962,169.865185 254.295132,170.040683 253.909464,170.157684 C253.523795,170.274685 253.114299,170.333184 252.680964,170.333184 C252.212961,170.333184 251.788299,170.268185 251.406964,170.138184 C251.025628,170.008183 250.700632,169.815352 250.431964,169.559684 C250.163296,169.304016 249.957464,168.989853 249.814464,168.617184 C249.671463,168.244516 249.604297,167.819853 249.612964,167.343184 L250.717964,167.343184 C250.735297,167.941187 250.908629,168.428682 251.237964,168.805684 C251.567299,169.182686 252.048294,169.371184 252.680964,169.371184 C252.949632,169.371184 253.205296,169.330018 253.447964,169.247684 C253.690632,169.16535 253.902963,169.048351 254.084964,168.896684 C254.266965,168.745017 254.41213,168.558685 254.520464,168.337684 C254.628798,168.116683 254.682964,167.867519 254.682964,167.590184 C254.682964,167.304183 254.630964,167.050685 254.526964,166.829684 C254.422963,166.608683 254.284298,166.422351 254.110964,166.270684 C253.937629,166.119017 253.731798,166.006351 253.493464,165.932684 C253.255129,165.859017 252.997298,165.822184 252.719964,165.822184 C252.485962,165.822184 252.264965,165.835184 252.056964,165.861184 L252.056964,164.925184 Z M260.284964,164.925184 C260.328297,164.933851 260.367297,164.938184 260.401964,164.938184 L260.765964,164.938184 C260.999965,164.938184 261.223129,164.905684 261.435464,164.840684 C261.647798,164.775684 261.83413,164.680351 261.994464,164.554684 C262.154798,164.429017 262.28263,164.270852 262.377964,164.080184 C262.473297,163.889516 262.520964,163.672852 262.520964,163.430184 C262.520964,162.936182 262.364965,162.565685 262.052964,162.318684 C261.740962,162.071683 261.350966,161.948184 260.882964,161.948184 C260.588295,161.948184 260.330465,162.00235 260.109464,162.110684 C259.888463,162.219018 259.706464,162.364183 259.563464,162.546184 C259.420463,162.728185 259.314297,162.940516 259.244964,163.183184 C259.17563,163.425852 259.140964,163.681516 259.140964,163.950184 L258.035964,163.950184 C258.053297,163.508182 258.124796,163.105186 258.250464,162.741184 C258.376131,162.377182 258.555962,162.065185 258.789964,161.805184 C259.023965,161.545183 259.316462,161.341518 259.667464,161.194184 C260.018465,161.04685 260.423628,160.973184 260.882964,160.973184 C261.281632,160.973184 261.652129,161.023017 261.994464,161.122684 C262.336799,161.222351 262.633629,161.37185 262.884964,161.571184 C263.136298,161.770518 263.333463,162.026182 263.476464,162.338184 C263.619464,162.650186 263.690964,163.018515 263.690964,163.443184 C263.690964,163.859186 263.569632,164.227516 263.326964,164.548184 C263.084296,164.868852 262.780965,165.111517 262.416964,165.276184 L262.416964,165.302184 C262.9803,165.423518 263.398462,165.687849 263.671464,166.095184 C263.944465,166.502519 264.080964,166.983515 264.080964,167.538184 C264.080964,167.99752 263.996464,168.402682 263.827464,168.753684 C263.658463,169.104686 263.430965,169.397183 263.144964,169.631184 C262.858962,169.865185 262.523132,170.040683 262.137464,170.157684 C261.751795,170.274685 261.342299,170.333184 260.908964,170.333184 C260.440961,170.333184 260.016299,170.268185 259.634964,170.138184 C259.253628,170.008183 258.928632,169.815352 258.659964,169.559684 C258.391296,169.304016 258.185464,168.989853 258.042464,168.617184 C257.899463,168.244516 257.832297,167.819853 257.840964,167.343184 L258.945964,167.343184 C258.963297,167.941187 259.136629,168.428682 259.465964,168.805684 C259.795299,169.182686 260.276294,169.371184 260.908964,169.371184 C261.177632,169.371184 261.433296,169.330018 261.675964,169.247684 C261.918632,169.16535 262.130963,169.048351 262.312964,168.896684 C262.494965,168.745017 262.64013,168.558685 262.748464,168.337684 C262.856798,168.116683 262.910964,167.867519 262.910964,167.590184 C262.910964,167.304183 262.858964,167.050685 262.754964,166.829684 C262.650963,166.608683 262.512298,166.422351 262.338964,166.270684 C262.165629,166.119017 261.959798,166.006351 261.721464,165.932684 C261.483129,165.859017 261.225298,165.822184 260.947964,165.822184 C260.713962,165.822184 260.492965,165.835184 260.284964,165.861184 L260.284964,164.925184 Z M268.512964,164.925184 C268.556297,164.933851 268.595297,164.938184 268.629964,164.938184 L268.993964,164.938184 C269.227965,164.938184 269.451129,164.905684 269.663464,164.840684 C269.875798,164.775684 270.06213,164.680351 270.222464,164.554684 C270.382798,164.429017 270.51063,164.270852 270.605964,164.080184 C270.701297,163.889516 270.748964,163.672852 270.748964,163.430184 C270.748964,162.936182 270.592965,162.565685 270.280964,162.318684 C269.968962,162.071683 269.578966,161.948184 269.110964,161.948184 C268.816295,161.948184 268.558465,162.00235 268.337464,162.110684 C268.116463,162.219018 267.934464,162.364183 267.791464,162.546184 C267.648463,162.728185 267.542297,162.940516 267.472964,163.183184 C267.40363,163.425852 267.368964,163.681516 267.368964,163.950184 L266.263964,163.950184 C266.281297,163.508182 266.352796,163.105186 266.478464,162.741184 C266.604131,162.377182 266.783962,162.065185 267.017964,161.805184 C267.251965,161.545183 267.544462,161.341518 267.895464,161.194184 C268.246465,161.04685 268.651628,160.973184 269.110964,160.973184 C269.509632,160.973184 269.880129,161.023017 270.222464,161.122684 C270.564799,161.222351 270.861629,161.37185 271.112964,161.571184 C271.364298,161.770518 271.561463,162.026182 271.704464,162.338184 C271.847464,162.650186 271.918964,163.018515 271.918964,163.443184 C271.918964,163.859186 271.797632,164.227516 271.554964,164.548184 C271.312296,164.868852 271.008965,165.111517 270.644964,165.276184 L270.644964,165.302184 C271.2083,165.423518 271.626462,165.687849 271.899464,166.095184 C272.172465,166.502519 272.308964,166.983515 272.308964,167.538184 C272.308964,167.99752 272.224464,168.402682 272.055464,168.753684 C271.886463,169.104686 271.658965,169.397183 271.372964,169.631184 C271.086962,169.865185 270.751132,170.040683 270.365464,170.157684 C269.979795,170.274685 269.570299,170.333184 269.136964,170.333184 C268.668961,170.333184 268.244299,170.268185 267.862964,170.138184 C267.481628,170.008183 267.156632,169.815352 266.887964,169.559684 C266.619296,169.304016 266.413464,168.989853 266.270464,168.617184 C266.127463,168.244516 266.060297,167.819853 266.068964,167.343184 L267.173964,167.343184 C267.191297,167.941187 267.364629,168.428682 267.693964,168.805684 C268.023299,169.182686 268.504294,169.371184 269.136964,169.371184 C269.405632,169.371184 269.661296,169.330018 269.903964,169.247684 C270.146632,169.16535 270.358963,169.048351 270.540964,168.896684 C270.722965,168.745017 270.86813,168.558685 270.976464,168.337684 C271.084798,168.116683 271.138964,167.867519 271.138964,167.590184 C271.138964,167.304183 271.086964,167.050685 270.982964,166.829684 C270.878963,166.608683 270.740298,166.422351 270.566964,166.270684 C270.393629,166.119017 270.187798,166.006351 269.949464,165.932684 C269.711129,165.859017 269.453298,165.822184 269.175964,165.822184 C268.941962,165.822184 268.720965,165.835184 268.512964,165.861184 L268.512964,164.925184 Z M280.262964,167.967184 C280.306297,168.417853 280.488295,168.764516 280.808964,169.007184 C281.129632,169.249852 281.510961,169.371184 281.952964,169.371184 C282.628967,169.371184 283.135962,169.078687 283.473964,168.493684 C283.811965,167.908681 283.998297,167.013857 284.032964,165.809184 L284.006964,165.783184 C283.798963,166.173186 283.504299,166.483016 283.122964,166.712684 C282.741628,166.942352 282.325633,167.057184 281.874964,167.057184 C281.406961,167.057184 280.990965,166.981351 280.626964,166.829684 C280.262962,166.678017 279.957465,166.467852 279.710464,166.199184 C279.463462,165.930516 279.277131,165.605519 279.151464,165.224184 C279.025796,164.842849 278.962964,164.426853 278.962964,163.976184 C278.962964,163.534182 279.03663,163.129019 279.183964,162.760684 C279.331298,162.392349 279.539296,162.076019 279.807964,161.811684 C280.076632,161.547349 280.397295,161.341518 280.769964,161.194184 C281.142632,161.04685 281.549961,160.973184 281.991964,160.973184 C282.425299,160.973184 282.832628,161.04035 283.213964,161.174684 C283.595299,161.309018 283.928962,161.540849 284.214964,161.870184 C284.500965,162.199519 284.728463,162.648015 284.897464,163.215684 C285.066464,163.783354 285.150964,164.504846 285.150964,165.380184 C285.150964,166.974859 284.897466,168.199013 284.390464,169.052684 C283.883461,169.906355 283.070969,170.333184 281.952964,170.333184 C281.181626,170.333184 280.5403,170.138186 280.028964,169.748184 C279.517628,169.358182 279.227297,168.764521 279.157964,167.967184 L280.262964,167.967184 Z M283.837964,164.054184 C283.837964,163.768183 283.796797,163.499519 283.714464,163.248184 C283.63213,162.996849 283.510798,162.773685 283.350464,162.578684 C283.19013,162.383683 282.992965,162.229851 282.758964,162.117184 C282.524962,162.004517 282.251965,161.948184 281.939964,161.948184 C281.610629,161.948184 281.331131,162.00885 281.101464,162.130184 C280.871796,162.251518 280.685464,162.414016 280.542464,162.617684 C280.399463,162.821352 280.295464,163.053183 280.230464,163.313184 C280.165463,163.573185 280.132964,163.846183 280.132964,164.132184 C280.132964,164.383519 280.178463,164.626183 280.269464,164.860184 C280.360464,165.094185 280.48613,165.302183 280.646464,165.484184 C280.806798,165.666185 280.997463,165.81135 281.218464,165.919684 C281.439465,166.028018 281.684296,166.082184 281.952964,166.082184 C282.238965,166.082184 282.498962,166.028018 282.732964,165.919684 C282.966965,165.81135 283.166296,165.664018 283.330964,165.477684 C283.495631,165.29135 283.621297,165.074685 283.707964,164.827684 C283.794631,164.580683 283.837964,164.322852 283.837964,164.054184 Z M291.376964,170.190184 L290.271964,170.190184 L290.271964,163.586184 L287.879964,163.586184 L287.879964,162.702184 C288.191965,162.702184 288.495295,162.678351 288.789964,162.630684 C289.084632,162.583017 289.351129,162.494185 289.589464,162.364184 C289.827798,162.234183 290.029296,162.056519 290.193964,161.831184 C290.358631,161.60585 290.471297,161.319852 290.531964,160.973184 L291.376964,160.973184 L291.376964,170.190184 Z M296.718964,167.967184 C296.762297,168.417853 296.944295,168.764516 297.264964,169.007184 C297.585632,169.249852 297.966961,169.371184 298.408964,169.371184 C299.084967,169.371184 299.591962,169.078687 299.929964,168.493684 C300.267965,167.908681 300.454297,167.013857 300.488964,165.809184 L300.462964,165.783184 C300.254963,166.173186 299.960299,166.483016 299.578964,166.712684 C299.197628,166.942352 298.781633,167.057184 298.330964,167.057184 C297.862961,167.057184 297.446965,166.981351 297.082964,166.829684 C296.718962,166.678017 296.413465,166.467852 296.166464,166.199184 C295.919462,165.930516 295.733131,165.605519 295.607464,165.224184 C295.481796,164.842849 295.418964,164.426853 295.418964,163.976184 C295.418964,163.534182 295.49263,163.129019 295.639964,162.760684 C295.787298,162.392349 295.995296,162.076019 296.263964,161.811684 C296.532632,161.547349 296.853295,161.341518 297.225964,161.194184 C297.598632,161.04685 298.005961,160.973184 298.447964,160.973184 C298.881299,160.973184 299.288628,161.04035 299.669964,161.174684 C300.051299,161.309018 300.384962,161.540849 300.670964,161.870184 C300.956965,162.199519 301.184463,162.648015 301.353464,163.215684 C301.522464,163.783354 301.606964,164.504846 301.606964,165.380184 C301.606964,166.974859 301.353466,168.199013 300.846464,169.052684 C300.339461,169.906355 299.526969,170.333184 298.408964,170.333184 C297.637626,170.333184 296.9963,170.138186 296.484964,169.748184 C295.973628,169.358182 295.683297,168.764521 295.613964,167.967184 L296.718964,167.967184 Z M300.293964,164.054184 C300.293964,163.768183 300.252797,163.499519 300.170464,163.248184 C300.08813,162.996849 299.966798,162.773685 299.806464,162.578684 C299.64613,162.383683 299.448965,162.229851 299.214964,162.117184 C298.980962,162.004517 298.707965,161.948184 298.395964,161.948184 C298.066629,161.948184 297.787131,162.00885 297.557464,162.130184 C297.327796,162.251518 297.141464,162.414016 296.998464,162.617684 C296.855463,162.821352 296.751464,163.053183 296.686464,163.313184 C296.621463,163.573185 296.588964,163.846183 296.588964,164.132184 C296.588964,164.383519 296.634463,164.626183 296.725464,164.860184 C296.816464,165.094185 296.94213,165.302183 297.102464,165.484184 C297.262798,165.666185 297.453463,165.81135 297.674464,165.919684 C297.895465,166.028018 298.140296,166.082184 298.408964,166.082184 C298.694965,166.082184 298.954962,166.028018 299.188964,165.919684 C299.422965,165.81135 299.622296,165.664018 299.786964,165.477684 C299.951631,165.29135 300.077297,165.074685 300.163964,164.827684 C300.250631,164.580683 300.293964,164.322852 300.293964,164.054184 Z M130.182964,194.738184 L131.722964,194.738184 C131.972298,194.738184 132.214296,194.697851 132.448964,194.617184 C132.683631,194.536517 132.892629,194.402685 133.075964,194.215684 C133.259298,194.028683 133.405963,193.784852 133.515964,193.484184 C133.625964,193.183516 133.680964,192.816853 133.680964,192.384184 C133.680964,191.988182 133.642464,191.630686 133.565464,191.311684 C133.488463,190.992682 133.361965,190.719519 133.185964,190.492184 C133.009963,190.26485 132.777132,190.090685 132.487464,189.969684 C132.197796,189.848683 131.840299,189.788184 131.414964,189.788184 L130.182964,189.788184 L130.182964,194.738184 Z M128.455964,188.336184 L131.843964,188.336184 C132.349966,188.336184 132.821128,188.41685 133.257464,188.578184 C133.693799,188.739518 134.071462,188.981516 134.390464,189.304184 C134.709465,189.626852 134.958796,190.030182 135.138464,190.514184 C135.318131,190.998186 135.407964,191.566514 135.407964,192.219184 C135.407964,192.791187 135.334631,193.319182 135.187964,193.803184 C135.041296,194.287186 134.819465,194.705182 134.522464,195.057184 C134.225462,195.409186 133.855133,195.686016 133.411464,195.887684 C132.967795,196.089352 132.4453,196.190184 131.843964,196.190184 L128.455964,196.190184 L128.455964,188.336184 Z M137.606964,188.336184 L143.480964,188.336184 L143.480964,189.788184 L139.333964,189.788184 L139.333964,191.471184 L143.139964,191.471184 L143.139964,192.813184 L139.333964,192.813184 L139.333964,194.738184 L143.568964,194.738184 L143.568964,196.190184 L137.606964,196.190184 L137.606964,188.336184 Z M147.472964,189.788184 L145.118964,189.788184 L145.118964,188.336184 L151.553964,188.336184 L151.553964,189.788184 L149.199964,189.788184 L149.199964,196.190184 L147.472964,196.190184 L147.472964,189.788184 Z M154.423964,193.154184 L156.458964,193.154184 L155.468964,190.272184 L155.446964,190.272184 L154.423964,193.154184 Z M154.588964,188.336184 L156.359964,188.336184 L159.296964,196.190184 L157.503964,196.190184 L156.909964,194.441184 L153.972964,194.441184 L153.356964,196.190184 L151.618964,196.190184 L154.588964,188.336184 Z M160.978964,188.336184 L162.705964,188.336184 L162.705964,196.190184 L160.978964,196.190184 L160.978964,188.336184 Z M165.223964,188.336184 L166.950964,188.336184 L166.950964,194.738184 L170.778964,194.738184 L170.778964,196.190184 L165.223964,196.190184 L165.223964,188.336184 Z M178.443964,192.296184 L176.716964,192.296184 L176.716964,190.602184 L178.443964,190.602184 L178.443964,192.296184 Z M176.716964,194.496184 L178.443964,194.496184 L178.443964,196.190184 L176.716964,196.190184 L176.716964,194.496184 Z" id="Name-:-Him-Piseth-Ro"></path>
                </g>
            </g>
        </g>
    </g>
</svg>