<?xml version="1.0" encoding="UTF-8"?>
<svg width="20px" height="20px" viewBox="0 0 20 20" version="1.1" xmlns="http://www.w3.org/2000/svg" xmlns:xlink="http://www.w3.org/1999/xlink">
    <!-- Generator: Sketch 49.2 (51160) - http://www.bohemiancoding.com/sketch -->
    <title>Phone - simple-line-icons</title>
    <desc>Created with Sketch.</desc>
    <defs></defs>
    <g id="Screen" stroke="none" stroke-width="1" fill="none" fill-rule="evenodd">
        <g id="Profiles-List" transform="translate(-1400.000000, -26.000000)" fill="#000000">
            <g id="Header" transform="translate(18.000000, 15.000000)">
                <path d="M1387.11719,11.9726562 C1387.48177,12.4804713 1387.88216,13.0598926 1388.31836,13.7109375 C1388.75456,14.3619824 1389.22656,15.0846314 1389.73438,15.8789062 C1389.86458,16.0872406 1389.91992,16.3216133 1389.90039,16.5820312 C1389.88086,16.8424492 1389.78646,17.1223943 1389.61719,17.421875 C1389.55208,17.552084 1389.44141,17.7604152 1389.28516,18.046875 C1389.12891,18.3333348 1388.92708,18.7044248 1388.67969,19.1601562 C1388.95313,19.5507832 1389.30143,19.9869768 1389.72461,20.46875 C1390.14779,20.9505232 1390.63932,21.4713514 1391.19922,22.03125 C1391.77214,22.6041695 1392.29622,23.1022114 1392.77148,23.5253906 C1393.24675,23.9485698 1393.67318,24.2968736 1394.05078,24.5703125 C1394.49349,24.3098945 1394.86133,24.0983081 1395.1543,23.9355469 C1395.44727,23.7727856 1395.65885,23.6588545 1395.78906,23.59375 C1395.94531,23.5026037 1396.10482,23.434245 1396.26758,23.3886719 C1396.43034,23.3430987 1396.58333,23.3203125 1396.72656,23.3203125 C1396.84375,23.3203125 1396.95117,23.3333332 1397.04883,23.359375 C1397.14648,23.3854168 1397.24088,23.4244789 1397.33203,23.4765625 C1397.91797,23.8281268 1398.53646,24.222003 1399.1875,24.6582031 C1399.83854,25.0944032 1400.53515,25.5729141 1401.27734,26.09375 C1401.40755,26.1848963 1401.51172,26.3020826 1401.58984,26.4453125 C1401.66797,26.5885424 1401.72005,26.7447908 1401.74609,26.9140625 C1401.75911,27.0963551 1401.73958,27.2819001 1401.6875,27.4707031 C1401.63542,27.6595062 1401.54427,27.8515615 1401.41406,28.046875 C1401.36198,28.1380213 1401.28385,28.2486973 1401.17969,28.3789062 C1401.07552,28.5091152 1400.95182,28.6588533 1400.80859,28.828125 C1400.67838,28.9973967 1400.50912,29.1894521 1400.30078,29.4042969 C1400.09245,29.6191417 1399.84505,29.8567695 1399.55859,30.1171875 C1399.28515,30.3776055 1399.03451,30.572916 1398.80664,30.703125 C1398.57877,30.833334 1398.38021,30.8984375 1398.21094,30.8984375 L1398.17188,30.8984375 C1397.49479,30.8723957 1396.78516,30.7259128 1396.04297,30.4589844 C1395.30078,30.192056 1394.51954,29.8112004 1393.69922,29.3164062 C1392.8789,28.8216121 1392.01954,28.2031287 1391.12109,27.4609375 C1390.22265,26.7187463 1389.28516,25.8658902 1388.30859,24.9023438 C1387.33203,23.9257764 1386.47592,22.9882857 1385.74023,22.0898438 C1385.00455,21.1914018 1384.38607,20.3320354 1383.88477,19.5117188 C1383.38346,18.6914021 1383.00261,17.9069048 1382.74219,17.1582031 C1382.48177,16.4095015 1382.33854,15.7031283 1382.3125,15.0390625 C1382.3125,14.8567699 1382.3776,14.6516938 1382.50781,14.4238281 C1382.63802,14.1959624 1382.83333,13.9388035 1383.09375,13.6523438 C1383.35417,13.365884 1383.58854,13.1217458 1383.79688,12.9199219 C1384.00521,12.7180979 1384.19401,12.552084 1384.36328,12.421875 C1384.51953,12.3046869 1384.66927,12.1940109 1384.8125,12.0898438 C1384.95573,11.9856766 1385.07943,11.8945316 1385.18359,11.8164062 C1385.32682,11.7122391 1385.47656,11.63737 1385.63281,11.5917969 C1385.78906,11.5462237 1385.95833,11.5234375 1386.14062,11.5234375 C1386.34896,11.5234375 1386.5345,11.5592444 1386.69727,11.6308594 C1386.86003,11.7024743 1387,11.8164055 1387.11719,11.9726562 Z M1385.86719,12.7734375 C1385.60677,12.9557301 1385.35287,13.1542958 1385.10547,13.3691406 C1384.85807,13.5839854 1384.61719,13.8085926 1384.38281,14.0429688 C1384.14844,14.2773449 1383.96289,14.4791658 1383.82617,14.6484375 C1383.68945,14.8177092 1383.60156,14.9609369 1383.5625,15.078125 C1383.58854,15.6640654 1383.72526,16.2890592 1383.97266,16.953125 C1384.22005,17.6171908 1384.57812,18.323564 1385.04688,19.0722656 C1385.51563,19.8209673 1386.09505,20.6087198 1386.78516,21.4355469 C1387.47526,22.2623739 1388.27604,23.1315059 1389.1875,24.0429688 C1390.09896,24.9544316 1390.96809,25.7552049 1391.79492,26.4453125 C1392.62175,27.1354201 1393.4095,27.7148414 1394.1582,28.1835938 C1394.9069,28.6523461 1395.61653,29.0104154 1396.28711,29.2578125 C1396.95769,29.5052096 1397.58593,29.6484373 1398.17188,29.6875 C1398.26302,29.6484373 1398.39323,29.5572924 1398.5625,29.4140625 C1398.73177,29.2708326 1398.93359,29.0820324 1399.16797,28.8476562 C1399.40234,28.6132801 1399.6237,28.3691419 1399.83203,28.1152344 C1400.04037,27.8613269 1400.24219,27.604168 1400.4375,27.34375 C1400.47656,27.2916664 1400.5026,27.2428388 1400.51562,27.1972656 C1400.52865,27.1516925 1400.52865,27.1093752 1400.51562,27.0703125 C1399.76041,26.5364557 1399.06706,26.0612 1398.43555,25.6445312 C1397.80403,25.2278625 1397.23438,24.8567725 1396.72656,24.53125 C1396.67448,24.53125 1396.61589,24.5410155 1396.55078,24.5605469 C1396.48568,24.5800782 1396.41406,24.6093748 1396.33594,24.6484375 C1396.23177,24.713542 1396.03646,24.824218 1395.75,24.9804688 C1395.46354,25.1367195 1395.09245,25.3385404 1394.63672,25.5859375 L1393.99219,25.9765625 L1393.34766,25.546875 C1392.93099,25.2604152 1392.47201,24.8925804 1391.9707,24.4433594 C1391.4694,23.9941384 1390.91927,23.4700551 1390.32031,22.8710938 C1389.73437,22.2721324 1389.22005,21.7220077 1388.77734,21.2207031 C1388.33463,20.7193985 1387.97005,20.2604187 1387.68359,19.84375 L1387.21484,19.2382812 L1387.60547,18.5546875 C1387.85287,18.0989561 1388.05469,17.7311212 1388.21094,17.4511719 C1388.36719,17.1712226 1388.47786,16.9726568 1388.54297,16.8554688 C1388.58203,16.7773434 1388.61133,16.7057295 1388.63086,16.640625 C1388.65039,16.5755205 1388.66016,16.5169273 1388.66016,16.4648438 C1388.20442,15.7486943 1387.77149,15.0781281 1387.36133,14.453125 C1386.95117,13.8281219 1386.55729,13.2421902 1386.17969,12.6953125 L1386.14062,12.6953125 C1386.08854,12.6953125 1386.03971,12.7018229 1385.99414,12.7148438 C1385.94857,12.7278646 1385.90625,12.7473957 1385.86719,12.7734375 Z" id="Phone---simple-line-icons"></path>
            </g>
        </g>
    </g>
</svg>