<?xml version="1.0" encoding="UTF-8"?>
<svg width="18px" height="21px" viewBox="0 0 18 21" version="1.1" xmlns="http://www.w3.org/2000/svg" xmlns:xlink="http://www.w3.org/1999/xlink">
    <!-- Generator: Sketch 49.2 (51160) - http://www.bohemiancoding.com/sketch -->
    <title>Trash - simple-line-icons</title>
    <desc>Created with Sketch.</desc>
    <defs></defs>
    <g id="Screen" stroke="none" stroke-width="1" fill="none" fill-rule="evenodd">
        <g id="Profiles-List" transform="translate(-1401.000000, -26.000000)" fill="#000000">
            <g id="Header" transform="translate(18.000000, 15.000000)">
                <path d="M1399.51953,14.3554688 C1399.6888,14.3554688 1399.83529,14.4173171 1399.95898,14.5410156 C1400.08268,14.6647142 1400.14453,14.8111971 1400.14453,14.9804688 C1400.14453,15.1497404 1400.08268,15.2962233 1399.95898,15.4199219 C1399.83529,15.5436204 1399.6888,15.6054688 1399.51953,15.6054688 L1398.66016,15.6054688 L1397.19531,30.0585938 C1397.16927,30.3971371 1397.0293,30.6835926 1396.77539,30.9179688 C1396.52148,31.1523449 1396.22526,31.2695312 1395.88672,31.2695312 L1388.11328,31.2695312 C1387.77474,31.2695312 1387.47852,31.1523449 1387.22461,30.9179688 C1386.9707,30.6835926 1386.82422,30.3971371 1386.78516,30.0585938 L1385.33984,15.6054688 L1384.48047,15.6054688 C1384.3112,15.6054688 1384.16471,15.5436204 1384.04102,15.4199219 C1383.91732,15.2962233 1383.85547,15.1497404 1383.85547,14.9804688 C1383.85547,14.8111971 1383.91732,14.6647142 1384.04102,14.5410156 C1384.16471,14.4173171 1384.3112,14.3554688 1384.48047,14.3554688 L1388.875,14.3554688 L1388.875,12.65625 C1388.875,12.2526021 1389.01823,11.9140639 1389.30469,11.640625 C1389.59115,11.3671861 1389.92969,11.2304688 1390.32031,11.2304688 L1393.67969,11.2304688 C1394.07031,11.2304688 1394.40885,11.3671861 1394.69531,11.640625 C1394.98177,11.9140639 1395.125,12.2526021 1395.125,12.65625 L1395.125,14.3554688 L1399.51953,14.3554688 Z M1390.125,12.65625 L1390.125,14.3554688 L1393.875,14.3554688 L1393.875,12.65625 C1393.875,12.6041664 1393.85547,12.5585939 1393.81641,12.5195312 C1393.77734,12.4804686 1393.73177,12.4609375 1393.67969,12.4609375 L1390.32031,12.4609375 C1390.26823,12.4609375 1390.22266,12.4804686 1390.18359,12.5195312 C1390.14453,12.5585939 1390.125,12.6041664 1390.125,12.65625 Z M1395.96484,29.9414062 L1397.39062,15.6054688 L1386.60938,15.6054688 L1388.03516,29.9414062 C1388.03516,29.9544271 1388.04492,29.970703 1388.06445,29.9902344 C1388.08398,30.0097657 1388.10026,30.0195312 1388.11328,30.0195312 L1395.88672,30.0195312 C1395.89974,30.0195312 1395.91602,30.0130209 1395.93555,30 C1395.95508,29.9869791 1395.96484,29.967448 1395.96484,29.9414062 Z" id="Trash---simple-line-icons"></path>
            </g>
        </g>
    </g>
</svg>