<?xml version="1.0" encoding="UTF-8"?>
<svg width="20px" height="21px" viewBox="0 0 20 21" version="1.1" xmlns="http://www.w3.org/2000/svg" xmlns:xlink="http://www.w3.org/1999/xlink">
    <!-- Generator: Sketch 49.2 (51160) - http://www.bohemiancoding.com/sketch -->
    <title>Settings - simple-line-icons</title>
    <desc>Created with Sketch.</desc>
    <defs></defs>
    <g id="Screen" stroke="none" stroke-width="1" fill="none" fill-rule="evenodd">
        <g id="Profile-view" transform="translate(-32.000000, -297.000000)" fill="#000000">
            <g id="main-nav">
                <path d="M50.75,305.355469 C51.0494807,305.407552 51.332681,305.554035 51.5996094,305.794922 C51.8665378,306.035808 52,306.332029 52,306.683594 L52,307.933594 C52,308.272137 51.8665378,308.545572 51.5996094,308.753906 C51.332681,308.962241 51.0494807,309.105468 50.75,309.183594 L49.1289062,309.574219 C49.0638018,309.769532 48.9954431,309.955077 48.9238281,310.130859 C48.8522132,310.306642 48.7708338,310.479166 48.6796875,310.648438 L49.5390625,312.09375 C49.7083342,312.354168 49.8124998,312.653644 49.8515625,312.992188 C49.8906252,313.330731 49.7864596,313.623697 49.5390625,313.871094 L48.6601562,314.75 C48.4127592,314.997397 48.113283,315.111328 47.7617188,315.091797 C47.4101545,315.072266 47.104168,314.977865 46.84375,314.808594 L45.4375,313.910156 C45.2552074,314.001303 45.0729176,314.085937 44.890625,314.164062 C44.7083324,314.242188 44.5130219,314.313802 44.3046875,314.378906 L43.953125,316 C43.9010414,316.299481 43.7545585,316.582681 43.5136719,316.849609 C43.2727853,317.116538 42.9765643,317.25 42.625,317.25 L41.375,317.25 C41.0364566,317.25 40.7630219,317.116538 40.5546875,316.849609 C40.3463531,316.582681 40.2031254,316.299481 40.125,316 L39.734375,314.398438 C39.5260406,314.333333 39.3177094,314.258464 39.109375,314.173828 C38.9010406,314.089192 38.6992197,313.994792 38.5039062,313.890625 L37.0585938,314.808594 C36.8111967,314.977865 36.5084653,315.072266 36.1503906,315.091797 C35.7923159,315.111328 35.4960949,314.997397 35.2617188,314.75 L34.3632812,313.871094 C34.1289051,313.623697 34.0312498,313.330731 34.0703125,312.992188 C34.1093752,312.653644 34.2070305,312.354168 34.3632812,312.09375 L35.28125,310.570312 C35.2031246,310.414062 35.1282556,310.254558 35.0566406,310.091797 C34.9850257,309.929036 34.9231773,309.756511 34.8710938,309.574219 L33.25,309.183594 C32.9505193,309.105468 32.667319,308.962241 32.4003906,308.753906 C32.1334622,308.545572 32,308.272137 32,307.933594 L32,306.683594 C32,306.332029 32.1334622,306.035808 32.4003906,305.794922 C32.667319,305.554035 32.9505193,305.407552 33.25,305.355469 L34.8515625,305.003906 C34.9036461,304.821614 34.9687496,304.639324 35.046875,304.457031 C35.1250004,304.274739 35.2031246,304.098959 35.28125,303.929688 L34.3632812,302.40625 C34.2070305,302.145832 34.1093752,301.846356 34.0703125,301.507812 C34.0312498,301.169269 34.1289051,300.876303 34.3632812,300.628906 L35.2617188,299.75 C35.4960949,299.502603 35.7923159,299.388672 36.1503906,299.408203 C36.5084653,299.427734 36.8111967,299.522135 37.0585938,299.691406 L38.5039062,300.609375 C38.6992197,300.505208 38.8977854,300.410808 39.0996094,300.326172 C39.3014333,300.241536 39.5065094,300.166667 39.7148438,300.101562 L40.125,298.5 C40.1901045,298.200519 40.3268219,297.917319 40.5351562,297.650391 C40.7434906,297.383462 41.0234357,297.25 41.375,297.25 L42.625,297.25 C42.9765643,297.25 43.2695301,297.383462 43.5039062,297.650391 C43.7382824,297.917319 43.8880205,298.194009 43.953125,298.480469 L44.3046875,300.121094 C44.500001,300.186198 44.6920563,300.257812 44.8808594,300.335938 C45.0696624,300.414063 45.2552074,300.498697 45.4375,300.589844 L46.84375,299.691406 C47.104168,299.522135 47.4101545,299.427734 47.7617188,299.408203 C48.113283,299.388672 48.4127592,299.502603 48.6601562,299.75 L49.5390625,300.628906 C49.7864596,300.876303 49.8906252,301.169269 49.8515625,301.507812 C49.8124998,301.846356 49.7083342,302.145832 49.5390625,302.40625 L48.6796875,303.851562 C48.7708338,304.033855 48.8587235,304.2194 48.9433594,304.408203 C49.0279952,304.597006 49.0963539,304.795572 49.1484375,305.003906 L50.75,305.355469 Z M50.75,307.835938 L50.7695312,306.722656 C50.7565104,306.709635 50.7239586,306.686849 50.671875,306.654297 C50.6197914,306.621745 50.5611982,306.598958 50.4960938,306.585938 L48.171875,306.058594 L47.9570312,305.375 C47.9179686,305.218749 47.8658857,305.062501 47.8007812,304.90625 C47.7356768,304.749999 47.6575525,304.58724 47.5664062,304.417969 L47.2539062,303.792969 L48.484375,301.742188 C48.5234377,301.690104 48.5527343,301.638021 48.5722656,301.585938 C48.591797,301.533854 48.6015625,301.494792 48.6015625,301.46875 L47.78125,300.667969 C47.7421873,300.667969 47.69987,300.674479 47.6542969,300.6875 C47.6087237,300.700521 47.5664064,300.720052 47.5273438,300.746094 L45.515625,302.035156 L44.8710938,301.703125 C44.714843,301.625 44.5585945,301.550131 44.4023438,301.478516 C44.246093,301.406901 44.0833342,301.351563 43.9140625,301.3125 L43.2304688,301.078125 L42.7226562,298.714844 C42.7096354,298.66276 42.6901043,298.613933 42.6640625,298.568359 L42.625,298.5 L41.4726562,298.5 C41.4466145,298.526042 41.420573,298.565104 41.3945312,298.617188 C41.3684895,298.669271 41.3489584,298.734375 41.3359375,298.8125 L40.7695312,301.078125 L40.1054688,301.292969 C39.9361971,301.345052 39.7669279,301.406901 39.5976562,301.478516 C39.4283846,301.550131 39.2591154,301.63151 39.0898438,301.722656 L38.4453125,302.054688 L36.3554688,300.726562 L36.2578125,300.677734 C36.2187498,300.658203 36.1796877,300.641927 36.140625,300.628906 L35.3203125,301.449219 C35.3203125,301.488281 35.330078,301.533854 35.3496094,301.585938 C35.3691407,301.638021 35.3984373,301.696614 35.4375,301.761719 L36.7070312,303.871094 L36.3945312,304.476562 C36.3164059,304.645834 36.2480472,304.802083 36.1894531,304.945312 C36.1308591,305.088542 36.0820314,305.23177 36.0429688,305.375 L35.828125,306.058594 L33.4648438,306.585938 C33.4257811,306.598958 33.3834638,306.618489 33.3378906,306.644531 C33.2923175,306.670573 33.2630209,306.683594 33.25,306.683594 L33.25,307.835938 C33.2760418,307.861979 33.3151039,307.884766 33.3671875,307.904297 C33.4192711,307.923828 33.4843746,307.940104 33.5625,307.953125 L35.8476562,308.539062 L36.0625,309.203125 C36.1015627,309.333334 36.1503903,309.466796 36.2089844,309.603516 C36.2675784,309.740235 36.3359371,309.880208 36.4140625,310.023438 L36.7070312,310.628906 L35.4375,312.757812 C35.3984373,312.809896 35.3691407,312.861979 35.3496094,312.914062 C35.330078,312.966146 35.3203125,313.011719 35.3203125,313.050781 L36.140625,313.851562 C36.1796877,313.851562 36.222005,313.841797 36.2675781,313.822266 C36.3131513,313.802734 36.3554686,313.779948 36.3945312,313.753906 L38.4453125,312.445312 L39.0898438,312.777344 C39.2591154,312.86849 39.4283846,312.949869 39.5976562,313.021484 C39.7669279,313.093099 39.9361971,313.154948 40.1054688,313.207031 L40.7695312,313.421875 L41.3554688,315.726562 C41.3684896,315.791667 41.3847655,315.847005 41.4042969,315.892578 C41.4238282,315.938151 41.4466145,315.973958 41.4726562,316 L42.6054688,316 C42.6184896,315.986979 42.6412759,315.954427 42.6738281,315.902344 C42.7063804,315.85026 42.7291666,315.798177 42.7421875,315.746094 L43.25,313.421875 L43.9335938,313.1875 C44.0898445,313.135416 44.246093,313.076823 44.4023438,313.011719 C44.5585945,312.946614 44.714843,312.875 44.8710938,312.796875 L45.515625,312.464844 L47.5664062,313.773438 L47.6640625,313.822266 C47.7031252,313.841797 47.7421873,313.858073 47.78125,313.871094 L48.6015625,313.050781 C48.6015625,313.011719 48.591797,312.966146 48.5722656,312.914062 C48.5527343,312.861979 48.5234377,312.803386 48.484375,312.738281 L47.2539062,310.707031 L47.5664062,310.082031 C47.6445316,309.938801 47.7128903,309.792318 47.7714844,309.642578 C47.8300784,309.492838 47.8854164,309.339845 47.9375,309.183594 L48.1523438,308.539062 L50.4765625,307.953125 C50.541667,307.940104 50.597005,307.923828 50.6425781,307.904297 C50.6881513,307.884766 50.7239582,307.861979 50.75,307.835938 Z M42,303.5 C43.0416719,303.5 43.9303349,303.86458 44.6660156,304.59375 C45.4016964,305.32292 45.7695312,306.208328 45.7695312,307.25 C45.7695312,308.291672 45.4016964,309.17708 44.6660156,309.90625 C43.9303349,310.63542 43.0416719,311 42,311 C40.971349,311 40.0891964,310.63542 39.3535156,309.90625 C38.6178349,309.17708 38.25,308.291672 38.25,307.25 C38.25,306.208328 38.6178349,305.32292 39.3535156,304.59375 C40.0891964,303.86458 40.971349,303.5 42,303.5 Z M42,309.75 C42.6901076,309.75 43.2792944,309.505862 43.7675781,309.017578 C44.2558618,308.529294 44.5,307.940108 44.5,307.25 C44.5,306.559892 44.2558618,305.970706 43.7675781,305.482422 C43.2792944,304.994138 42.6901076,304.75 42,304.75 C41.3098924,304.75 40.7207056,304.994138 40.2324219,305.482422 C39.7441382,305.970706 39.5,306.559892 39.5,307.25 C39.5,307.940108 39.7441382,308.529294 40.2324219,309.017578 C40.7207056,309.505862 41.3098924,309.75 42,309.75 Z" id="Settings---simple-line-icons"></path>
            </g>
        </g>
    </g>
</svg>