<?xml version="1.0" encoding="UTF-8"?>
<svg width="18px" height="21px" viewBox="0 0 18 21" version="1.1" xmlns="http://www.w3.org/2000/svg" xmlns:xlink="http://www.w3.org/1999/xlink">
    <!-- Generator: Sketch 49.2 (51160) - http://www.bohemiancoding.com/sketch -->
    <title>Power - simple-line-icons</title>
    <desc>Created with Sketch.</desc>
    <defs></defs>
    <g id="Screen" stroke="none" stroke-width="1" fill="none" fill-rule="evenodd">
        <g id="Profile-view" transform="translate(-1401.000000, -26.000000)" fill="#000000" >
            <g id="Header" transform="translate(18.000000, 15.000000)">
                <path d="M1395.71094,14.453125 C1396.63542,14.8828146 1397.44596,15.4459601 1398.14258,16.1425781 C1398.8392,16.8391962 1399.40234,17.6171832 1399.83203,18.4765625 C1400.26172,19.3359418 1400.54492,20.2539014 1400.68164,21.2304688 C1400.81836,22.2070361 1400.78255,23.1966096 1400.57422,24.1992188 C1400.36588,25.2408906 1399.99154,26.191402 1399.45117,27.0507812 C1398.9108,27.9101605 1398.25651,28.6490854 1397.48828,29.2675781 C1396.72005,29.8860708 1395.86394,30.3678368 1394.91992,30.7128906 C1393.97591,31.0579444 1392.98959,31.2304688 1391.96094,31.2304688 C1391.67448,31.2304688 1391.38151,31.2141929 1391.08203,31.1816406 C1390.78255,31.1490884 1390.48307,31.1067711 1390.18359,31.0546875 C1389.61067,30.9374994 1389.0638,30.7649751 1388.54297,30.5371094 C1388.02213,30.3092437 1387.5306,30.0358089 1387.06836,29.7167969 C1386.60612,29.3977849 1386.17643,29.0332052 1385.7793,28.6230469 C1385.38216,28.2128886 1385.02083,27.7604191 1384.69531,27.265625 C1384.36979,26.7838518 1384.09636,26.2727892 1383.875,25.7324219 C1383.65364,25.1920546 1383.49089,24.6419299 1383.38672,24.0820312 C1383.28255,23.5221326 1383.23047,22.955732 1383.23047,22.3828125 C1383.23047,21.809893 1383.29557,21.2304717 1383.42578,20.6445312 C1383.55599,19.9674445 1383.76432,19.3196646 1384.05078,18.7011719 C1384.33724,18.0826792 1384.6888,17.5097683 1385.10547,16.9824219 C1385.52214,16.4550755 1385.99739,15.9798198 1386.53125,15.5566406 C1387.06511,15.1334614 1387.65104,14.7721369 1388.28906,14.4726562 C1388.44531,14.3945309 1388.60482,14.3847653 1388.76758,14.4433594 C1388.93034,14.5019534 1389.04427,14.6093742 1389.10938,14.765625 C1389.1875,14.9218758 1389.19727,15.0813794 1389.13867,15.2441406 C1389.08008,15.4069019 1388.97266,15.520833 1388.81641,15.5859375 C1388.26953,15.8463555 1387.76823,16.1588523 1387.3125,16.5234375 C1386.85677,16.8880227 1386.44987,17.2981748 1386.0918,17.7539062 C1385.73372,18.2096377 1385.43099,18.7011692 1385.18359,19.2285156 C1384.9362,19.755862 1384.75391,20.3124971 1384.63672,20.8984375 C1384.44141,21.8880258 1384.43815,22.8710889 1384.62695,23.8476562 C1384.81576,24.8242236 1385.18359,25.7356729 1385.73047,26.5820312 C1386.29037,27.4283896 1386.96744,28.1282524 1387.76172,28.6816406 C1388.55599,29.2350288 1389.44791,29.6158844 1390.4375,29.8242188 C1391.46615,30.0325531 1392.46875,30.0358083 1393.44531,29.8339844 C1394.42188,29.6321604 1395.3138,29.2643256 1396.12109,28.7304688 C1396.92839,28.1966119 1397.61849,27.5195354 1398.19141,26.6992188 C1398.76433,25.8789021 1399.15495,24.9609426 1399.36328,23.9453125 C1399.53255,23.0859332 1399.55859,22.2363323 1399.44141,21.3964844 C1399.32422,20.5566364 1399.08334,19.7688839 1398.71875,19.0332031 C1398.35416,18.2975224 1397.86914,17.6334665 1397.26367,17.0410156 C1396.6582,16.4485647 1395.95834,15.9635436 1395.16406,15.5859375 C1395.00781,15.5078121 1394.90039,15.3906258 1394.8418,15.234375 C1394.7832,15.0781242 1394.79297,14.9218758 1394.87109,14.765625 C1394.94922,14.6093742 1395.06966,14.5019534 1395.23242,14.4433594 C1395.39518,14.3847653 1395.55469,14.3880205 1395.71094,14.453125 Z M1392,19.375 C1391.83073,19.375 1391.68425,19.3131517 1391.56055,19.1894531 C1391.43685,19.0657546 1391.375,18.9192717 1391.375,18.75 L1391.375,11.875 C1391.375,11.7057283 1391.43685,11.5592454 1391.56055,11.4355469 C1391.68425,11.3118483 1391.83073,11.25 1392,11.25 C1392.16927,11.25 1392.31575,11.3118483 1392.43945,11.4355469 C1392.56315,11.5592454 1392.625,11.7057283 1392.625,11.875 L1392.625,18.75 C1392.625,18.9192717 1392.56315,19.0657546 1392.43945,19.1894531 C1392.31575,19.3131517 1392.16927,19.375 1392,19.375 Z" id="Power---simple-line-icons"></path>
            </g>
        </g>
    </g>
</svg>