<?xml version="1.0" encoding="UTF-8"?>
<svg width="20px" height="21px" viewBox="0 0 20 21" version="1.1" xmlns="http://www.w3.org/2000/svg" xmlns:xlink="http://www.w3.org/1999/xlink">
    <!-- Generator: Sketch 49.2 (51160) - http://www.bohemiancoding.com/sketch -->
    <title>People - simple-line-icons</title>
    <desc>Created with Sketch.</desc>
    <defs></defs>
    <g id="Screen" stroke="none" stroke-width="1" fill="none" fill-rule="evenodd">
        <g id="Profile-view" transform="translate(-32.000000, -237.000000)" fill="#000000">
            <g id="main-nav">
                <path d="M46.5703125,253.558594 L47.0976562,253.851562 C47.4492205,254.046876 47.625,254.30078 47.625,254.613281 L47.625,256.195312 C47.625,256.494793 47.5208344,256.745442 47.3125,256.947266 C47.1041656,257.14909 46.8567723,257.25 46.5703125,257.25 L33.0546875,257.25 C32.7682277,257.25 32.5208344,257.14909 32.3125,256.947266 C32.1041656,256.745442 32,256.494793 32,256.195312 L32,254.613281 C32,254.326821 32.1757795,254.079428 32.5273438,253.871094 L33.0546875,253.558594 L37.0976562,251.371094 C36.355465,250.785153 35.8411473,250.003911 35.5546875,249.027344 C35.2682277,248.050776 35.125,247.276045 35.125,246.703125 L35.125,244.066406 C35.125,243.623696 35.2617174,243.184247 35.5351562,242.748047 C35.8085951,242.311847 36.1666645,241.917971 36.609375,241.566406 C37.0520855,241.214842 37.5566378,240.928387 38.1230469,240.707031 C38.689456,240.485676 39.2591117,240.375 39.8320312,240.375 C40.4179717,240.375 40.9908826,240.485676 41.5507812,240.707031 C42.1106799,240.928387 42.6087218,241.214842 43.0449219,241.566406 C43.481122,241.917971 43.832681,242.311847 44.0996094,242.748047 C44.3665378,243.184247 44.5,243.623696 44.5,244.066406 L44.5,246.703125 C44.5,247.341149 44.3730481,248.135412 44.1191406,249.085938 C43.8652331,250.036463 43.3737016,250.804685 42.6445312,251.390625 L46.5703125,253.558594 Z M46.375,256 L46.375,254.886719 C46.3359373,254.847656 46.2903648,254.815104 46.2382812,254.789062 L46.0820312,254.710938 C46.0690104,254.710938 46.0527345,254.704427 46.0332031,254.691406 C46.0136718,254.678385 45.9908855,254.665365 45.9648438,254.652344 L42.0390625,252.484375 C41.8567699,252.380208 41.7070318,252.240235 41.5898438,252.064453 C41.4726557,251.888671 41.4075521,251.696616 41.3945312,251.488281 C41.3684895,251.279947 41.397786,251.078126 41.4824219,250.882812 C41.5670577,250.687499 41.6940096,250.52474 41.8632812,250.394531 C42.3971381,249.977863 42.7617178,249.382165 42.9570312,248.607422 C43.1523447,247.832678 43.25,247.197919 43.25,246.703125 L43.25,244.066406 C43.25,243.610675 42.9082065,243.089847 42.2246094,242.503906 C41.5410122,241.917966 40.7434941,241.625 39.8320312,241.625 C38.9466102,241.625 38.1490921,241.917966 37.4394531,242.503906 C36.7298142,243.089847 36.375,243.610675 36.375,244.066406 L36.375,246.703125 C36.375,247.197919 36.4921863,247.832678 36.7265625,248.607422 C36.9609387,249.382165 37.3450494,249.977863 37.8789062,250.394531 C38.035157,250.52474 38.1555985,250.687499 38.2402344,250.882812 C38.3248702,251.078126 38.3541668,251.279947 38.328125,251.488281 C38.3151041,251.696616 38.2500006,251.888671 38.1328125,252.064453 C38.0156244,252.240235 37.8658863,252.373697 37.6835938,252.464844 L33.640625,254.671875 C33.6276041,254.671875 33.6145834,254.67513 33.6015625,254.681641 C33.5885416,254.688151 33.5755209,254.697917 33.5625,254.710938 C33.5104164,254.723958 33.4550784,254.75 33.3964844,254.789062 L33.25,254.886719 L33.25,256 L46.375,256 Z M50.9453125,250.453125 L51.4726562,250.746094 C51.8242205,250.941407 52,251.195311 52,251.507812 L52,253.070312 C52,253.369793 51.8958344,253.620442 51.6875,253.822266 C51.4791656,254.02409 51.2317723,254.125 50.9453125,254.125 L48.875,254.125 C48.7968746,253.851561 48.7154952,253.610678 48.6308594,253.402344 C48.5462235,253.194009 48.4127613,253.01823 48.2304688,252.875 L50.75,252.875 L50.75,251.761719 C50.7109373,251.735677 50.6653648,251.70638 50.6132812,251.673828 C50.5611977,251.641276 50.5091148,251.61849 50.4570312,251.605469 C50.4440104,251.592448 50.4277345,251.582682 50.4082031,251.576172 C50.3886718,251.569661 50.3658855,251.559896 50.3398438,251.546875 L46.3554688,249.378906 C46.1731762,249.274739 46.0234381,249.134767 45.90625,248.958984 C45.7890619,248.783202 45.7239584,248.591147 45.7109375,248.382812 C45.6848957,248.174478 45.7141923,247.972657 45.7988281,247.777344 C45.883464,247.58203 46.0104158,247.419271 46.1796875,247.289062 C46.7135443,246.859373 47.0878896,246.257165 47.3027344,245.482422 C47.5175792,244.707678 47.625,244.079429 47.625,243.597656 L47.625,240.960938 C47.625,240.492185 47.273441,239.964847 46.5703125,239.378906 C45.867184,238.792966 45.0599004,238.5 44.1484375,238.5 C43.705727,238.5 43.2792989,238.571614 42.8691406,238.714844 C42.4589823,238.858074 42.0911475,239.053384 41.765625,239.300781 C41.5182279,239.222656 41.2578139,239.177083 40.984375,239.164062 C40.7109361,239.151042 40.4440117,239.138021 40.1835938,239.125 C40.6393252,238.591143 41.2252568,238.141929 41.9414062,237.777344 C42.6575557,237.412759 43.3932254,237.230469 44.1484375,237.230469 C44.7343779,237.230469 45.310544,237.3444 45.8769531,237.572266 C46.4433622,237.800131 46.9479145,238.089842 47.390625,238.441406 C47.8333355,238.792971 48.1914049,239.190102 48.4648438,239.632812 C48.7382826,240.075523 48.875,240.518227 48.875,240.960938 L48.875,243.597656 C48.875,244.222659 48.7382826,245.013667 48.4648438,245.970703 C48.1914049,246.927739 47.6901078,247.692705 46.9609375,248.265625 L50.9453125,250.453125 Z" id="People---simple-line-icons"></path>
            </g>
        </g>
    </g>
</svg>