<?xml version="1.0" encoding="UTF-8"?>
<svg width="21px" height="21px" viewBox="0 0 21 21" version="1.1" xmlns="http://www.w3.org/2000/svg" xmlns:xlink="http://www.w3.org/1999/xlink">
    <!-- Generator: Sketch 49.2 (51160) - http://www.bohemiancoding.com/sketch -->
    <title></title>
    <desc>Created with Sketch.</desc>
    <defs></defs>
    <g id="Screen" stroke="none" stroke-width="1" fill="none" fill-rule="evenodd">
        <g id="Profile-view" transform="translate(-97.000000, -24.000000)" fill="#000000">
            <g id="Header" transform="translate(18.000000, 15.000000)">
                <path d="M99.8242188,28.1757812 C99.9414068,28.2929693 100,28.4394522 100,28.6152344 C100,28.7910165 99.9414068,28.9374994 99.8242188,29.0546875 C99.6940098,29.1848965 99.5442717,29.25 99.375,29.25 C99.2057283,29.25 99.0559902,29.1848965 98.9257812,29.0546875 L92.8710938,22.9609375 C92.1809861,23.5598988 91.3997439,24.0286441 90.5273438,24.3671875 C89.6549436,24.7057309 88.7304736,24.875 87.7539062,24.875 C86.6731717,24.875 85.6575568,24.6699239 84.7070312,24.2597656 C83.7565057,23.8496073 82.9264358,23.2929723 82.2167969,22.5898438 C81.5071579,21.8867152 80.9505229,21.0599006 80.546875,20.109375 C80.1432271,19.1588494 79.9414062,18.1432346 79.9414062,17.0625 C79.9414062,15.9817654 80.1432271,14.9661506 80.546875,14.015625 C80.9505229,13.0650994 81.5071579,12.2382848 82.2167969,11.5351562 C82.9264358,10.8320277 83.7565057,10.2753927 84.7070312,9.86523438 C85.6575568,9.45507607 86.6731717,9.25 87.7539062,9.25 C88.8216199,9.25 89.8307244,9.45507607 90.78125,9.86523438 C91.7317756,10.2753927 92.5618454,10.8320277 93.2714844,11.5351562 C93.9811233,12.2382848 94.5410136,13.0650994 94.9511719,14.015625 C95.3613302,14.9661506 95.5664062,15.9817654 95.5664062,17.0625 C95.5664062,18.0130256 95.4036475,18.9147093 95.078125,19.7675781 C94.7526025,20.620447 94.3098986,21.3854133 93.75,22.0625 L99.8242188,28.1757812 Z M87.7539062,23.6445312 C88.6523482,23.6445312 89.5019491,23.4720069 90.3027344,23.1269531 C91.1035196,22.7818993 91.8001272,22.3098988 92.3925781,21.7109375 C92.985029,21.1119762 93.4537743,20.4153686 93.7988281,19.6210938 C94.1438819,18.8268189 94.3164062,17.9739629 94.3164062,17.0625 C94.3164062,16.1510371 94.1438819,15.2981811 93.7988281,14.5039062 C93.4537743,13.7096314 92.985029,13.0130238 92.3925781,12.4140625 C91.8001272,11.8151012 91.1035196,11.3431007 90.3027344,10.9980469 C89.5019491,10.6529931 88.6523482,10.4804688 87.7539062,10.4804688 C86.8424434,10.4804688 85.9863321,10.6529931 85.1855469,10.9980469 C84.3847616,11.3431007 83.688154,11.8151012 83.0957031,12.4140625 C82.5032522,13.0130238 82.0345069,13.7096314 81.6894531,14.5039062 C81.3443993,15.2981811 81.171875,16.1510371 81.171875,17.0625 C81.171875,17.9739629 81.3443993,18.8268189 81.6894531,19.6210938 C82.0345069,20.4153686 82.5032522,21.1119762 83.0957031,21.7109375 C83.688154,22.3098988 84.3847616,22.7818993 85.1855469,23.1269531 C85.9863321,23.4720069 86.8424434,23.6445312 87.7539062,23.6445312 Z" id="" transform="translate(89.970703, 19.250000) scale(-1, 1) translate(-89.970703, -19.250000) "></path>
            </g>
        </g>
    </g>
</svg>