<?xml version="1.0" encoding="UTF-8"?>
<svg width="7px" height="13px" viewBox="0 0 7 13" version="1.1" xmlns="http://www.w3.org/2000/svg" xmlns:xlink="http://www.w3.org/1999/xlink">
    <!-- Generator: Sketch 49.2 (51160) - http://www.bohemiancoding.com/sketch -->
    <title>៛</title>
    <desc>Created with Sketch.</desc>
    <defs></defs>
    <g id="Screen" stroke="none" stroke-width="1" fill="none" fill-rule="evenodd">
        <g id="Profiles-List" transform="translate(-1106.000000, -343.000000)" fill="#000000">
            <path d="M1107.08,349 L1109.06,349 L1109.06,348 L1106.84,345.92 L1106.84,345.14 L1109.9,343 L1111.52,344.52 L1112.2,344.04 L1112.2,344.86 L1110.96,345.7 L1109.62,344.44 L1108.16,345.46 L1110.46,347.6 L1110.46,349 L1112.18,349 L1112.18,350 L1110.46,350 L1110.46,356 L1109.88,356 C1109.58667,356 1109.26334,355.923334 1108.91,355.77 C1108.55666,355.616666 1108.22333,355.406668 1107.91,355.14 C1107.59667,354.873332 1107.33333,354.556669 1107.12,354.19 C1106.90667,353.823331 1106.8,353.420002 1106.8,352.98 C1106.8,352.726665 1106.84667,352.506668 1106.94,352.32 C1107.03333,352.133332 1107.15,351.980001 1107.29,351.86 C1107.43,351.739999 1107.58667,351.65 1107.76,351.59 C1107.93333,351.53 1108.10667,351.5 1108.28,351.5 L1108.7,351.5 L1108.7,352.7 C1108.64667,352.7 1108.57333,352.703333 1108.48,352.71 C1108.38667,352.716667 1108.29667,352.736667 1108.21,352.77 C1108.12333,352.803334 1108.05,352.856666 1107.99,352.93 C1107.93,353.003334 1107.9,353.106666 1107.9,353.24 C1107.9,353.586668 1108.00333,353.876666 1108.21,354.11 C1108.41667,354.343335 1108.7,354.539999 1109.06,354.7 L1109.06,350 L1107.08,350 L1107.08,349 Z" id="៛"></path>
        </g>
    </g>
</svg>