<?xml version="1.0" encoding="UTF-8"?>
<svg width="20px" height="11px" viewBox="0 0 20 11" version="1.1" xmlns="http://www.w3.org/2000/svg" xmlns:xlink="http://www.w3.org/1999/xlink">
    <!-- Generator: Sketch 49.2 (51160) - http://www.bohemiancoding.com/sketch -->
    <title>Arrow-up - simple-line-icons</title>
    <desc>Created with Sketch.</desc>
    <defs></defs>
    <g id="Screen" stroke="none" stroke-width="1" fill="none" fill-rule="evenodd">
        <g id="Profiles-List" transform="translate(-1400.000000, -31.000000)" fill="#000000">
            <g id="Header" transform="translate(18.000000, 15.000000)">
                <path d="M1382.15625,25.9179688 C1382.15625,25.8398434 1382.17253,25.758464 1382.20508,25.6738281 C1382.23763,25.5891923 1382.28646,25.5143232 1382.35156,25.4492188 L1391.64844,16.1523438 C1391.77865,16.0351557 1391.93489,15.9765625 1392.11719,15.9765625 C1392.29948,15.9765625 1392.45573,16.0351557 1392.58594,16.1523438 L1401.74609,25.3320312 C1401.8763,25.4622402 1401.94141,25.6184887 1401.94141,25.8007812 C1401.94141,25.9830738 1401.8763,26.1393223 1401.74609,26.2695312 C1401.61588,26.3997402 1401.45964,26.4648438 1401.27734,26.4648438 C1401.09505,26.4648438 1400.9388,26.3997402 1400.80859,26.2695312 L1392.11719,17.578125 L1383.28906,26.3867188 C1383.15885,26.5169277 1383.00261,26.5820312 1382.82031,26.5820312 C1382.63802,26.5820312 1382.48177,26.5169277 1382.35156,26.3867188 C1382.28646,26.3216143 1382.23763,26.2500004 1382.20508,26.171875 C1382.17253,26.0937496 1382.15625,26.009115 1382.15625,25.9179688 Z" id="Arrow-up---simple-line-icons"></path>
            </g>
        </g>
    </g>
</svg>