<?xml version="1.0" encoding="UTF-8"?>
<svg width="18px" height="6px" viewBox="0 0 18 6" version="1.1" xmlns="http://www.w3.org/2000/svg" xmlns:xlink="http://www.w3.org/1999/xlink">
    <!-- Generator: Sketch 49.2 (51160) - http://www.bohemiancoding.com/sketch -->
    <title></title>
    <desc>Created with Sketch.</desc>
    <defs></defs>
    <g id="Screen" stroke="none" stroke-width="1" fill="none" fill-rule="evenodd">
        <g id="Product-List" transform="translate(-493.000000, -204.000000)" fill="#000000">
            <g id="Content" transform="translate(106.000000, 184.000000)">
                <g id="profile">
                    <path d="M402.947497,25.3459787 L402.472888,25.3459787 C402.461169,25.3459787 402.443591,25.3430491 402.420153,25.3371897 C402.396716,25.3313303 402.379138,25.3225413 402.367419,25.3108225 C401.86351,25.2405096 401.432851,25.0178556 401.075427,24.6428537 C400.718003,24.2678518 400.527575,23.8342624 400.504138,23.3420725 C400.457263,22.7912885 400.577379,22.3049652 400.864489,21.8830881 C401.1516,21.461211 401.552963,21.1741045 402.068591,21.02176 C402.127185,20.9983224 402.191637,20.9778147 402.26195,20.9602365 C402.332263,20.9426583 402.402575,20.92801 402.472888,20.9162912 L402.947497,20.9162912 C402.970935,20.9162912 402.988513,20.9192209 403.000232,20.9250803 L403.052966,20.9514475 C403.509999,21.0217603 403.905503,21.2121881 404.239489,21.5227365 C404.573475,21.833285 404.78734,22.2170702 404.881091,22.6741037 C404.89281,22.7092601 404.901599,22.744416 404.907458,22.7795725 C404.913317,22.8147289 404.922106,22.8498848 404.933825,22.8850412 L404.933825,23.3596506 C404.933825,23.3830882 404.930896,23.4006662 404.925036,23.412385 L404.898669,23.4651193 C404.828356,23.9221529 404.640858,24.3117974 404.336169,24.6340647 C404.03148,24.9563319 403.656484,25.1701969 403.211169,25.2756662 C403.164294,25.287385 403.120349,25.2991037 403.079333,25.3108225 C403.038317,25.3225413 402.994372,25.3342599 402.947497,25.3459787 Z M389.447497,20.9162912 L389.922107,20.9162912 C389.933825,20.9162912 389.951403,20.9192209 389.974841,20.9250803 C389.998279,20.9309397 390.015856,20.9397287 390.027575,20.9514475 C390.531484,21.0217603 390.962144,21.247344 391.319567,21.6282053 C391.676991,22.0090666 391.867419,22.4455856 391.890857,22.9377756 C391.926013,23.4768408 391.800038,23.9602344 391.512927,24.3879709 C391.225816,24.8157074 390.824453,25.1057436 390.308825,25.2580881 C390.250231,25.2698069 390.185779,25.2844552 390.115466,25.3020334 C390.045153,25.3196116 389.980701,25.3342599 389.922107,25.3459787 L389.447497,25.3459787 C389.42406,25.3459787 389.406482,25.3430491 389.394763,25.3371897 L389.342028,25.3108225 C388.884995,25.2287908 388.507069,25.055941 388.208239,24.7922678 C387.90941,24.5285946 387.689685,24.1741059 387.54906,23.7287912 C387.537341,23.6701972 387.522693,23.611604 387.505114,23.55301 C387.487536,23.4944159 387.472888,23.4358228 387.461169,23.3772287 L387.461169,22.8850412 C387.461169,22.8733224 387.467028,22.8586741 387.478747,22.8410959 C387.490466,22.8235177 387.496325,22.8088694 387.496325,22.7971506 C387.566638,22.3401171 387.754136,21.9475429 388.058825,21.6194162 C388.363514,21.2912896 388.74437,21.0744949 389.201403,20.9690256 C389.23656,20.9690256 389.274645,20.9631663 389.315661,20.9514475 C389.356677,20.9397287 389.400622,20.92801 389.447497,20.9162912 Z M395.951403,20.9162912 L396.443591,20.9162912 C396.45531,20.9162912 396.469958,20.9192209 396.487536,20.9250803 C396.505114,20.9309397 396.525622,20.9397287 396.54906,20.9514475 C397.052968,21.0334791 397.483628,21.2649221 397.841052,21.6457834 C398.198476,22.0266447 398.388903,22.4631638 398.412341,22.9553537 C398.435779,23.5178565 398.295155,24.0129688 397.990466,24.4407053 C397.685777,24.8684418 397.275625,25.1467593 396.759997,25.2756662 C396.713122,25.287385 396.660388,25.2991037 396.601794,25.3108225 C396.5432,25.3225413 396.490466,25.3342599 396.443591,25.3459787 L395.951403,25.3459787 C395.939685,25.3459787 395.925036,25.3401194 395.907458,25.3284006 C395.88988,25.3166818 395.869372,25.3108225 395.845935,25.3108225 C395.342026,25.2405096 394.911366,25.0119963 394.553942,24.6252756 C394.196519,24.2385549 394.006091,23.7991062 393.982653,23.3069162 C393.959216,22.7444134 394.099839,22.2493012 394.404528,21.8215647 C394.709217,21.3938281 395.11937,21.1155106 395.634997,20.9866037 C395.681872,20.9748849 395.734606,20.9631663 395.7932,20.9514475 C395.851794,20.9397287 395.904528,20.92801 395.951403,20.9162912 Z" id=""></path>
                </g>
            </g>
        </g>
    </g>
</svg>