<?xml version="1.0" encoding="UTF-8"?>
<svg width="20px" height="21px" viewBox="0 0 20 21" version="1.1" xmlns="http://www.w3.org/2000/svg" xmlns:xlink="http://www.w3.org/1999/xlink">
    <!-- Generator: Sketch 49.2 (51160) - http://www.bohemiancoding.com/sketch -->
    <title>Printer - simple-line-icons</title>
    <desc>Created with Sketch.</desc>
    <defs></defs>
    <g id="Screen" stroke="none" stroke-width="1" fill="none" fill-rule="evenodd">
        <g id="Profiles-List" transform="translate(-1400.000000, -26.000000)" fill="#000000">
            <g id="Header" transform="translate(18.000000, 15.000000)">
                <path d="M1400.61328,16.2304688 C1400.99089,16.2304688 1401.3164,16.3671861 1401.58984,16.640625 C1401.86328,16.9140639 1402,17.2395814 1402,17.6171875 L1402,26.09375 C1402,26.484377 1401.86328,26.8164049 1401.58984,27.0898438 C1401.3164,27.3632826 1400.99089,27.5 1400.61328,27.5 L1398.25,27.5 L1398.25,31.25 L1385.75,31.25 L1385.75,27.5 L1383.38672,27.5 C1383.00911,27.5 1382.6836,27.3632826 1382.41016,27.0898438 C1382.13672,26.8164049 1382,26.484377 1382,26.09375 L1382,17.6171875 C1382,17.2395814 1382.13672,16.9140639 1382.41016,16.640625 C1382.6836,16.3671861 1383.00911,16.2304688 1383.38672,16.2304688 L1385.75,16.2304688 L1385.75,11.25 L1398.25,11.25 L1398.25,16.2304688 L1400.61328,16.2304688 Z M1387,12.4804688 L1387,16.2304688 L1397,16.2304688 L1397,12.4804688 L1387,12.4804688 Z M1397,30 L1397,23.1054688 L1387,23.1054688 L1387,30 L1397,30 Z M1400.75,26.09375 L1400.75,17.6171875 C1400.75,17.5781248 1400.73698,17.545573 1400.71094,17.5195312 C1400.6849,17.4934895 1400.65234,17.4804688 1400.61328,17.4804688 L1383.38672,17.4804688 C1383.34766,17.4804688 1383.3151,17.4934895 1383.28906,17.5195312 C1383.26302,17.545573 1383.25,17.5781248 1383.25,17.6171875 L1383.25,26.09375 C1383.25,26.1328127 1383.26302,26.1653645 1383.28906,26.1914062 C1383.3151,26.217448 1383.34766,26.2304688 1383.38672,26.2304688 L1385.75,26.2304688 L1385.75,21.8554688 L1398.25,21.8554688 L1398.25,26.25 L1400.61328,26.25 C1400.65234,26.25 1400.6849,26.2337241 1400.71094,26.2011719 C1400.73698,26.1686196 1400.75,26.1328127 1400.75,26.09375 Z M1398.25,18.7304688 C1398.41927,18.7304688 1398.56575,18.7923171 1398.68945,18.9160156 C1398.81315,19.0397142 1398.875,19.1861971 1398.875,19.3554688 C1398.875,19.5377613 1398.81315,19.6874994 1398.68945,19.8046875 C1398.56575,19.9218756 1398.41927,19.9804688 1398.25,19.9804688 L1397.625,19.9804688 C1397.45573,19.9804688 1397.30925,19.9218756 1397.18555,19.8046875 C1397.06185,19.6874994 1397,19.5377613 1397,19.3554688 C1397,19.1861971 1397.06185,19.0397142 1397.18555,18.9160156 C1397.30925,18.7923171 1397.45573,18.7304688 1397.625,18.7304688 L1398.25,18.7304688 Z" id="Printer---simple-line-icons"></path>
            </g>
        </g>
    </g>
</svg>