<?xml version="1.0" encoding="UTF-8"?>
<svg width="18px" height="21px" viewBox="0 0 18 21" version="1.1" xmlns="http://www.w3.org/2000/svg" xmlns:xlink="http://www.w3.org/1999/xlink">
    <!-- Generator: Sketch 49.2 (51160) - http://www.bohemiancoding.com/sketch -->
    <title>Lock-open - simple-line-icons</title>
    <desc>Created with Sketch.</desc>
    <defs></defs>
    <g id="Screen" stroke="none" stroke-width="1" fill="none" fill-rule="evenodd">
        <g id="Profiles-List" transform="translate(-1401.000000, -26.000000)" fill="#000000">
            <g id="Header" transform="translate(18.000000, 15.000000)">
                <path d="M1397.625,18.7695312 C1398.31511,18.7695312 1398.90429,19.0136694 1399.39258,19.5019531 C1399.88086,19.9902368 1400.125,20.5794236 1400.125,21.2695312 L1400.125,28.7695312 C1400.125,29.4596389 1399.88086,30.0488257 1399.39258,30.5371094 C1398.90429,31.0253931 1398.31511,31.2695312 1397.625,31.2695312 L1386.375,31.2695312 C1385.68489,31.2695312 1385.09571,31.0253931 1384.60742,30.5371094 C1384.11914,30.0488257 1383.875,29.4596389 1383.875,28.7695312 L1383.875,21.2695312 C1383.875,20.5794236 1384.11914,19.9902368 1384.60742,19.5019531 C1385.09571,19.0136694 1385.68489,18.7695312 1386.375,18.7695312 L1387.42969,18.7695312 L1387.17578,17.6367188 C1386.99349,16.959632 1386.93815,16.2890658 1387.00977,15.625 C1387.08138,14.9609342 1387.26693,14.3489611 1387.56641,13.7890625 C1387.86589,13.2291639 1388.27604,12.7408875 1388.79688,12.3242188 C1389.31771,11.90755 1389.93619,11.6015635 1390.65234,11.40625 C1391.36849,11.2239574 1392.05534,11.1816401 1392.71289,11.2792969 C1393.37045,11.3769536 1393.97591,11.58854 1394.5293,11.9140625 C1395.08269,12.239585 1395.55794,12.6725233 1395.95508,13.2128906 C1396.35222,13.7532579 1396.64193,14.3684861 1396.82422,15.0585938 L1397.09766,16.1132812 C1397.13672,16.2825529 1397.11393,16.4420565 1397.0293,16.5917969 C1396.94466,16.7415372 1396.81771,16.8359373 1396.64844,16.875 C1396.47917,16.9140627 1396.31966,16.8912765 1396.16992,16.8066406 C1396.02018,16.7220048 1395.92578,16.5950529 1395.88672,16.4257812 L1395.61328,15.3710938 C1395.33984,14.3294219 1394.77019,13.5384142 1393.9043,12.9980469 C1393.03841,12.4576796 1392.06511,12.3307277 1390.98438,12.6171875 C1389.8776,12.9166682 1389.09636,13.5188757 1388.64062,14.4238281 C1388.18489,15.3287806 1388.09375,16.2955678 1388.36719,17.3242188 L1388.69922,18.7695312 L1397.625,18.7695312 Z M1398.875,28.7695312 L1398.875,21.2695312 C1398.875,20.9309879 1398.7513,20.6380221 1398.50391,20.390625 C1398.25651,20.1432279 1397.96354,20.0195312 1397.625,20.0195312 L1386.375,20.0195312 C1386.03646,20.0195312 1385.74349,20.1432279 1385.49609,20.390625 C1385.2487,20.6380221 1385.125,20.9309879 1385.125,21.2695312 L1385.125,28.7695312 C1385.125,29.1210955 1385.2487,29.4173165 1385.49609,29.6582031 C1385.74349,29.8990897 1386.03646,30.0195312 1386.375,30.0195312 L1397.625,30.0195312 C1397.96354,30.0195312 1398.25651,29.8990897 1398.50391,29.6582031 C1398.7513,29.4173165 1398.875,29.1210955 1398.875,28.7695312 Z M1392,22.5195312 C1392.35156,22.5195312 1392.64779,22.6432279 1392.88867,22.890625 C1393.12956,23.1380221 1393.25,23.4309879 1393.25,23.7695312 C1393.25,24.0039074 1393.19141,24.2154938 1393.07422,24.4042969 C1392.95703,24.5930999 1392.80729,24.7395828 1392.625,24.84375 L1392.625,26.8945312 C1392.625,27.0638029 1392.56315,27.2102858 1392.43945,27.3339844 C1392.31575,27.4576829 1392.16927,27.5195313 1392,27.5195313 C1391.83073,27.5195313 1391.68425,27.4576829 1391.56055,27.3339844 C1391.43685,27.2102858 1391.375,27.0638029 1391.375,26.8945312 L1391.375,24.84375 C1391.19271,24.7395828 1391.04297,24.5930999 1390.92578,24.4042969 C1390.80859,24.2154938 1390.75,24.0039074 1390.75,23.7695312 C1390.75,23.4309879 1390.87044,23.1380221 1391.11133,22.890625 C1391.35221,22.6432279 1391.64844,22.5195312 1392,22.5195312 Z" id="Lock-open---simple-line-icons"></path>
            </g>
        </g>
    </g>
</svg>