<?xml version="1.0" encoding="UTF-8"?>
<svg width="20px" height="21px" viewBox="0 0 20 21" version="1.1" xmlns="http://www.w3.org/2000/svg" xmlns:xlink="http://www.w3.org/1999/xlink">
    <!-- Generator: Sketch 49.2 (51160) - http://www.bohemiancoding.com/sketch -->
    <title>Ban - simple-line-icons</title>
    <desc>Created with Sketch.</desc>
    <defs></defs>
    <g id="Screen" stroke="none" stroke-width="1" fill="none" fill-rule="evenodd">
        <g id="Profiles-List" transform="translate(-1400.000000, -26.000000)" fill="#000000">
            <g id="Header" transform="translate(18.000000, 15.000000)">
                <path d="M1392,11.25 C1393.38022,11.25 1394.67903,11.5104141 1395.89648,12.03125 C1397.11394,12.5520859 1398.17513,13.2649694 1399.08008,14.1699219 C1399.98503,15.0748743 1400.69791,16.1360616 1401.21875,17.3535156 C1401.73959,18.5709696 1402,19.8697848 1402,21.25 C1402,22.6302152 1401.73959,23.9290304 1401.21875,25.1464844 C1400.69791,26.3639384 1399.98503,27.4251257 1399.08008,28.3300781 C1398.17513,29.2350306 1397.11394,29.9479141 1395.89648,30.46875 C1394.67903,30.9895859 1393.38022,31.25 1392,31.25 C1390.61978,31.25 1389.32097,30.9895859 1388.10352,30.46875 C1386.88606,29.9479141 1385.82487,29.2350306 1384.91992,28.3300781 C1384.01497,27.4251257 1383.30209,26.3639384 1382.78125,25.1464844 C1382.26041,23.9290304 1382,22.6302152 1382,21.25 C1382,19.8697848 1382.26041,18.5709696 1382.78125,17.3535156 C1383.30209,16.1360616 1384.01497,15.0748743 1384.91992,14.1699219 C1385.82487,13.2649694 1386.88606,12.5520859 1388.10352,12.03125 C1389.32097,11.5104141 1390.61978,11.25 1392,11.25 Z M1383.25,21.25 C1383.25,22.4609436 1383.48112,23.5969999 1383.94336,24.6582031 C1384.4056,25.7194063 1385.0306,26.6471314 1385.81836,27.4414062 C1386.60612,28.2356811 1387.53059,28.86393 1388.5918,29.3261719 C1389.653,29.7884138 1390.78906,30.0195312 1392,30.0195312 C1392.54688,30.0195312 1393.08073,29.9707036 1393.60156,29.8730469 C1394.1224,29.7753901 1394.62695,29.6321624 1395.11523,29.4433594 C1395.60352,29.2545563 1396.06575,29.026694 1396.50195,28.7597656 C1396.93815,28.4928372 1397.35156,28.1901059 1397.74219,27.8515625 L1385.39844,15.5078125 C1385.05989,15.8984395 1384.76042,16.3118468 1384.5,16.7480469 C1384.23958,17.184247 1384.01497,17.6464819 1383.82617,18.1347656 C1383.63737,18.6230493 1383.49414,19.1276016 1383.39648,19.6484375 C1383.29883,20.1692734 1383.25,20.7031223 1383.25,21.25 Z M1398.62109,26.9726562 C1398.94662,26.5820293 1399.24284,26.168622 1399.50977,25.7324219 C1399.77669,25.2962218 1400.0013,24.837242 1400.18359,24.3554688 C1400.36589,23.8736955 1400.50586,23.3723984 1400.60352,22.8515625 C1400.70117,22.3307266 1400.75,21.7968777 1400.75,21.25 C1400.75,20.0390564 1400.51888,18.9030001 1400.05664,17.8417969 C1399.5944,16.7805937 1398.9694,15.8561237 1398.18164,15.0683594 C1397.39388,14.280595 1396.46941,13.6556013 1395.4082,13.1933594 C1394.347,12.7311175 1393.21094,12.5 1392,12.5 C1391.45312,12.5 1390.91927,12.5488276 1390.39844,12.6464844 C1389.8776,12.7441411 1389.3763,12.8841137 1388.89453,13.0664062 C1388.41276,13.2486988 1387.95378,13.473306 1387.51758,13.7402344 C1387.08138,14.0071628 1386.66797,14.3033838 1386.27734,14.6289062 L1398.62109,26.9726562 Z" id="Ban---simple-line-icons"></path>
            </g>
        </g>
    </g>
</svg>