<?xml version="1.0" encoding="UTF-8"?>
<svg width="18px" height="21px" viewBox="0 0 18 21" version="1.1" xmlns="http://www.w3.org/2000/svg" xmlns:xlink="http://www.w3.org/1999/xlink">
    <!-- Generator: Sketch 49.2 (51160) - http://www.bohemiancoding.com/sketch -->
    <title>Screen-tablet - simple-line-icons</title>
    <desc>Created with Sketch.</desc>
    <defs></defs>
    <g id="Screen" stroke="none" stroke-width="1" fill="none" fill-rule="evenodd">
        <g id="Profiles-List" transform="translate(-1401.000000, -26.000000)" fill="#000000">
            <g id="Header" transform="translate(18.000000, 15.000000)">
                <path d="M1398.25,11.25 C1398.77084,11.25 1399.21354,11.4322898 1399.57812,11.796875 C1399.94271,12.1614602 1400.125,12.6041641 1400.125,13.125 L1400.125,29.375 C1400.125,29.8958359 1399.94271,30.3385398 1399.57812,30.703125 C1399.21354,31.0677102 1398.77084,31.25 1398.25,31.25 L1385.75,31.25 C1385.22916,31.25 1384.78646,31.0677102 1384.42188,30.703125 C1384.05729,30.3385398 1383.875,29.8958359 1383.875,29.375 L1383.875,13.125 C1383.875,12.6041641 1384.05729,12.1614602 1384.42188,11.796875 C1384.78646,11.4322898 1385.22916,11.25 1385.75,11.25 L1398.25,11.25 Z M1398.875,29.375 L1398.875,13.125 C1398.875,12.9557283 1398.81315,12.8092454 1398.68945,12.6855469 C1398.56575,12.5618483 1398.41927,12.5 1398.25,12.5 L1385.75,12.5 C1385.58073,12.5 1385.43425,12.5618483 1385.31055,12.6855469 C1385.18685,12.8092454 1385.125,12.9557283 1385.125,13.125 L1385.125,29.375 C1385.125,29.5442717 1385.18685,29.6907546 1385.31055,29.8144531 C1385.43425,29.9381517 1385.58073,30 1385.75,30 L1398.25,30 C1398.41927,30 1398.56575,29.9381517 1398.68945,29.8144531 C1398.81315,29.6907546 1398.875,29.5442717 1398.875,29.375 Z M1392,26.875 C1392.33854,26.875 1392.63151,26.9986967 1392.87891,27.2460938 C1393.1263,27.4934908 1393.25,27.7864566 1393.25,28.125 C1393.25,28.4635434 1393.1263,28.7565092 1392.87891,29.0039062 C1392.63151,29.2513033 1392.33854,29.375 1392,29.375 C1391.66146,29.375 1391.36849,29.2513033 1391.12109,29.0039062 C1390.8737,28.7565092 1390.75,28.4635434 1390.75,28.125 C1390.75,27.7864566 1390.8737,27.4934908 1391.12109,27.2460938 C1391.36849,26.9986967 1391.66146,26.875 1392,26.875 Z M1393.25,13.125 C1393.41927,13.125 1393.56575,13.1868483 1393.68945,13.3105469 C1393.81315,13.4342454 1393.875,13.5807283 1393.875,13.75 C1393.875,13.9192717 1393.81315,14.0657546 1393.68945,14.1894531 C1393.56575,14.3131517 1393.41927,14.375 1393.25,14.375 L1390.75,14.375 C1390.58073,14.375 1390.43425,14.3131517 1390.31055,14.1894531 C1390.18685,14.0657546 1390.125,13.9192717 1390.125,13.75 C1390.125,13.5807283 1390.18685,13.4342454 1390.31055,13.3105469 C1390.43425,13.1868483 1390.58073,13.125 1390.75,13.125 L1393.25,13.125 Z" id="Screen-tablet---simple-line-icons"></path>
            </g>
        </g>
    </g>
</svg>