<?xml version="1.0" encoding="UTF-8"?>
<svg width="20px" height="21px" viewBox="0 0 20 21" version="1.1" xmlns="http://www.w3.org/2000/svg" xmlns:xlink="http://www.w3.org/1999/xlink">
    <!-- Generator: Sketch 49.2 (51160) - http://www.bohemiancoding.com/sketch -->
    <title>User - simple-line-icons</title>
    <desc>Created with Sketch.</desc>
    <defs></defs>
    <g id="Screen" stroke="none" stroke-width="1" fill="none" fill-rule="evenodd">
        <g id="Profiles-List" transform="translate(-1400.000000, -26.000000)" fill="#000000">
            <g id="Header" transform="translate(18.000000, 15.000000)">
                <path d="M1392,12.5 C1391.46614,12.5 1390.9388,12.6009104 1390.41797,12.8027344 C1389.89713,13.0045583 1389.42839,13.2617172 1389.01172,13.5742188 C1388.59505,13.8867203 1388.25977,14.2252586 1388.00586,14.5898438 C1387.75195,14.9544289 1387.625,15.2994775 1387.625,15.625 L1387.625,18.75 C1387.625,19.3619822 1387.77799,20.1432244 1388.08398,21.09375 C1388.38998,22.0442756 1388.86849,22.7799453 1389.51953,23.3007812 C1389.6888,23.4309902 1389.81575,23.5970042 1389.90039,23.7988281 C1389.98503,24.0006521 1390.01432,24.2122385 1389.98828,24.4335938 C1389.94922,24.6419281 1389.86784,24.8339835 1389.74414,25.0097656 C1389.62044,25.1855478 1389.46094,25.31901 1389.26562,25.4101562 L1383.77734,28.0078125 C1383.69922,28.0338543 1383.5918,28.0957026 1383.45508,28.1933594 C1383.31836,28.2910161 1383.25,28.4700508 1383.25,28.7304688 L1383.25,30 L1400.73047,29.9804688 L1400.73047,28.7695312 C1400.73047,28.4309879 1400.64909,28.2194015 1400.48633,28.1347656 C1400.32357,28.0501298 1400.23568,28.0078125 1400.22266,28.0078125 L1394.77344,25.4296875 C1394.57812,25.3385412 1394.41537,25.205079 1394.28516,25.0292969 C1394.15495,24.8535147 1394.07682,24.654949 1394.05078,24.4335938 C1394.02474,24.2122385 1394.05404,24.0006521 1394.13867,23.7988281 C1394.22331,23.5970042 1394.35026,23.4309902 1394.51953,23.3007812 C1395.19662,22.7799453 1395.67513,22.0410204 1395.95508,21.0839844 C1396.23503,20.1269483 1396.375,19.3489613 1396.375,18.75 L1396.375,15.625 C1396.375,15.2864566 1396.24479,14.9348977 1395.98438,14.5703125 C1395.72396,14.2057273 1395.38867,13.8704442 1394.97852,13.5644531 C1394.56836,13.258462 1394.09961,13.0045583 1393.57227,12.8027344 C1393.04492,12.6009104 1392.52084,12.5 1392,12.5 Z M1392,11.25 C1392.69011,11.25 1393.37044,11.380207 1394.04102,11.640625 C1394.71159,11.901043 1395.31054,12.2395813 1395.83789,12.65625 C1396.36524,13.0729187 1396.79492,13.5416641 1397.12695,14.0625 C1397.45899,14.5833359 1397.625,15.1041641 1397.625,15.625 L1397.625,18.75 C1397.625,19.1276061 1397.58594,19.5637996 1397.50781,20.0585938 C1397.42969,20.5533879 1397.29948,21.0579401 1397.11719,21.5722656 C1396.93489,22.0865911 1396.69401,22.5813778 1396.39453,23.0566406 C1396.09505,23.5319034 1395.73047,23.9388004 1395.30078,24.2773438 L1400.75,26.875 L1401.36523,27.2167969 C1401.77539,27.4446626 1401.98047,27.7408836 1401.98047,28.1054688 L1401.98047,30 C1401.98047,30.3385434 1401.86003,30.628254 1401.61914,30.8691406 C1401.37825,31.1100272 1401.08854,31.2304688 1400.75,31.2304688 L1383.25,31.2304688 C1382.89844,31.2304688 1382.60221,31.1100272 1382.36133,30.8691406 C1382.12044,30.628254 1382,30.3385434 1382,30 L1382,28.1054688 C1382,27.7669254 1382.20833,27.4772147 1382.625,27.2363281 L1383.25,26.875 L1388.73828,24.2773438 C1388.29557,23.9257795 1387.92448,23.5026066 1387.625,23.0078125 C1387.32552,22.5130184 1387.08138,22.0084661 1386.89258,21.4941406 C1386.70378,20.9798151 1386.57031,20.4785181 1386.49219,19.9902344 C1386.41406,19.5019507 1386.375,19.0885434 1386.375,18.75 L1386.375,15.625 C1386.375,15.1041641 1386.53776,14.5833359 1386.86328,14.0625 C1387.1888,13.5416641 1387.61523,13.0729187 1388.14258,12.65625 C1388.66992,12.2395813 1389.27213,11.901043 1389.94922,11.640625 C1390.62631,11.380207 1391.30989,11.25 1392,11.25 Z" id="User---simple-line-icons"></path>
            </g>
        </g>
    </g>
</svg>