<?xml version="1.0" encoding="UTF-8"?>
<svg width="20px" height="21px" viewBox="0 0 20 21" version="1.1" xmlns="http://www.w3.org/2000/svg" xmlns:xlink="http://www.w3.org/1999/xlink">
    <!-- Generator: Sketch 49.2 (51160) - http://www.bohemiancoding.com/sketch -->
    <title>Logout - simple-line-icons</title>
    <desc>Created with Sketch.</desc>
    <defs></defs>
    <g id="Screen" stroke="none" stroke-width="1" fill="none" fill-rule="evenodd">
        <g id="Profiles-List" transform="translate(-1400.000000, -26.000000)" fill="#000000">
            <g id="Header" transform="translate(18.000000, 15.000000)">
                <path d="M1384.28516,21.875 L1386.58984,24.1601562 C1386.70703,24.2903652 1386.76562,24.4401033 1386.76562,24.609375 C1386.76562,24.7786467 1386.70703,24.9283848 1386.58984,25.0585938 C1386.52474,25.1106773 1386.45313,25.1529946 1386.375,25.1855469 C1386.29687,25.2180991 1386.21875,25.234375 1386.14062,25.234375 C1386.0625,25.234375 1385.98438,25.2180991 1385.90625,25.1855469 C1385.82812,25.1529946 1385.75651,25.1106773 1385.69141,25.0585938 L1382,21.2695312 L1385.69141,17.4804688 C1385.82162,17.3502598 1385.97135,17.2851562 1386.14062,17.2851562 C1386.3099,17.2851562 1386.45963,17.3502598 1386.58984,17.4804688 C1386.70703,17.5976568 1386.76562,17.7441397 1386.76562,17.9199219 C1386.76562,18.095704 1386.70703,18.2421869 1386.58984,18.359375 L1384.32422,20.625 L1395.10547,20.625 C1395.28776,20.625 1395.4375,20.6835932 1395.55469,20.8007812 C1395.67188,20.9179693 1395.73047,21.0677074 1395.73047,21.25 C1395.73047,21.4192717 1395.67188,21.5657546 1395.55469,21.6894531 C1395.4375,21.8131517 1395.28776,21.875 1395.10547,21.875 L1384.28516,21.875 Z M1400.75,11.25 C1401.08854,11.25 1401.38151,11.3704415 1401.62891,11.6113281 C1401.8763,11.8522147 1402,12.1484357 1402,12.5 L1402,30 C1402,30.3515643 1401.8763,30.6477853 1401.62891,30.8886719 C1401.38151,31.1295585 1401.08854,31.25 1400.75,31.25 L1390.125,31.25 C1389.77344,31.25 1389.47721,31.1295585 1389.23633,30.8886719 C1388.99544,30.6477853 1388.875,30.3515643 1388.875,30 L1388.875,24.3554688 L1390.125,24.3554688 L1390.125,29.2382812 C1390.125,29.4466156 1390.19987,29.6256503 1390.34961,29.7753906 C1390.49935,29.925131 1390.67838,30 1390.88672,30 L1399.98828,30 C1400.19662,30 1400.3724,29.925131 1400.51562,29.7753906 C1400.65885,29.6256503 1400.73047,29.4466156 1400.73047,29.2382812 L1400.71094,13.2617188 C1400.71094,13.0533844 1400.63932,12.8743497 1400.49609,12.7246094 C1400.35286,12.574869 1400.17708,12.5 1399.96875,12.5 L1390.88672,12.5 C1390.67838,12.5 1390.49935,12.574869 1390.34961,12.7246094 C1390.19987,12.8743497 1390.125,13.0533844 1390.125,13.2617188 L1390.125,18.125 L1388.875,18.125 L1388.875,12.5 C1388.875,12.1484357 1388.99544,11.8522147 1389.23633,11.6113281 C1389.47721,11.3704415 1389.77344,11.25 1390.125,11.25 L1400.75,11.25 Z" id="Logout---simple-line-icons"></path>
            </g>
        </g>
    </g>
</svg>