<?xml version="1.0" encoding="UTF-8"?>
<svg width="20px" height="21px" viewBox="0 0 20 21" version="1.1" xmlns="http://www.w3.org/2000/svg" xmlns:xlink="http://www.w3.org/1999/xlink">
    <!-- Generator: Sketch 49.2 (51160) - http://www.bohemiancoding.com/sketch -->
    <title></title>
    <desc>Created with Sketch.</desc>
    <defs></defs>
    <g id="Screen" stroke="none" stroke-width="1" fill="none" fill-rule="evenodd">
        <g id="Profiles-List" transform="translate(-289.000000, -235.000000)" fill="#000000">
            <g id="Content" transform="translate(100.000000, 90.000000)">
                <g id="profile">
                    <path d="M199,145.25 C200.380215,145.25 201.67903,145.510414 202.896484,146.03125 C204.113938,146.552086 205.175126,147.264969 206.080078,148.169922 C206.985031,149.074874 207.697914,150.136062 208.21875,151.353516 C208.739586,152.57097 209,153.869785 209,155.25 C209,156.630215 208.739586,157.92903 208.21875,159.146484 C207.697914,160.363938 206.985031,161.425126 206.080078,162.330078 C205.175126,163.235031 204.113938,163.947914 202.896484,164.46875 C201.67903,164.989586 200.380215,165.25 199,165.25 C197.619785,165.25 196.32097,164.989586 195.103516,164.46875 C193.886062,163.947914 192.824874,163.235031 191.919922,162.330078 C191.014969,161.425126 190.302086,160.363938 189.78125,159.146484 C189.260414,157.92903 189,156.630215 189,155.25 C189,153.869785 189.260414,152.57097 189.78125,151.353516 C190.302086,150.136062 191.014969,149.074874 191.919922,148.169922 C192.824874,147.264969 193.886062,146.552086 195.103516,146.03125 C196.32097,145.510414 197.619785,145.25 199,145.25 Z M199,164.019531 C200.210944,164.019531 201.347,163.788414 202.408203,163.326172 C203.469406,162.86393 204.393876,162.235681 205.181641,161.441406 C205.969405,160.647131 206.594399,159.719406 207.056641,158.658203 C207.518883,157.597 207.75,156.460944 207.75,155.25 C207.75,154.039056 207.518883,152.903 207.056641,151.841797 C206.594399,150.780594 205.969405,149.856124 205.181641,149.068359 C204.393876,148.280595 203.469406,147.655601 202.408203,147.193359 C201.347,146.731117 200.210944,146.5 199,146.5 C197.789056,146.5 196.653,146.731117 195.591797,147.193359 C194.530594,147.655601 193.606124,148.280595 192.818359,149.068359 C192.030595,149.856124 191.405601,150.780594 190.943359,151.841797 C190.481117,152.903 190.25,154.039056 190.25,155.25 C190.25,156.460944 190.481117,157.597 190.943359,158.658203 C191.405601,159.719406 192.030595,160.647131 192.818359,161.441406 C193.606124,162.235681 194.530594,162.86393 195.591797,163.326172 C196.653,163.788414 197.789056,164.019531 199,164.019531 Z M203.375,154.625 C203.544272,154.625 203.690755,154.686848 203.814453,154.810547 C203.938152,154.934245 204,155.080728 204,155.25 C204,155.419272 203.938152,155.565755 203.814453,155.689453 C203.690755,155.813152 203.544272,155.875 203.375,155.875 L199.625,155.875 L199.625,159.625 C199.625,159.794272 199.563152,159.940755 199.439453,160.064453 C199.315755,160.188152 199.169272,160.25 199,160.25 C198.830728,160.25 198.684245,160.188152 198.560547,160.064453 C198.436848,159.940755 198.375,159.794272 198.375,159.625 L198.375,155.875 L194.625,155.875 C194.455728,155.875 194.309245,155.813152 194.185547,155.689453 C194.061848,155.565755 194,155.419272 194,155.25 C194,155.080728 194.061848,154.934245 194.185547,154.810547 C194.309245,154.686848 194.455728,154.625 194.625,154.625 L198.375,154.625 L198.375,150.875 C198.375,150.705728 198.436848,150.559245 198.560547,150.435547 C198.684245,150.311848 198.830728,150.25 199,150.25 C199.169272,150.25 199.315755,150.311848 199.439453,150.435547 C199.563152,150.559245 199.625,150.705728 199.625,150.875 L199.625,154.625 L203.375,154.625 Z" id=""></path>
                </g>
            </g>
        </g>
    </g>
</svg>