<?xml version="1.0" encoding="UTF-8"?>
<svg width="20px" height="11px" viewBox="0 0 20 11" version="1.1" xmlns="http://www.w3.org/2000/svg" xmlns:xlink="http://www.w3.org/1999/xlink">
    <!-- Generator: Sketch 49.2 (51160) - http://www.bohemiancoding.com/sketch -->
    <title>Arrow-down - simple-line-icons</title>
    <desc>Created with Sketch.</desc>
    <defs></defs>
    <g id="Screen" stroke="none" stroke-width="1" fill="none" fill-rule="evenodd">
        <g id="Profiles-List" transform="translate(-1400.000000, -31.000000)" fill="#000000">
            <g id="Header" transform="translate(18.000000, 15.000000)">
                <path d="M1382.15625,16.6210938 C1382.15625,16.5429684 1382.17253,16.461589 1382.20508,16.3769531 C1382.23763,16.2923173 1382.28646,16.2174482 1382.35156,16.1523438 C1382.48177,16.0351557 1382.63802,15.9765625 1382.82031,15.9765625 C1383.00261,15.9765625 1383.15885,16.0351557 1383.28906,16.1523438 L1392.11719,24.9804688 L1400.80859,16.2890625 C1400.9388,16.1588535 1401.09505,16.09375 1401.27734,16.09375 C1401.45964,16.09375 1401.61588,16.1588535 1401.74609,16.2890625 C1401.8763,16.4192715 1401.94141,16.5755199 1401.94141,16.7578125 C1401.94141,16.9401051 1401.8763,17.0963535 1401.74609,17.2265625 L1392.58594,26.3867188 C1392.45573,26.5169277 1392.29948,26.5820312 1392.11719,26.5820312 C1391.93489,26.5820312 1391.77865,26.5169277 1391.64844,26.3867188 L1382.35156,17.109375 C1382.28646,17.0442705 1382.23763,16.9694015 1382.20508,16.8847656 C1382.17253,16.8001298 1382.15625,16.71224 1382.15625,16.6210938 Z" id="Arrow-down---simple-line-icons"></path>
            </g>
        </g>
    </g>
</svg>