<?xml version="1.0" encoding="UTF-8"?>
<svg width="20px" height="14px" viewBox="0 0 20 14" version="1.1" xmlns="http://www.w3.org/2000/svg" xmlns:xlink="http://www.w3.org/1999/xlink">
    <!-- Generator: Sketch 49.2 (51160) - http://www.bohemiancoding.com/sketch -->
    <title>Credit-card - simple-line-icons</title>
    <desc>Created with Sketch.</desc>
    <defs></defs>
    <g id="Screen" stroke="none" stroke-width="1" fill="none" fill-rule="evenodd">
        <g id="Profiles-List" transform="translate(-1400.000000, -29.000000)" fill="#000000">
            <g id="Header" transform="translate(18.000000, 15.000000)">
                <path d="M1400.125,14.6875 C1400.64584,14.6875 1401.08854,14.8697898 1401.45312,15.234375 C1401.81771,15.5989602 1402,16.0416641 1402,16.5625 L1402,25.9375 C1402,26.4583359 1401.81771,26.9010398 1401.45312,27.265625 C1401.08854,27.6302102 1400.64584,27.8125 1400.125,27.8125 L1383.875,27.8125 C1383.35416,27.8125 1382.91146,27.6302102 1382.54688,27.265625 C1382.18229,26.9010398 1382,26.4583359 1382,25.9375 L1382,16.5625 C1382,16.0416641 1382.18229,15.5989602 1382.54688,15.234375 C1382.91146,14.8697898 1383.35416,14.6875 1383.875,14.6875 L1400.125,14.6875 Z M1383.875,15.9375 C1383.70573,15.9375 1383.55925,15.9993483 1383.43555,16.1230469 C1383.31185,16.2467454 1383.25,16.3932283 1383.25,16.5625 L1383.25,17.8125 L1400.75,17.8125 L1400.75,16.5625 C1400.75,16.3932283 1400.68815,16.2467454 1400.56445,16.1230469 C1400.44075,15.9993483 1400.29427,15.9375 1400.125,15.9375 L1383.875,15.9375 Z M1400.125,26.5625 C1400.29427,26.5625 1400.44075,26.5006517 1400.56445,26.3769531 C1400.68815,26.2532546 1400.75,26.1067717 1400.75,25.9375 L1400.75,20.3125 L1383.25,20.3125 L1383.25,25.9375 C1383.25,26.1067717 1383.31185,26.2532546 1383.43555,26.3769531 C1383.55925,26.5006517 1383.70573,26.5625 1383.875,26.5625 L1400.125,26.5625 Z" id="Credit-card---simple-line-icons"></path>
            </g>
        </g>
    </g>
</svg>