<?xml version="1.0" encoding="UTF-8"?>
<svg width="20px" height="21px" viewBox="0 0 20 21" version="1.1" xmlns="http://www.w3.org/2000/svg" xmlns:xlink="http://www.w3.org/1999/xlink">
    <!-- Generator: Sketch 49.2 (51160) - http://www.bohemiancoding.com/sketch -->
    <title>Info - simple-line-icons</title>
    <desc>Created with Sketch.</desc>
    <defs></defs>
    <g id="Screen" stroke="none" stroke-width="1" fill="none" fill-rule="evenodd">
        <g id="Profiles-List" transform="translate(-1400.000000, -26.000000)" fill="#000000">
            <g id="Header" transform="translate(18.000000, 15.000000)">
                <path d="M1393.25,25.625 C1393.41927,25.625 1393.56575,25.6868483 1393.68945,25.8105469 C1393.81315,25.9342454 1393.875,26.0807283 1393.875,26.25 C1393.875,26.4192717 1393.81315,26.5657546 1393.68945,26.6894531 C1393.56575,26.8131517 1393.41927,26.875 1393.25,26.875 L1390.75,26.875 C1390.58073,26.875 1390.43425,26.8131517 1390.31055,26.6894531 C1390.18685,26.5657546 1390.125,26.4192717 1390.125,26.25 C1390.125,26.0807283 1390.18685,25.9342454 1390.31055,25.8105469 C1390.43425,25.6868483 1390.58073,25.625 1390.75,25.625 L1391.375,25.625 L1391.375,20.625 L1390.75,20.625 C1390.58073,20.625 1390.43425,20.5631517 1390.31055,20.4394531 C1390.18685,20.3157546 1390.125,20.1692717 1390.125,20 C1390.125,19.8307283 1390.18685,19.6842454 1390.31055,19.5605469 C1390.43425,19.4368483 1390.58073,19.375 1390.75,19.375 L1392,19.375 C1392.16927,19.375 1392.31575,19.4368483 1392.43945,19.5605469 C1392.56315,19.6842454 1392.625,19.8307283 1392.625,20 L1392.625,25.625 L1393.25,25.625 Z M1392,18.125 C1391.64844,18.125 1391.35221,18.0045585 1391.11133,17.7636719 C1390.87044,17.5227853 1390.75,17.2265643 1390.75,16.875 C1390.75,16.5234357 1390.87044,16.2272147 1391.11133,15.9863281 C1391.35221,15.7454415 1391.64844,15.625 1392,15.625 C1392.35156,15.625 1392.64779,15.7454415 1392.88867,15.9863281 C1393.12956,16.2272147 1393.25,16.5234357 1393.25,16.875 C1393.25,17.2265643 1393.12956,17.5227853 1392.88867,17.7636719 C1392.64779,18.0045585 1392.35156,18.125 1392,18.125 Z M1392,11.25 C1393.38022,11.25 1394.67903,11.5104141 1395.89648,12.03125 C1397.11394,12.5520859 1398.17513,13.2649694 1399.08008,14.1699219 C1399.98503,15.0748743 1400.69791,16.1360616 1401.21875,17.3535156 C1401.73959,18.5709696 1402,19.8697848 1402,21.25 C1402,22.6302152 1401.73959,23.9290304 1401.21875,25.1464844 C1400.69791,26.3639384 1399.98503,27.4251257 1399.08008,28.3300781 C1398.17513,29.2350306 1397.11394,29.9479141 1395.89648,30.46875 C1394.67903,30.9895859 1393.38022,31.25 1392,31.25 C1390.61978,31.25 1389.32097,30.9895859 1388.10352,30.46875 C1386.88606,29.9479141 1385.82487,29.2350306 1384.91992,28.3300781 C1384.01497,27.4251257 1383.30209,26.3639384 1382.78125,25.1464844 C1382.26041,23.9290304 1382,22.6302152 1382,21.25 C1382,19.8697848 1382.26041,18.5709696 1382.78125,17.3535156 C1383.30209,16.1360616 1384.01497,15.0748743 1384.91992,14.1699219 C1385.82487,13.2649694 1386.88606,12.5520859 1388.10352,12.03125 C1389.32097,11.5104141 1390.61978,11.25 1392,11.25 Z M1392,30.0195312 C1393.21094,30.0195312 1394.347,29.7884138 1395.4082,29.3261719 C1396.46941,28.86393 1397.39388,28.2356811 1398.18164,27.4414062 C1398.9694,26.6471314 1399.5944,25.7194063 1400.05664,24.6582031 C1400.51888,23.5969999 1400.75,22.4609436 1400.75,21.25 C1400.75,20.0390564 1400.51888,18.9030001 1400.05664,17.8417969 C1399.5944,16.7805937 1398.9694,15.8561237 1398.18164,15.0683594 C1397.39388,14.280595 1396.46941,13.6556013 1395.4082,13.1933594 C1394.347,12.7311175 1393.21094,12.5 1392,12.5 C1390.78906,12.5 1389.653,12.7311175 1388.5918,13.1933594 C1387.53059,13.6556013 1386.60612,14.280595 1385.81836,15.0683594 C1385.0306,15.8561237 1384.4056,16.7805937 1383.94336,17.8417969 C1383.48112,18.9030001 1383.25,20.0390564 1383.25,21.25 C1383.25,22.4609436 1383.48112,23.5969999 1383.94336,24.6582031 C1384.4056,25.7194063 1385.0306,26.6471314 1385.81836,27.4414062 C1386.60612,28.2356811 1387.53059,28.86393 1388.5918,29.3261719 C1389.653,29.7884138 1390.78906,30.0195312 1392,30.0195312 Z" id="Info---simple-line-icons"></path>
            </g>
        </g>
    </g>
</svg>