<?xml version="1.0" encoding="UTF-8"?>
<svg width="20px" height="21px" viewBox="0 0 20 21" version="1.1" xmlns="http://www.w3.org/2000/svg" xmlns:xlink="http://www.w3.org/1999/xlink">
    <!-- Generator: Sketch 49.2 (51160) - http://www.bohemiancoding.com/sketch -->
    <title>Chart - simple-line-icons</title>
    <desc>Created with Sketch.</desc>
    <defs></defs>
    <g id="Screen" stroke="none" stroke-width="1" fill="none" fill-rule="evenodd">
        <g id="Profiles-List" transform="translate(-1400.000000, -26.000000)" fill="#000000">
            <g id="Header" transform="translate(18.000000, 15.000000)">
                <path d="M1387.3125,17.5 C1387.48177,17.5 1387.62825,17.5618483 1387.75195,17.6855469 C1387.87565,17.8092454 1387.9375,17.9557283 1387.9375,18.125 L1387.9375,30.625 C1387.9375,30.7942717 1387.87565,30.9407546 1387.75195,31.0644531 C1387.62825,31.1881517 1387.48177,31.25 1387.3125,31.25 L1382.9375,31.25 C1382.76823,31.25 1382.62175,31.1881517 1382.49805,31.0644531 C1382.37435,30.9407546 1382.3125,30.7942717 1382.3125,30.625 L1382.3125,18.125 C1382.3125,17.9557283 1382.37435,17.8092454 1382.49805,17.6855469 C1382.62175,17.5618483 1382.76823,17.5 1382.9375,17.5 L1387.3125,17.5 Z M1386.6875,30 L1386.6875,18.75 L1383.5625,18.75 L1383.5625,30 L1386.6875,30 Z M1394.1875,21.2109375 C1394.35677,21.2109375 1394.50325,21.2727858 1394.62695,21.3964844 C1394.75065,21.5201829 1394.8125,21.6666658 1394.8125,21.8359375 L1394.8125,30.625 C1394.8125,30.7942717 1394.75065,30.9407546 1394.62695,31.0644531 C1394.50325,31.1881517 1394.35677,31.25 1394.1875,31.25 L1389.8125,31.25 C1389.63021,31.25 1389.48047,31.1881517 1389.36328,31.0644531 C1389.24609,30.9407546 1389.1875,30.7942717 1389.1875,30.625 L1389.1875,21.8359375 C1389.1875,21.6666658 1389.24609,21.5201829 1389.36328,21.3964844 C1389.48047,21.2727858 1389.63021,21.2109375 1389.8125,21.2109375 L1394.1875,21.2109375 Z M1393.5625,30 L1393.5625,22.4609375 L1390.4375,22.4609375 L1390.4375,30 L1393.5625,30 Z M1401.0625,11.25 C1401.23177,11.25 1401.37825,11.3118483 1401.50195,11.4355469 C1401.62565,11.5592454 1401.6875,11.7057283 1401.6875,11.875 L1401.6875,30.625 C1401.6875,30.7942717 1401.62565,30.9407546 1401.50195,31.0644531 C1401.37825,31.1881517 1401.23177,31.25 1401.0625,31.25 L1396.6875,31.25 C1396.51823,31.25 1396.37175,31.1881517 1396.24805,31.0644531 C1396.12435,30.9407546 1396.0625,30.7942717 1396.0625,30.625 L1396.0625,11.875 C1396.0625,11.7057283 1396.12435,11.5592454 1396.24805,11.4355469 C1396.37175,11.3118483 1396.51823,11.25 1396.6875,11.25 L1401.0625,11.25 Z M1400.4375,30 L1400.4375,12.5 L1397.3125,12.5 L1397.3125,30 L1400.4375,30 Z" id="Chart---simple-line-icons"></path>
            </g>
        </g>
    </g>
</svg>