<?xml version="1.0" encoding="UTF-8"?>
<svg width="20px" height="21px" viewBox="0 0 20 21" version="1.1" xmlns="http://www.w3.org/2000/svg" xmlns:xlink="http://www.w3.org/1999/xlink">
    <!-- Generator: Sketch 49.2 (51160) - http://www.bohemiancoding.com/sketch -->
    <title>Calendar - simple-line-icons</title>
    <desc>Created with Sketch.</desc>
    <defs></defs>
    <g id="Screen" stroke="none" stroke-width="1" fill="none" fill-rule="evenodd">
        <g id="Profiles-List" transform="translate(-1400.000000, -26.000000)" fill="#000000">
            <g id="Header" transform="translate(18.000000, 15.000000)">
                <path d="M1400.75,13.125 C1401.10156,13.125 1401.39779,13.2454415 1401.63867,13.4863281 C1401.87956,13.7272147 1402,14.0234357 1402,14.375 L1402,30 C1402,30.3385434 1401.87956,30.6315092 1401.63867,30.8789062 C1401.39779,31.1263033 1401.10156,31.25 1400.75,31.25 L1383.25,31.25 C1382.89844,31.25 1382.60221,31.1263033 1382.36133,30.8789062 C1382.12044,30.6315092 1382,30.3385434 1382,30 L1382,14.375 C1382,14.0234357 1382.12044,13.7272147 1382.36133,13.4863281 C1382.60221,13.2454415 1382.89844,13.125 1383.25,13.125 L1388.25,13.125 L1388.25,11.875 C1388.25,11.7057283 1388.31185,11.5592454 1388.43555,11.4355469 C1388.55925,11.3118483 1388.70573,11.25 1388.875,11.25 C1389.04427,11.25 1389.19075,11.3118483 1389.31445,11.4355469 C1389.43815,11.5592454 1389.5,11.7057283 1389.5,11.875 L1389.5,13.125 L1394.5,13.125 L1394.5,11.875 C1394.5,11.7057283 1394.56185,11.5592454 1394.68555,11.4355469 C1394.80925,11.3118483 1394.95573,11.25 1395.125,11.25 C1395.29427,11.25 1395.44075,11.3118483 1395.56445,11.4355469 C1395.68815,11.5592454 1395.75,11.7057283 1395.75,11.875 L1395.75,13.125 L1400.75,13.125 Z M1400.75,30 L1400.75,14.375 L1395.75,14.375 L1395.75,15 C1395.75,15.1692717 1395.68815,15.3157546 1395.56445,15.4394531 C1395.44075,15.5631517 1395.29427,15.625 1395.125,15.625 C1394.95573,15.625 1394.80925,15.5631517 1394.68555,15.4394531 C1394.56185,15.3157546 1394.5,15.1692717 1394.5,15 L1394.5,14.375 L1389.5,14.375 L1389.5,15 C1389.5,15.1692717 1389.43815,15.3157546 1389.31445,15.4394531 C1389.19075,15.5631517 1389.04427,15.625 1388.875,15.625 C1388.70573,15.625 1388.55925,15.5631517 1388.43555,15.4394531 C1388.31185,15.3157546 1388.25,15.1692717 1388.25,15 L1388.25,14.375 L1383.25,14.375 L1383.25,30 L1400.75,30 Z M1396.375,21.25 C1396.20573,21.25 1396.05925,21.1881517 1395.93555,21.0644531 C1395.81185,20.9407546 1395.75,20.7942717 1395.75,20.625 L1395.75,19.375 C1395.75,19.2057283 1395.81185,19.0592454 1395.93555,18.9355469 C1396.05925,18.8118483 1396.20573,18.75 1396.375,18.75 L1397.625,18.75 C1397.79427,18.75 1397.94075,18.8118483 1398.06445,18.9355469 C1398.18815,19.0592454 1398.25,19.2057283 1398.25,19.375 L1398.25,20.625 C1398.25,20.7942717 1398.18815,20.9407546 1398.06445,21.0644531 C1397.94075,21.1881517 1397.79427,21.25 1397.625,21.25 L1396.375,21.25 Z M1396.375,26.25 C1396.20573,26.25 1396.05925,26.1881517 1395.93555,26.0644531 C1395.81185,25.9407546 1395.75,25.7942717 1395.75,25.625 L1395.75,24.375 C1395.75,24.2057283 1395.81185,24.0592454 1395.93555,23.9355469 C1396.05925,23.8118483 1396.20573,23.75 1396.375,23.75 L1397.625,23.75 C1397.79427,23.75 1397.94075,23.8118483 1398.06445,23.9355469 C1398.18815,24.0592454 1398.25,24.2057283 1398.25,24.375 L1398.25,25.625 C1398.25,25.7942717 1398.18815,25.9407546 1398.06445,26.0644531 C1397.94075,26.1881517 1397.79427,26.25 1397.625,26.25 L1396.375,26.25 Z M1392.625,23.75 C1392.79427,23.75 1392.94075,23.8118483 1393.06445,23.9355469 C1393.18815,24.0592454 1393.25,24.2057283 1393.25,24.375 L1393.25,25.625 C1393.25,25.7942717 1393.18815,25.9407546 1393.06445,26.0644531 C1392.94075,26.1881517 1392.79427,26.25 1392.625,26.25 L1391.375,26.25 C1391.20573,26.25 1391.05925,26.1881517 1390.93555,26.0644531 C1390.81185,25.9407546 1390.75,25.7942717 1390.75,25.625 L1390.75,24.375 C1390.75,24.2057283 1390.81185,24.0592454 1390.93555,23.9355469 C1391.05925,23.8118483 1391.20573,23.75 1391.375,23.75 L1392.625,23.75 Z M1392.625,18.75 C1392.79427,18.75 1392.94075,18.8118483 1393.06445,18.9355469 C1393.18815,19.0592454 1393.25,19.2057283 1393.25,19.375 L1393.25,20.625 C1393.25,20.7942717 1393.18815,20.9407546 1393.06445,21.0644531 C1392.94075,21.1881517 1392.79427,21.25 1392.625,21.25 L1391.375,21.25 C1391.20573,21.25 1391.05925,21.1881517 1390.93555,21.0644531 C1390.81185,20.9407546 1390.75,20.7942717 1390.75,20.625 L1390.75,19.375 C1390.75,19.2057283 1390.81185,19.0592454 1390.93555,18.9355469 C1391.05925,18.8118483 1391.20573,18.75 1391.375,18.75 L1392.625,18.75 Z M1387.625,18.75 C1387.79427,18.75 1387.94075,18.8118483 1388.06445,18.9355469 C1388.18815,19.0592454 1388.25,19.2057283 1388.25,19.375 L1388.25,20.625 C1388.25,20.7942717 1388.18815,20.9407546 1388.06445,21.0644531 C1387.94075,21.1881517 1387.79427,21.25 1387.625,21.25 L1386.375,21.25 C1386.20573,21.25 1386.05925,21.1881517 1385.93555,21.0644531 C1385.81185,20.9407546 1385.75,20.7942717 1385.75,20.625 L1385.75,19.375 C1385.75,19.2057283 1385.81185,19.0592454 1385.93555,18.9355469 C1386.05925,18.8118483 1386.20573,18.75 1386.375,18.75 L1387.625,18.75 Z M1387.625,23.75 C1387.79427,23.75 1387.94075,23.8118483 1388.06445,23.9355469 C1388.18815,24.0592454 1388.25,24.2057283 1388.25,24.375 L1388.25,25.625 C1388.25,25.7942717 1388.18815,25.9407546 1388.06445,26.0644531 C1387.94075,26.1881517 1387.79427,26.25 1387.625,26.25 L1386.375,26.25 C1386.20573,26.25 1386.05925,26.1881517 1385.93555,26.0644531 C1385.81185,25.9407546 1385.75,25.7942717 1385.75,25.625 L1385.75,24.375 C1385.75,24.2057283 1385.81185,24.0592454 1385.93555,23.9355469 C1386.05925,23.8118483 1386.20573,23.75 1386.375,23.75 L1387.625,23.75 Z" id="Calendar---simple-line-icons"></path>
            </g>
        </g>
    </g>
</svg>