<?xml version="1.0" encoding="UTF-8"?>
<svg width="20px" height="21px" viewBox="0 0 20 21" version="1.1" xmlns="http://www.w3.org/2000/svg" xmlns:xlink="http://www.w3.org/1999/xlink">
    <!-- Generator: Sketch 49.2 (51160) - http://www.bohemiancoding.com/sketch -->
    <title>Emotsmile - simple-line-icons</title>
    <desc>Created with Sketch.</desc>
    <defs></defs>
    <g id="Screen" stroke="none" stroke-width="1" fill="none" fill-rule="evenodd">
        <g id="Profiles-List" transform="translate(-1400.000000, -26.000000)" fill="#000000">
            <g id="Header" transform="translate(18.000000, 15.000000)">
                <path d="M1397.25391,23.1054688 C1397.41016,23.1835941 1397.52083,23.3007805 1397.58594,23.4570312 C1397.65104,23.613282 1397.64453,23.7695305 1397.56641,23.9257812 C1397.55339,23.9648439 1397.44271,24.1731752 1397.23438,24.5507812 C1397.02604,24.9283873 1396.69727,25.3352843 1396.24805,25.7714844 C1395.79883,26.2076845 1395.22266,26.6080711 1394.51953,26.9726562 C1393.8164,27.3372414 1392.96355,27.5195312 1391.96094,27.5195312 C1391.94792,27.5195312 1391.9349,27.5227864 1391.92188,27.5292969 C1391.90885,27.5358073 1391.89583,27.5390625 1391.88281,27.5390625 C1390.93229,27.5390625 1390.11524,27.3567727 1389.43164,26.9921875 C1388.74804,26.6276023 1388.1849,26.2272157 1387.74219,25.7910156 C1387.29948,25.3548155 1386.9707,24.9446634 1386.75586,24.5605469 C1386.54101,24.1764304 1386.42708,23.9713543 1386.41406,23.9453125 C1386.33594,23.7760408 1386.32617,23.613282 1386.38477,23.4570312 C1386.44336,23.3007805 1386.55729,23.1835941 1386.72656,23.1054688 C1386.88281,23.0403643 1387.03906,23.0371091 1387.19531,23.0957031 C1387.35156,23.1542972 1387.46875,23.261718 1387.54688,23.4179688 C1387.5599,23.4440105 1387.6543,23.6100245 1387.83008,23.9160156 C1388.00586,24.2220067 1388.26953,24.5475243 1388.62109,24.8925781 C1388.97266,25.2376319 1389.41862,25.5566392 1389.95898,25.8496094 C1390.49935,26.1425796 1391.14713,26.2890625 1391.90234,26.2890625 L1391.92188,26.2792969 C1391.9349,26.2727864 1391.94792,26.2695312 1391.96094,26.2695312 C1392.75521,26.2695312 1393.43554,26.1197932 1394.00195,25.8203125 C1394.56836,25.5208318 1395.0306,25.1953143 1395.38867,24.84375 C1395.74675,24.4921857 1396.01042,24.1699233 1396.17969,23.8769531 C1396.34896,23.5839829 1396.43359,23.4309896 1396.43359,23.4179688 C1396.4987,23.261718 1396.61263,23.1542972 1396.77539,23.0957031 C1396.93815,23.0371091 1397.09766,23.0403643 1397.25391,23.1054688 Z M1392,11.25 C1393.38022,11.25 1394.67903,11.5104141 1395.89648,12.03125 C1397.11394,12.5520859 1398.17513,13.2649694 1399.08008,14.1699219 C1399.98503,15.0748743 1400.69791,16.1360616 1401.21875,17.3535156 C1401.73959,18.5709696 1402,19.8697848 1402,21.25 C1402,22.6302152 1401.73959,23.9290304 1401.21875,25.1464844 C1400.69791,26.3639384 1399.98503,27.4251257 1399.08008,28.3300781 C1398.17513,29.2350306 1397.11394,29.9479141 1395.89648,30.46875 C1394.67903,30.9895859 1393.38022,31.25 1392,31.25 C1390.61978,31.25 1389.32097,30.9895859 1388.10352,30.46875 C1386.88606,29.9479141 1385.82487,29.2350306 1384.91992,28.3300781 C1384.01497,27.4251257 1383.30209,26.3639384 1382.78125,25.1464844 C1382.26041,23.9290304 1382,22.6302152 1382,21.25 C1382,19.8697848 1382.26041,18.5709696 1382.78125,17.3535156 C1383.30209,16.1360616 1384.01497,15.0748743 1384.91992,14.1699219 C1385.82487,13.2649694 1386.88606,12.5520859 1388.10352,12.03125 C1389.32097,11.5104141 1390.61978,11.25 1392,11.25 Z M1392,30 C1393.21094,30 1394.347,29.7688825 1395.4082,29.3066406 C1396.46941,28.8443987 1397.39388,28.219405 1398.18164,27.4316406 C1398.9694,26.6438763 1399.5944,25.7194063 1400.05664,24.6582031 C1400.51888,23.5969999 1400.75,22.4609436 1400.75,21.25 C1400.75,20.0390564 1400.51888,18.9030001 1400.05664,17.8417969 C1399.5944,16.7805937 1398.9694,15.8561237 1398.18164,15.0683594 C1397.39388,14.280595 1396.46941,13.6556013 1395.4082,13.1933594 C1394.347,12.7311175 1393.21094,12.5 1392,12.5 C1390.78906,12.5 1389.653,12.7311175 1388.5918,13.1933594 C1387.53059,13.6556013 1386.60612,14.280595 1385.81836,15.0683594 C1385.0306,15.8561237 1384.4056,16.7805937 1383.94336,17.8417969 C1383.48112,18.9030001 1383.25,20.0390564 1383.25,21.25 C1383.25,22.4609436 1383.48112,23.5969999 1383.94336,24.6582031 C1384.4056,25.7194063 1385.0306,26.6438763 1385.81836,27.4316406 C1386.60612,28.219405 1387.53059,28.8443987 1388.5918,29.3066406 C1389.653,29.7688825 1390.78906,30 1392,30 Z M1388.875,20.625 C1388.52344,20.625 1388.22721,20.5013033 1387.98633,20.2539062 C1387.74544,20.0065092 1387.625,19.7135434 1387.625,19.375 C1387.625,19.0364566 1387.74544,18.7434908 1387.98633,18.4960938 C1388.22721,18.2486967 1388.52344,18.125 1388.875,18.125 C1389.21354,18.125 1389.50325,18.2486967 1389.74414,18.4960938 C1389.98503,18.7434908 1390.10547,19.0364566 1390.10547,19.375 C1390.10547,19.7135434 1389.98503,20.0065092 1389.74414,20.2539062 C1389.50325,20.5013033 1389.21354,20.625 1388.875,20.625 Z M1395.125,20.625 C1394.77344,20.625 1394.47721,20.5013033 1394.23633,20.2539062 C1393.99544,20.0065092 1393.875,19.7135434 1393.875,19.375 C1393.875,19.0364566 1393.99544,18.7434908 1394.23633,18.4960938 C1394.47721,18.2486967 1394.77344,18.125 1395.125,18.125 C1395.46354,18.125 1395.75325,18.2486967 1395.99414,18.4960938 C1396.23503,18.7434908 1396.35547,19.0364566 1396.35547,19.375 C1396.35547,19.7135434 1396.23503,20.0065092 1395.99414,20.2539062 C1395.75325,20.5013033 1395.46354,20.625 1395.125,20.625 Z" id="Emotsmile---simple-line-icons"></path>
            </g>
        </g>
    </g>
</svg>