<?xml version="1.0" encoding="UTF-8"?>
<svg width="20px" height="13px" viewBox="0 0 20 13" version="1.1" xmlns="http://www.w3.org/2000/svg" xmlns:xlink="http://www.w3.org/1999/xlink">
    <!-- Generator: Sketch 49.2 (51160) - http://www.bohemiancoding.com/sketch -->
    <title>List - simple-line-icons</title>
    <desc>Created with Sketch.</desc>
    <defs></defs>
    <g id="Screen" stroke="none" stroke-width="1" fill="none" fill-rule="evenodd">
        <g id="Profiles-List" transform="translate(-1400.000000, -30.000000)" fill="#000000">
            <g id="Header" transform="translate(18.000000, 15.000000)">
                <path d="M1383.875,20 C1384.04427,20 1384.19075,20.0618483 1384.31445,20.1855469 C1384.43815,20.3092454 1384.5,20.4557283 1384.5,20.625 L1384.5,21.875 C1384.5,22.0442717 1384.43815,22.1907546 1384.31445,22.3144531 C1384.19075,22.4381517 1384.04427,22.5 1383.875,22.5 L1382.625,22.5 C1382.45573,22.5 1382.30925,22.4381517 1382.18555,22.3144531 C1382.06185,22.1907546 1382,22.0442717 1382,21.875 L1382,20.625 C1382,20.4557283 1382.06185,20.3092454 1382.18555,20.1855469 C1382.30925,20.0618483 1382.45573,20 1382.625,20 L1383.875,20 Z M1401.375,20.625 C1401.54427,20.625 1401.69075,20.6868483 1401.81445,20.8105469 C1401.93815,20.9342454 1402,21.0807283 1402,21.25 C1402,21.4192717 1401.93815,21.5657546 1401.81445,21.6894531 C1401.69075,21.8131517 1401.54427,21.875 1401.375,21.875 L1388.25,21.875 C1388.08073,21.875 1387.93425,21.8131517 1387.81055,21.6894531 C1387.68685,21.5657546 1387.625,21.4192717 1387.625,21.25 C1387.625,21.0807283 1387.68685,20.9342454 1387.81055,20.8105469 C1387.93425,20.6868483 1388.08073,20.625 1388.25,20.625 L1401.375,20.625 Z M1383.875,25 C1384.04427,25 1384.19075,25.0618483 1384.31445,25.1855469 C1384.43815,25.3092454 1384.5,25.4557283 1384.5,25.625 L1384.5,26.875 C1384.5,27.0442717 1384.43815,27.1907546 1384.31445,27.3144531 C1384.19075,27.4381517 1384.04427,27.5 1383.875,27.5 L1382.625,27.5 C1382.45573,27.5 1382.30925,27.4381517 1382.18555,27.3144531 C1382.06185,27.1907546 1382,27.0442717 1382,26.875 L1382,25.625 C1382,25.4557283 1382.06185,25.3092454 1382.18555,25.1855469 C1382.30925,25.0618483 1382.45573,25 1382.625,25 L1383.875,25 Z M1401.375,25.625 C1401.54427,25.625 1401.69075,25.6868483 1401.81445,25.8105469 C1401.93815,25.9342454 1402,26.0807283 1402,26.25 C1402,26.4192717 1401.93815,26.5657546 1401.81445,26.6894531 C1401.69075,26.8131517 1401.54427,26.875 1401.375,26.875 L1388.25,26.875 C1388.08073,26.875 1387.93425,26.8131517 1387.81055,26.6894531 C1387.68685,26.5657546 1387.625,26.4192717 1387.625,26.25 C1387.625,26.0807283 1387.68685,25.9342454 1387.81055,25.8105469 C1387.93425,25.6868483 1388.08073,25.625 1388.25,25.625 L1401.375,25.625 Z M1383.875,15 C1384.04427,15 1384.19075,15.0618483 1384.31445,15.1855469 C1384.43815,15.3092454 1384.5,15.4557283 1384.5,15.625 L1384.5,16.875 C1384.5,17.0442717 1384.43815,17.1907546 1384.31445,17.3144531 C1384.19075,17.4381517 1384.04427,17.5 1383.875,17.5 L1382.625,17.5 C1382.45573,17.5 1382.30925,17.4381517 1382.18555,17.3144531 C1382.06185,17.1907546 1382,17.0442717 1382,16.875 L1382,15.625 C1382,15.4557283 1382.06185,15.3092454 1382.18555,15.1855469 C1382.30925,15.0618483 1382.45573,15 1382.625,15 L1383.875,15 Z M1388.25,16.875 C1388.08073,16.875 1387.93425,16.8131517 1387.81055,16.6894531 C1387.68685,16.5657546 1387.625,16.4192717 1387.625,16.25 C1387.625,16.0807283 1387.68685,15.9342454 1387.81055,15.8105469 C1387.93425,15.6868483 1388.08073,15.625 1388.25,15.625 L1401.375,15.625 C1401.54427,15.625 1401.69075,15.6868483 1401.81445,15.8105469 C1401.93815,15.9342454 1402,16.0807283 1402,16.25 C1402,16.4192717 1401.93815,16.5657546 1401.81445,16.6894531 C1401.69075,16.8131517 1401.54427,16.875 1401.375,16.875 L1388.25,16.875 Z" id="List---simple-line-icons"></path>
            </g>
        </g>
    </g>
</svg>