<?xml version="1.0" encoding="UTF-8"?>
<svg width="21px" height="21px" viewBox="0 0 21 21" version="1.1" xmlns="http://www.w3.org/2000/svg" xmlns:xlink="http://www.w3.org/1999/xlink">
    <!-- Generator: Sketch 49.2 (51160) - http://www.bohemiancoding.com/sketch -->
    <title>Note - simple-line-icons</title>
    <desc>Created with Sketch.</desc>
    <defs></defs>
    <g id="Screen" stroke="none" stroke-width="1" fill="none" fill-rule="evenodd">
        <g id="Profiles-List" transform="translate(-1399.000000, -26.000000)" fill="#000000">
            <g id="Header" transform="translate(18.000000, 15.000000)">
                <path d="M1397.60547,30 L1397.60547,22.0507812 L1398.85547,20.859375 L1398.85547,30 C1398.85547,30.3515643 1398.73503,30.6477853 1398.49414,30.8886719 C1398.25325,31.1295585 1397.95703,31.25 1397.60547,31.25 L1383.23047,31.25 C1382.89193,31.25 1382.59896,31.1295585 1382.35156,30.8886719 C1382.10417,30.6477853 1381.98047,30.3515643 1381.98047,30 L1381.98047,14.375 C1381.98047,14.0364566 1382.10417,13.7434908 1382.35156,13.4960938 C1382.59896,13.2486967 1382.89193,13.125 1383.23047,13.125 L1393.25,13.125 L1393.28906,13.1640625 L1392.01953,14.375 L1383.23047,14.375 L1383.23047,30 L1397.60547,30 Z M1401.02344,12.0507812 C1401.34896,12.3632828 1401.5931,12.68229 1401.75586,13.0078125 C1401.91862,13.333335 1402.00651,13.6718732 1402.01953,14.0234375 C1402.01953,14.3619809 1401.94141,14.7005191 1401.78516,15.0390625 C1401.62891,15.3776059 1401.38802,15.7161441 1401.0625,16.0546875 C1400.91927,16.2109383 1400.40495,16.7252561 1399.51953,17.5976562 C1398.63411,18.4700564 1397.6836,19.4042919 1396.66797,20.4003906 C1395.65234,21.3964894 1394.7181,22.3177041 1393.86523,23.1640625 C1393.01237,24.0104209 1392.54037,24.4791662 1392.44922,24.5703125 C1392.41016,24.5963543 1392.37435,24.6223957 1392.3418,24.6484375 C1392.30924,24.6744793 1392.27344,24.6940104 1392.23438,24.7070312 C1392.07812,24.7460939 1391.75912,24.8437492 1391.27734,25 C1390.79557,25.1562508 1390.29427,25.3157544 1389.77344,25.4785156 C1389.2526,25.6412769 1388.79037,25.7910149 1388.38672,25.9277344 C1387.98307,26.0644538 1387.77474,26.1328125 1387.76172,26.1328125 C1387.73568,26.1328125 1387.70964,26.1360677 1387.68359,26.1425781 C1387.65755,26.1490886 1387.63151,26.1523438 1387.60547,26.1523438 C1387.54036,26.1523438 1387.47526,26.139323 1387.41016,26.1132812 C1387.34505,26.0872395 1387.28646,26.0481773 1387.23438,25.9960938 C1387.16927,25.9309893 1387.1237,25.8496099 1387.09766,25.7519531 C1387.07161,25.6542964 1387.07161,25.5598963 1387.09766,25.46875 C1387.09766,25.4557291 1387.1595,25.250653 1387.2832,24.8535156 C1387.4069,24.4563782 1387.54687,24.0006536 1387.70312,23.4863281 C1387.85938,22.9720026 1388.00911,22.4674504 1388.15234,21.9726562 C1388.29557,21.4778621 1388.39974,21.1263031 1388.46484,20.9179688 C1388.47786,20.8789061 1388.49414,20.8398439 1388.51367,20.8007812 C1388.5332,20.7617186 1388.5625,20.7226564 1388.60156,20.6835938 L1389.90039,19.3847656 C1390.76628,18.5188759 1391.72656,17.5618542 1392.78125,16.5136719 C1393.83594,15.4654896 1394.8125,14.4889368 1395.71094,13.5839844 C1396.60938,12.6790319 1397.09766,12.1940107 1397.17578,12.1289062 C1397.27995,12.0247391 1397.51107,11.8522147 1397.86914,11.6113281 C1398.22722,11.3704415 1398.66015,11.25 1399.16797,11.25 C1399.50651,11.25 1399.83203,11.3183587 1400.14453,11.4550781 C1400.45703,11.5917976 1400.75,11.7903633 1401.02344,12.0507812 Z M1400.16406,15.1757812 C1400.3724,14.9674469 1400.52539,14.7688812 1400.62305,14.5800781 C1400.7207,14.3912751 1400.76953,14.2122404 1400.76953,14.0429688 C1400.75651,13.8736971 1400.70117,13.6979176 1400.60352,13.515625 C1400.50586,13.3333324 1400.35938,13.1510426 1400.16406,12.96875 C1399.99479,12.8124992 1399.82878,12.6953129 1399.66602,12.6171875 C1399.50325,12.5390621 1399.33724,12.5 1399.16797,12.5 C1398.88151,12.5 1398.63086,12.5781242 1398.41602,12.734375 C1398.20117,12.8906258 1398.08073,12.9817707 1398.05469,13.0078125 L1394.13867,16.9238281 C1393.16861,17.8938851 1392.23763,18.8216102 1391.3457,19.7070312 C1390.45377,20.5924523 1389.87761,21.1653633 1389.61719,21.4257812 C1389.52604,21.7513037 1389.39258,22.2102835 1389.2168,22.8027344 C1389.04101,23.3951853 1388.86849,23.964841 1388.69922,24.5117188 C1389.22005,24.3424471 1389.77669,24.1634124 1390.36914,23.9746094 C1390.96159,23.7858063 1391.40104,23.6458338 1391.6875,23.5546875 L1392.07812,23.1835938 C1393.32813,21.9466084 1394.43815,20.8496142 1395.4082,19.8925781 C1396.37826,18.9355421 1397.20182,18.1217481 1397.87891,17.4511719 C1398.55599,16.7805956 1399.08659,16.2565123 1399.4707,15.8789062 C1399.85482,15.5013002 1400.08594,15.2669275 1400.16406,15.1757812 Z" id="Note---simple-line-icons"></path>
            </g>
        </g>
    </g>
</svg>