<?xml version="1.0" encoding="UTF-8"?>
<svg width="20px" height="18px" viewBox="0 0 20 18" version="1.1" xmlns="http://www.w3.org/2000/svg" xmlns:xlink="http://www.w3.org/1999/xlink">
    <!-- Generator: Sketch 49.2 (51160) - http://www.bohemiancoding.com/sketch -->
    <title>Picture - simple-line-icons</title>
    <desc>Created with Sketch.</desc>
    <defs></defs>
    <g id="Screen" stroke="none" stroke-width="1" fill="none" fill-rule="evenodd">
        <g id="Profiles-List" transform="translate(-1400.000000, -27.000000)" fill="#000000">
            <g id="Header" transform="translate(18.000000, 15.000000)">
                <path d="M1400.75,12.8125 C1401.08854,12.8125 1401.38151,12.9361967 1401.62891,13.1835938 C1401.8763,13.4309908 1402,13.7239566 1402,14.0625 L1402,28.4375 C1402,28.7760434 1401.8763,29.0690092 1401.62891,29.3164062 C1401.38151,29.5638033 1401.08854,29.6875 1400.75,29.6875 L1383.25,29.6875 C1382.91146,29.6875 1382.61849,29.5638033 1382.37109,29.3164062 C1382.1237,29.0690092 1382,28.7760434 1382,28.4375 L1382,14.0625 C1382,13.7239566 1382.1237,13.4309908 1382.37109,13.1835938 C1382.61849,12.9361967 1382.91146,12.8125 1383.25,12.8125 L1400.75,12.8125 Z M1400.75,28.4375 L1400.75,27.2851562 L1400.7207,27.2558594 C1400.71419,27.2493489 1400.70443,27.2460938 1400.69141,27.2460938 L1396.58984,23.0078125 L1394.30469,25.078125 C1394.16146,25.1822922 1394.00846,25.2376302 1393.8457,25.2441406 C1393.68294,25.2506511 1393.54948,25.1888027 1393.44531,25.0585938 L1388.26953,19.9023438 L1383.25,24.765625 L1383.25,28.4375 L1400.75,28.4375 Z M1400.75,25.5078125 L1400.75,14.0625 L1383.25,14.0625 L1383.25,23.0078125 L1387.82031,18.5742188 C1387.88542,18.5091143 1387.95703,18.4635418 1388.03516,18.4375 C1388.11328,18.4114582 1388.19792,18.3984375 1388.28906,18.3984375 C1388.36719,18.3984375 1388.44531,18.4179686 1388.52344,18.4570312 C1388.60156,18.4960939 1388.67318,18.5546871 1388.73828,18.6328125 L1393.89453,23.75 L1396.25781,21.6992188 C1396.38802,21.5950516 1396.52799,21.5494791 1396.67773,21.5625 C1396.82747,21.5755209 1396.96094,21.6341141 1397.07812,21.7382812 L1400.75,25.5078125 Z M1396.375,19.0625 C1396.03646,19.0625 1395.74349,18.9420585 1395.49609,18.7011719 C1395.2487,18.4602853 1395.125,18.1640643 1395.125,17.8125 C1395.125,17.4739566 1395.2487,17.1809908 1395.49609,16.9335938 C1395.74349,16.6861967 1396.03646,16.5625 1396.375,16.5625 C1396.71354,16.5625 1397.00651,16.6861967 1397.25391,16.9335938 C1397.5013,17.1809908 1397.625,17.4739566 1397.625,17.8125 C1397.625,18.1640643 1397.5013,18.4602853 1397.25391,18.7011719 C1397.00651,18.9420585 1396.71354,19.0625 1396.375,19.0625 Z" id="Picture---simple-line-icons"></path>
            </g>
        </g>
    </g>
</svg>