<?xml version="1.0" encoding="UTF-8"?>
<svg width="20px" height="19px" viewBox="0 0 20 19" version="1.1" xmlns="http://www.w3.org/2000/svg" xmlns:xlink="http://www.w3.org/1999/xlink">
    <!-- Generator: Sketch 49.2 (51160) - http://www.bohemiancoding.com/sketch -->
    <title>Bubbles - simple-line-icons</title>
    <desc>Created with Sketch.</desc>
    <defs></defs>
    <g id="Screen" stroke="none" stroke-width="1" fill="none" fill-rule="evenodd">
        <g id="Profiles-List" transform="translate(-1400.000000, -27.000000)" fill="#000000">
            <g id="Header" transform="translate(18.000000, 15.000000)">
                <path d="M1390.30078,24.5117188 L1389.87109,24.5117188 C1389.72786,24.5117188 1389.58789,24.5084636 1389.45117,24.5019531 C1389.31445,24.4954427 1389.15495,24.4791668 1388.97266,24.453125 C1388.88151,24.5572922 1388.68294,24.7330717 1388.37695,24.9804688 C1388.07096,25.2278658 1387.70964,25.4882799 1387.29297,25.7617188 C1386.8763,26.0351576 1386.43685,26.282551 1385.97461,26.5039062 C1385.51237,26.7252615 1385.07943,26.8684893 1384.67578,26.9335938 L1384.65625,26.9335938 L1384.61719,26.9433594 C1384.59115,26.9498698 1384.5651,26.953125 1384.53906,26.953125 C1384.40885,26.953125 1384.30143,26.9075525 1384.2168,26.8164062 C1384.13216,26.72526 1384.08984,26.614584 1384.08984,26.484375 C1384.08984,26.4453123 1384.0931,26.4127605 1384.09961,26.3867188 C1384.10612,26.360677 1384.11589,26.3346355 1384.12891,26.3085938 L1384.10938,26.3085938 C1384.26563,26.0481758 1384.48372,25.6477892 1384.76367,25.1074219 C1385.04362,24.5670546 1385.18359,24.0690127 1385.18359,23.6132812 L1385.18359,23.5742188 C1384.64974,23.3007799 1384.18099,22.9622416 1383.77734,22.5585938 C1383.3737,22.1549459 1383.04167,21.712242 1382.78125,21.2304688 C1382.52083,20.7486955 1382.32552,20.2408881 1382.19531,19.7070312 C1382.0651,19.1731744 1382,18.6458359 1382,18.125 C1382,17.2786416 1382.21159,16.4843787 1382.63477,15.7421875 C1383.05794,14.9999963 1383.64062,14.3554715 1384.38281,13.8085938 C1385.125,13.261716 1385.99088,12.8287776 1386.98047,12.5097656 C1387.97006,12.1907536 1389.03124,12.03125 1390.16406,12.03125 C1391.28386,12.03125 1392.33528,12.1907536 1393.31836,12.5097656 C1394.30144,12.8287776 1395.15755,13.261716 1395.88672,13.8085938 C1396.61589,14.3554715 1397.19206,14.9999963 1397.61523,15.7421875 C1398.03841,16.4843787 1398.25,17.2786416 1398.25,18.125 C1398.26302,19.0755256 1398.06771,19.9446575 1397.66406,20.7324219 C1397.26041,21.5201862 1396.70052,22.1940076 1395.98438,22.7539062 C1395.26823,23.3138049 1394.42188,23.7467433 1393.44531,24.0527344 C1392.46875,24.3587255 1391.42058,24.5117188 1390.30078,24.5117188 Z M1388.46484,23.1640625 L1389.14844,23.2226562 C1389.44792,23.2617189 1389.72135,23.28125 1389.96875,23.28125 L1390.33984,23.28125 C1391.29037,23.28125 1392.17252,23.1542981 1392.98633,22.9003906 C1393.80013,22.6464831 1394.50325,22.2884138 1395.0957,21.8261719 C1395.68815,21.36393 1396.15364,20.8170604 1396.49219,20.1855469 C1396.83073,19.5540333 1397,18.8671912 1397,18.125 C1397,17.4479133 1396.82097,16.8164092 1396.46289,16.2304688 C1396.10482,15.6445283 1395.61979,15.1334657 1395.00781,14.6972656 C1394.39583,14.2610655 1393.67318,13.9160169 1392.83984,13.6621094 C1392.00651,13.4082019 1391.11459,13.28125 1390.16406,13.28125 C1389.21354,13.28125 1388.31836,13.4082019 1387.47852,13.6621094 C1386.63867,13.9160169 1385.903,14.2610655 1385.27148,14.6972656 C1384.63997,15.1334657 1384.14518,15.6445283 1383.78711,16.2304688 C1383.42903,16.8164092 1383.25,17.4479133 1383.25,18.125 C1383.25,18.9322957 1383.45182,19.7460896 1383.85547,20.5664062 C1384.25912,21.3867229 1384.89062,22.018227 1385.75,22.4609375 L1386.43359,22.8125 L1386.375,23.5742188 L1386.33594,23.9160156 C1386.3099,24.1438813 1386.1862,24.5572887 1385.96484,25.15625 C1386.31641,24.9479156 1386.66471,24.7037774 1387.00977,24.4238281 C1387.35482,24.1438788 1387.57292,23.9453131 1387.66406,23.828125 L1388.46484,23.1640625 Z M1402,23.1640625 C1402,24.0755254 1401.77865,24.8795538 1401.33594,25.5761719 C1400.89323,26.2727899 1400.20964,26.8554664 1399.28516,27.3242188 L1399.28516,27.3632812 C1399.28516,27.7669291 1399.36328,28.2356744 1399.51953,28.7695312 C1399.67578,29.3033881 1399.81901,29.6809885 1399.94922,29.9023438 C1399.96224,29.9283855 1399.97201,29.954427 1399.97852,29.9804688 C1399.98503,30.0065105 1399.98828,30.032552 1399.98828,30.0585938 C1399.98828,30.1757818 1399.94922,30.2734371 1399.87109,30.3515625 C1399.79297,30.4296879 1399.69531,30.46875 1399.57812,30.46875 L1399.46094,30.46875 C1398.77083,30.3515619 1398.07422,30.0000029 1397.37109,29.4140625 C1396.66797,28.8281221 1396.24479,28.4440113 1396.10156,28.2617188 C1395.94531,28.2747396 1395.80859,28.2845052 1395.69141,28.2910156 C1395.57422,28.2975261 1395.45052,28.3007812 1395.32031,28.3007812 L1394.94922,28.3007812 C1394.31119,28.3007812 1393.70899,28.2454433 1393.14258,28.1347656 C1392.57617,28.024088 1392.04558,27.8613292 1391.55078,27.6464844 C1391.05599,27.4316396 1390.60677,27.1712255 1390.20312,26.8652344 C1389.79948,26.5592433 1389.44141,26.2174498 1389.12891,25.8398438 C1389.15495,25.813802 1389.49674,25.8007812 1390.1543,25.8007812 C1390.81185,25.8007812 1391.06901,25.8072916 1390.92578,25.8203125 C1391.45964,26.2369812 1392.05208,26.5462229 1392.70312,26.7480469 C1393.35417,26.9498708 1394.10286,27.0507812 1394.94922,27.0507812 L1395.33008,27.0507812 C1395.58399,27.0507812 1395.77604,27.0377605 1395.90625,27.0117188 L1396.57031,26.9140625 L1396.93164,27.4023438 C1397.17253,27.7278662 1397.59896,28.111977 1398.21094,28.5546875 C1398.15885,28.359374 1398.11979,27.9752633 1398.09375,27.4023438 L1398.05469,26.5429688 L1398.66016,26.25 C1399.40235,25.8723939 1399.9362,25.4329452 1400.26172,24.9316406 C1400.58724,24.430336 1400.75,23.8411492 1400.75,23.1640625 C1400.75,22.6171848 1400.6556,22.1419291 1400.4668,21.7382812 C1400.27799,21.3346334 1399.91667,20.9440123 1399.38281,20.5664062 C1399.44792,20.3580719 1399.50977,20.1367199 1399.56836,19.9023438 C1399.62695,19.6679676 1399.66927,19.4401053 1399.69531,19.21875 C1400.51563,19.7005232 1401.10482,20.2669238 1401.46289,20.9179688 C1401.82097,21.5690137 1402,22.3177041 1402,23.1640625 Z" id="Bubbles---simple-line-icons"></path>
            </g>
        </g>
    </g>
</svg>