<?xml version="1.0" encoding="UTF-8"?>
<svg width="18px" height="21px" viewBox="0 0 18 21" version="1.1" xmlns="http://www.w3.org/2000/svg" xmlns:xlink="http://www.w3.org/1999/xlink">
    <!-- Generator: Sketch 49.2 (51160) - http://www.bohemiancoding.com/sketch -->
    <title>Bag - simple-line-icons</title>
    <desc>Created with Sketch.</desc>
    <defs></defs>
    <g id="Screen" stroke="none" stroke-width="1" fill="none" fill-rule="evenodd">
        <g id="Profile-view" transform="translate(-33.000000, -117.000000)" fill="#000000">
            <g id="main-nav">
                <path d="M48.875,120.355469 C49.2265643,120.355469 49.5227853,120.47591 49.7636719,120.716797 C50.0045585,120.957683 50.125,121.253904 50.125,121.605469 L50.125,135.980469 C50.125,136.319012 50.0045585,136.611978 49.7636719,136.859375 C49.5227853,137.106772 49.2265643,137.230469 48.875,137.230469 L35.125,137.230469 C34.7734357,137.230469 34.4772147,137.106772 34.2363281,136.859375 C33.9954415,136.611978 33.875,136.319012 33.875,135.980469 L33.875,121.605469 C33.875,121.253904 33.9954415,120.957683 34.2363281,120.716797 C34.4772147,120.47591 34.7734357,120.355469 35.125,120.355469 L38.8945312,120.355469 L38.8945312,119.144531 C38.8945312,118.636716 39.0768211,118.197267 39.4414062,117.826172 C39.8059914,117.455076 40.2486953,117.269531 40.7695312,117.269531 L43.2695312,117.269531 C43.7903672,117.269531 44.2330711,117.455076 44.5976562,117.826172 C44.9622414,118.197267 45.1445312,118.636716 45.1445312,119.144531 L45.1445312,120.355469 L48.875,120.355469 Z M40.1445312,119.144531 L40.1445312,120.355469 L43.8945312,120.355469 L43.8945312,119.144531 C43.8945312,118.97526 43.8326829,118.828777 43.7089844,118.705078 C43.5852858,118.58138 43.4388029,118.519531 43.2695312,118.519531 L40.7695312,118.519531 C40.6002596,118.519531 40.4537767,118.58138 40.3300781,118.705078 C40.2063796,118.828777 40.1445312,118.97526 40.1445312,119.144531 Z M48.875,135.980469 L48.875,121.605469 L45.1445312,121.605469 L45.1445312,122.894531 L45.0664062,123.207031 C45.0143227,123.415366 44.8320328,123.519531 44.5195312,123.519531 C44.1809879,123.519531 43.9921877,123.415366 43.953125,123.207031 L43.8945312,122.894531 L43.8945312,121.605469 L40.1445312,121.605469 L40.1445312,122.894531 L40.0957031,123.207031 C40.0631509,123.415366 39.8710955,123.519531 39.5195312,123.519531 C39.1940088,123.519531 39.0084638,123.415366 38.9628906,123.207031 L38.8945312,122.894531 L38.8945312,121.605469 L35.125,121.605469 L35.125,135.980469 L48.875,135.980469 Z" id="Bag---simple-line-icons"></path>
            </g>
        </g>
    </g>
</svg>