<?xml version="1.0" encoding="UTF-8"?>
<svg width="21px" height="19px" viewBox="0 0 21 19" version="1.1" xmlns="http://www.w3.org/2000/svg" xmlns:xlink="http://www.w3.org/1999/xlink">
    <!-- Generator: Sketch 49.2 (51160) - http://www.bohemiancoding.com/sketch -->
    <title>Heart - simple-line-icons</title>
    <desc>Created with Sketch.</desc>
    <defs></defs>
    <g id="Screen" stroke="none" stroke-width="1" fill="none" fill-rule="evenodd">
        <g id="Profiles-List" transform="translate(-1400.000000, -27.000000)" fill="#000000">
            <g id="Header" transform="translate(18.000000, 15.000000)">
                <path d="M1387.625,13.4765625 C1387.02604,13.4765625 1386.47917,13.5677074 1385.98438,13.75 C1385.48958,13.9322926 1385.02735,14.2317688 1384.59766,14.6484375 C1384.16797,15.091148 1383.83594,15.5924451 1383.60156,16.1523438 C1383.36719,16.7122424 1383.25,17.298174 1383.25,17.9101562 C1383.25,18.5221385 1383.36719,19.1080701 1383.60156,19.6679688 C1383.83594,20.2278674 1384.16797,20.7226541 1384.59766,21.1523438 C1384.75391,21.3085945 1385.17382,21.761064 1385.85742,22.5097656 C1386.54102,23.2584673 1387.27669,24.0657509 1388.06445,24.9316406 C1388.85222,25.7975304 1389.59114,26.6178347 1390.28125,27.3925781 C1390.97136,28.1673216 1391.41406,28.6588531 1391.60938,28.8671875 C1391.6875,28.932292 1391.76237,28.9746093 1391.83398,28.9941406 C1391.9056,29.013672 1391.96745,29.0234375 1392.01953,29.0234375 C1392.05859,29.0234375 1392.11719,29.013672 1392.19531,28.9941406 C1392.27344,28.9746093 1392.35156,28.932292 1392.42969,28.8671875 C1393.21094,28.0078082 1394.01497,27.1354211 1394.8418,26.25 C1395.66862,25.3645789 1396.41731,24.5572953 1397.08789,23.828125 C1397.75847,23.0989547 1398.31185,22.5000023 1398.74805,22.03125 C1399.18425,21.5624977 1399.41536,21.3216146 1399.44141,21.3085938 C1399.8711,20.8658832 1400.20312,20.3645861 1400.4375,19.8046875 C1400.67188,19.2447889 1400.78906,18.6588572 1400.78906,18.046875 C1400.78906,17.4348928 1400.67188,16.8489611 1400.4375,16.2890625 C1400.20312,15.7291639 1399.8711,15.2343771 1399.44141,14.8046875 C1398.98567,14.3489561 1398.51042,14.0136729 1398.01562,13.7988281 C1397.52083,13.5839833 1396.97396,13.4765625 1396.375,13.4765625 C1395.93229,13.4765625 1395.4017,13.6588523 1394.7832,14.0234375 C1394.16471,14.3880227 1393.54297,14.8893197 1392.91797,15.5273438 L1392.03906,16.4257812 L1391.14062,15.546875 C1390.24218,14.6614539 1389.50977,14.0950533 1388.94336,13.8476562 C1388.37695,13.6002592 1387.9375,13.4765625 1387.625,13.4765625 Z M1387.625,12.2265625 C1388.39323,12.2265625 1389.1582,12.4739559 1389.91992,12.96875 C1390.68164,13.4635441 1391.38151,14.0234344 1392.01953,14.6484375 C1392.63151,14.0234344 1393.32487,13.4635441 1394.09961,12.96875 C1394.87435,12.4739559 1395.63281,12.2265625 1396.375,12.2265625 C1397.14323,12.2265625 1397.85286,12.3665351 1398.50391,12.6464844 C1399.15495,12.9264337 1399.76041,13.3528617 1400.32031,13.9257812 C1400.89323,14.4856799 1401.32292,15.1269495 1401.60938,15.8496094 C1401.89583,16.5722692 1402.03906,17.3046838 1402.03906,18.046875 C1402.03906,18.7890662 1401.89583,19.5214808 1401.60938,20.2441406 C1401.32292,20.9668005 1400.89323,21.6145805 1400.32031,22.1875 C1400.30729,22.2005209 1399.93295,22.6009075 1399.19727,23.3886719 C1398.46158,24.1764362 1397.66081,25.042313 1396.79492,25.9863281 C1395.92903,26.9303433 1395.13477,27.7897097 1394.41211,28.5644531 L1393.32812,29.7265625 C1393.14583,29.9088551 1392.94076,30.0455725 1392.71289,30.1367188 C1392.48502,30.227865 1392.25391,30.2734375 1392.01953,30.2734375 C1391.77213,30.2734375 1391.53776,30.227865 1391.31641,30.1367188 C1391.09505,30.0455725 1390.89323,29.9088551 1390.71094,29.7265625 L1389.70508,28.6230469 C1389.0345,27.8873661 1388.28256,27.0572963 1387.44922,26.1328125 C1386.61588,25.2083287 1385.82487,24.3359416 1385.07617,23.515625 C1384.32747,22.6953084 1383.875,22.2005217 1383.71875,22.03125 C1383.14583,21.4583305 1382.71615,20.8138057 1382.42969,20.0976562 C1382.14323,19.3815068 1382,18.6490923 1382,17.9003906 C1382,17.151689 1382.14323,16.4192744 1382.42969,15.703125 C1382.71615,14.9869756 1383.14583,14.3424508 1383.71875,13.7695312 C1384.26563,13.2226535 1384.86784,12.8287772 1385.52539,12.5878906 C1386.18295,12.347004 1386.88281,12.2265625 1387.625,12.2265625 Z" id="Heart---simple-line-icons"></path>
            </g>
        </g>
    </g>
</svg>