<?xml version="1.0" encoding="UTF-8"?>
<svg width="16px" height="21px" viewBox="0 0 16 21" version="1.1" xmlns="http://www.w3.org/2000/svg" xmlns:xlink="http://www.w3.org/1999/xlink">
    <!-- Generator: Sketch 49.2 (51160) - http://www.bohemiancoding.com/sketch -->
    <title>Location-pin - simple-line-icons</title>
    <desc>Created with Sketch.</desc>
    <defs></defs>
    <g id="Screen" stroke="none" stroke-width="1" fill="none" fill-rule="evenodd">
        <g id="Profiles-List" transform="translate(-1402.000000, -26.000000)" fill="#000000">
            <g id="Header" transform="translate(18.000000, 15.000000)">
                <path d="M1392.07812,11.25 C1393.25001,11.25 1394.29817,11.4518209 1395.22266,11.8554688 C1396.14714,12.2591166 1396.92513,12.8092413 1397.55664,13.5058594 C1398.18815,14.2024774 1398.66992,15.0130162 1399.00195,15.9375 C1399.33399,16.8619838 1399.5,17.8385365 1399.5,18.8671875 C1399.5,19.9088594 1399.29492,20.9733019 1398.88477,22.0605469 C1398.47461,23.1477919 1397.95703,24.2154896 1397.33203,25.2636719 C1396.70703,26.3118542 1396.02995,27.3046828 1395.30078,28.2421875 C1394.57161,29.1796922 1393.88802,30.0130172 1393.25,30.7421875 C1393.25,30.7552084 1393.15234,30.8430981 1392.95703,31.0058594 C1392.76172,31.1686206 1392.53386,31.25 1392.27344,31.25 L1392.21484,31.25 C1391.9414,31.25 1391.71029,31.1686206 1391.52148,31.0058594 C1391.33268,30.8430981 1391.23828,30.7552084 1391.23828,30.7421875 C1390.56119,29.9609336 1389.82878,29.1080775 1389.04102,28.1835938 C1388.25325,27.25911 1387.52409,26.2858124 1386.85352,25.2636719 C1386.18294,24.2415313 1385.62305,23.1901096 1385.17383,22.109375 C1384.72461,21.0286404 1384.5,19.9479221 1384.5,18.8671875 C1384.5,17.8385365 1384.70182,16.8619838 1385.10547,15.9375 C1385.50912,15.0130162 1386.05599,14.2024774 1386.74609,13.5058594 C1387.4362,12.8092413 1388.24023,12.2591166 1389.1582,11.8554688 C1390.07618,11.4518209 1391.04947,11.25 1392.07812,11.25 Z M1392.3125,29.9023438 C1393.30209,28.7695256 1394.16797,27.6888072 1394.91016,26.6601562 C1395.65235,25.6315053 1396.27083,24.6582077 1396.76562,23.7402344 C1397.26042,22.822261 1397.63151,21.9563843 1397.87891,21.1425781 C1398.1263,20.328772 1398.25,19.570316 1398.25,18.8671875 C1398.25,18.0729127 1398.12956,17.2949257 1397.88867,16.5332031 C1397.64779,15.7714806 1397.27344,15.0911488 1396.76562,14.4921875 C1396.25781,13.8932262 1395.61654,13.4114602 1394.8418,13.046875 C1394.06705,12.6822898 1393.14584,12.5 1392.07812,12.5 C1391.21875,12.5 1390.40495,12.6692691 1389.63672,13.0078125 C1388.86849,13.3463559 1388.19792,13.8053356 1387.625,14.3847656 C1387.05208,14.9641956 1386.59636,15.6412722 1386.25781,16.4160156 C1385.91927,17.1907591 1385.75,18.0078082 1385.75,18.8671875 C1385.75,19.7916713 1385.94531,20.7291619 1386.33594,21.6796875 C1386.72656,22.6302131 1387.22135,23.5644485 1387.82031,24.4824219 C1388.41927,25.4003952 1389.07682,26.285803 1389.79297,27.1386719 C1390.50912,27.9915407 1391.18619,28.7890588 1391.82422,29.53125 L1392.15625,29.9023438 L1392.23438,29.9804688 C1392.2474,29.9674479 1392.26367,29.9544271 1392.2832,29.9414062 C1392.30273,29.9283854 1392.3125,29.9153646 1392.3125,29.9023438 Z M1392.01953,15.0195312 C1393.0612,15.0195312 1393.94661,15.3873661 1394.67578,16.1230469 C1395.40495,16.8587276 1395.76953,17.7408803 1395.76953,18.7695312 C1395.76953,19.8112031 1395.40495,20.6966109 1394.67578,21.4257812 C1393.94661,22.1549516 1393.0612,22.5195312 1392.01953,22.5195312 C1390.99088,22.5195312 1390.10873,22.1549516 1389.37305,21.4257812 C1388.63737,20.6966109 1388.26953,19.8112031 1388.26953,18.7695312 C1388.26953,17.7408803 1388.63737,16.8587276 1389.37305,16.1230469 C1390.10873,15.3873661 1390.99088,15.0195312 1392.01953,15.0195312 Z M1392.01953,21.2695312 C1392.70964,21.2695312 1393.29557,21.0221379 1393.77734,20.5273438 C1394.25912,20.0325496 1394.5,19.4401076 1394.5,18.75 C1394.5,18.0598924 1394.25586,17.4707056 1393.76758,16.9824219 C1393.27929,16.4941382 1392.69011,16.25 1392,16.25 C1391.30989,16.25 1390.72071,16.4941382 1390.23242,16.9824219 C1389.74414,17.4707056 1389.5,18.0598924 1389.5,18.75 C1389.5,19.4401076 1389.74739,20.0325496 1390.24219,20.5273438 C1390.73698,21.0221379 1391.32942,21.2695312 1392.01953,21.2695312 Z" id="Location-pin---simple-line-icons"></path>
            </g>
        </g>
    </g>
</svg>