<?xml version="1.0" encoding="UTF-8"?>
<svg width="20px" height="21px" viewBox="0 0 20 21" version="1.1" xmlns="http://www.w3.org/2000/svg" xmlns:xlink="http://www.w3.org/1999/xlink">
    <!-- Generator: Sketch 49.2 (51160) - http://www.bohemiancoding.com/sketch -->
    <title>Grid - simple-line-icons</title>
    <desc>Created with Sketch.</desc>
    <defs></defs>
    <g id="Screen" stroke="none" stroke-width="1" fill="none" fill-rule="evenodd">
        <g id="Profiles-List" transform="translate(-1400.000000, -26.000000)" fill="#000000">
            <g id="Header" transform="translate(18.000000, 15.000000)">
                <path d="M1400.75,31.25 L1394.5,31.25 C1394.14844,31.25 1393.85221,31.1295585 1393.61133,30.8886719 C1393.37044,30.6477853 1393.25,30.3515643 1393.25,30 L1393.25,23.75 C1393.25,23.3984357 1393.37044,23.1022147 1393.61133,22.8613281 C1393.85221,22.6204415 1394.14844,22.5 1394.5,22.5 L1400.75,22.5 C1401.10156,22.5 1401.39779,22.6204415 1401.63867,22.8613281 C1401.87956,23.1022147 1402,23.3984357 1402,23.75 L1402,30 C1402,30.3515643 1401.87956,30.6477853 1401.63867,30.8886719 C1401.39779,31.1295585 1401.10156,31.25 1400.75,31.25 Z M1400.75,23.75 L1394.5,23.75 L1394.5,30 L1400.75,30 L1400.75,23.75 Z M1400.75,20 L1394.5,20 C1394.14844,20 1393.85221,19.8795585 1393.61133,19.6386719 C1393.37044,19.3977853 1393.25,19.1015643 1393.25,18.75 L1393.25,12.5 C1393.25,12.1484357 1393.37044,11.8522147 1393.61133,11.6113281 C1393.85221,11.3704415 1394.14844,11.25 1394.5,11.25 L1400.75,11.25 C1401.10156,11.25 1401.39779,11.3704415 1401.63867,11.6113281 C1401.87956,11.8522147 1402,12.1484357 1402,12.5 L1402,18.75 C1402,19.1015643 1401.87956,19.3977853 1401.63867,19.6386719 C1401.39779,19.8795585 1401.10156,20 1400.75,20 Z M1400.75,12.5 L1394.5,12.5 L1394.5,18.75 L1400.75,18.75 L1400.75,12.5 Z M1389.5,31.25 L1383.25,31.25 C1382.89844,31.25 1382.60221,31.1295585 1382.36133,30.8886719 C1382.12044,30.6477853 1382,30.3515643 1382,30 L1382,23.75 C1382,23.3984357 1382.12044,23.1022147 1382.36133,22.8613281 C1382.60221,22.6204415 1382.89844,22.5 1383.25,22.5 L1389.5,22.5 C1389.85156,22.5 1390.14779,22.6204415 1390.38867,22.8613281 C1390.62956,23.1022147 1390.75,23.3984357 1390.75,23.75 L1390.75,30 C1390.75,30.3515643 1390.62956,30.6477853 1390.38867,30.8886719 C1390.14779,31.1295585 1389.85156,31.25 1389.5,31.25 Z M1389.5,23.75 L1383.25,23.75 L1383.25,30 L1389.5,30 L1389.5,23.75 Z M1389.5,20 L1383.25,20 C1382.89844,20 1382.60221,19.8795585 1382.36133,19.6386719 C1382.12044,19.3977853 1382,19.1015643 1382,18.75 L1382,12.5 C1382,12.1484357 1382.12044,11.8522147 1382.36133,11.6113281 C1382.60221,11.3704415 1382.89844,11.25 1383.25,11.25 L1389.5,11.25 C1389.85156,11.25 1390.14779,11.3704415 1390.38867,11.6113281 C1390.62956,11.8522147 1390.75,12.1484357 1390.75,12.5 L1390.75,18.75 C1390.75,19.1015643 1390.62956,19.3977853 1390.38867,19.6386719 C1390.14779,19.8795585 1389.85156,20 1389.5,20 Z M1389.5,12.5 L1383.25,12.5 L1383.25,18.75 L1389.5,18.75 L1389.5,12.5 Z" id="Grid---simple-line-icons"></path>
            </g>
        </g>
    </g>
</svg>