<?xml version="1.0" encoding="UTF-8"?>
<svg width="20px" height="13px" viewBox="0 0 20 13" version="1.1" xmlns="http://www.w3.org/2000/svg" xmlns:xlink="http://www.w3.org/1999/xlink">
    <!-- Generator: Sketch 49.2 (51160) - http://www.bohemiancoding.com/sketch -->
    <title>Group</title>
    <desc>Created with Sketch.</desc>
    <defs></defs>
    <g id="Page-1" stroke="none" stroke-width="1" fill="none" fill-rule="evenodd">
        <g id="noun_1051899_cc" fill="#000000" fill-rule="nonzero">
            <g id="Group">
                <path d="M16.1428571,4.76190476 C15.7619048,4.76190476 15.4047619,4.80952381 15.047619,4.92857143 L13.1666667,1.04761905 C13.3571429,0.928571429 13.6190476,0.857142857 13.9047619,0.857142857 C14.4761905,0.857142857 14.952381,1.16666667 14.952381,1.54761905 C14.952381,1.61904762 14.9285714,1.69047619 14.9047619,1.76190476 C14.8095238,1.92857143 14.8809524,2.14285714 15.047619,2.23809524 C15.0952381,2.26190476 15.1666667,2.28571429 15.2142857,2.28571429 C15.3333333,2.28571429 15.4761905,2.21428571 15.5238095,2.0952381 C15.6190476,1.92857143 15.6428571,1.73809524 15.6428571,1.57142857 C15.6428571,0.785714286 14.8571429,0.166666667 13.8809524,0.166666667 C13.3333333,0.166666667 12.8095238,0.357142857 12.4761905,0.714285714 C12.4047619,0.785714286 12.3809524,0.904761905 12.3809524,1 C12.3571429,1.07142857 12.3809524,1.14285714 12.4047619,1.21428571 L13.2142857,2.9047619 C13.1428571,2.85714286 13.0714286,2.83333333 13,2.83333333 L7.02380952,2.83333333 L6.76190476,2.30952381 C6.66666667,2.14285714 6.45238095,2.04761905 6.28571429,2.14285714 C6.11904762,2.23809524 6.02380952,2.45238095 6.11904762,2.61904762 L6.45238095,3.33333333 L5.28571429,5.0952381 C4.83333333,4.9047619 4.35714286,4.80952381 3.83333333,4.80952381 C1.76190476,4.80952381 0.0952380952,6.47619048 0.0952380952,8.54761905 C0.0952380952,10.6190476 1.76190476,12.2857143 3.83333333,12.2857143 C5.71428571,12.2857143 7.28571429,10.8809524 7.52380952,9.07142857 L9.4047619,9.07142857 C9.52380952,9.07142857 9.64285714,9 9.71428571,8.9047619 L13.3571429,3.33333333 C13.3809524,3.28571429 13.4047619,3.21428571 13.4047619,3.16666667 L14.4047619,5.21428571 C13.2142857,5.83333333 12.4047619,7.0952381 12.4047619,8.52380952 C12.4047619,10.5952381 14.0714286,12.2619048 16.1428571,12.2619048 C18.2142857,12.2619048 19.8809524,10.5952381 19.8809524,8.52380952 C19.8809524,6.45238095 18.2142857,4.76190476 16.1428571,4.76190476 Z M6.83333333,4.04761905 L8.9047619,8.30952381 L7.5952381,8.30952381 C7.52380952,7.0952381 6.9047619,6.04761905 5.95238095,5.4047619 L6.83333333,4.04761905 Z M6.88095238,8.30952381 L4.04761905,8.30952381 L5.54761905,6 C6.30952381,6.52380952 6.80952381,7.35714286 6.88095238,8.30952381 Z M3.85714286,11.5238095 C2.19047619,11.5238095 0.833333333,10.1666667 0.833333333,8.5 C0.833333333,6.83333333 2.19047619,5.47619048 3.85714286,5.47619048 C4.23809524,5.47619048 4.5952381,5.54761905 4.9047619,5.66666667 L3.0952381,8.47619048 C3.02380952,8.5952381 3.02380952,8.71428571 3.07142857,8.83333333 C3.14285714,8.95238095 3.26190476,9.02380952 3.38095238,9.02380952 L6.83333333,9.02380952 C6.5952381,10.452381 5.35714286,11.5238095 3.85714286,11.5238095 Z M9.5,7.92857143 L7.35714286,3.52380952 L12.3809524,3.52380952 L9.5,7.92857143 Z M16.1428571,11.5238095 C14.4761905,11.5238095 13.1190476,10.1666667 13.1190476,8.5 C13.1190476,7.35714286 13.7619048,6.35714286 14.7142857,5.83333333 L16.0714286,8.64285714 C16.1428571,8.76190476 16.2619048,8.83333333 16.4047619,8.83333333 C16.452381,8.83333333 16.5,8.83333333 16.5714286,8.78571429 C16.7380952,8.69047619 16.8333333,8.47619048 16.7380952,8.30952381 L15.4047619,5.54761905 C15.6428571,5.47619048 15.9047619,5.45238095 16.1666667,5.45238095 C17.8333333,5.45238095 19.1904762,6.80952381 19.1904762,8.47619048 C19.1904762,10.1428571 17.8095238,11.5238095 16.1428571,11.5238095 Z" id="Shape"></path>
                <path d="M4.02380952,1.38095238 L7.23809524,1.38095238 C7.42857143,1.38095238 7.5952381,1.21428571 7.5952381,1.02380952 C7.5952381,0.833333333 7.42857143,0.666666667 7.23809524,0.666666667 L4.02380952,0.666666667 C3.83333333,0.666666667 3.66666667,0.833333333 3.66666667,1.02380952 C3.66666667,1.21428571 3.83333333,1.38095238 4.02380952,1.38095238 Z" id="Shape"></path>
            </g>
        </g>
    </g>
</svg>