<?xml version="1.0" encoding="UTF-8"?>
<svg width="20px" height="20px" viewBox="0 0 20 20" version="1.1" xmlns="http://www.w3.org/2000/svg" xmlns:xlink="http://www.w3.org/1999/xlink">
    <!-- Generator: Sketch 49.2 (51160) - http://www.bohemiancoding.com/sketch -->
    <title>Present - simple-line-icons</title>
    <desc>Created with Sketch.</desc>
    <defs></defs>
    <g id="Screen" stroke="none" stroke-width="1" fill="none" fill-rule="evenodd">
        <g id="Profiles-List" transform="translate(-1400.000000, -26.000000)" fill="#000000">
            <g id="Header" transform="translate(18.000000, 15.000000)">
                <path d="M1402,17.5 L1402,21.25 L1400.75,21.25 L1400.75,29.3945312 C1400.75,29.7330746 1400.62956,30.0260404 1400.38867,30.2734375 C1400.14779,30.5208346 1399.85156,30.6445312 1399.5,30.6445312 L1384.51953,30.6445312 C1384.16797,30.6445312 1383.87175,30.5208346 1383.63086,30.2734375 C1383.38997,30.0260404 1383.26953,29.7330746 1383.26953,29.3945312 L1383.26953,21.25 L1382,21.25 L1382,17.5195312 C1382,17.167967 1382.12044,16.871746 1382.36133,16.6308594 C1382.60221,16.3899728 1382.89844,16.2695312 1383.25,16.2695312 L1385.41797,16.2695312 C1385.13151,15.9960924 1384.9069,15.6803403 1384.74414,15.3222656 C1384.58138,14.9641909 1384.5,14.5638043 1384.5,14.1210938 C1384.5,13.574216 1384.67578,13.0598982 1385.02734,12.578125 C1385.37891,12.0963518 1385.99088,11.8554688 1386.86328,11.8554688 C1387.4362,11.8554688 1387.98633,11.9921861 1388.51367,12.265625 C1389.04102,12.5390639 1389.52929,12.8710918 1389.97852,13.2617188 C1390.42774,13.6523457 1390.82812,14.065753 1391.17969,14.5019531 C1391.53125,14.9381532 1391.81771,15.3320295 1392.03906,15.6835938 C1392.26042,15.3320295 1392.54362,14.9381532 1392.88867,14.5019531 C1393.23373,14.065753 1393.6276,13.6523457 1394.07031,13.2617188 C1394.51302,12.8710918 1394.99479,12.5390639 1395.51562,12.265625 C1396.03646,11.9921861 1396.58333,11.8554688 1397.15625,11.8554688 C1398.02865,11.8554688 1398.64062,12.0963518 1398.99219,12.578125 C1399.34375,13.0598982 1399.51953,13.574216 1399.51953,14.1210938 C1399.51953,14.5638043 1399.43815,14.9641909 1399.27539,15.3222656 C1399.11263,15.6803403 1398.89453,15.989582 1398.62109,16.25 L1400.75,16.25 C1401.10156,16.25 1401.39779,16.3736967 1401.63867,16.6210938 C1401.87956,16.8684908 1402,17.1614566 1402,17.5 Z M1397.15625,13.1054688 C1396.375,13.1054688 1395.62305,13.4667933 1394.90039,14.1894531 C1394.17773,14.912113 1393.59505,15.5989551 1393.15234,16.25 L1395.26172,16.25 C1395.99089,16.25 1396.67448,16.0677102 1397.3125,15.703125 C1397.95052,15.3385398 1398.26953,14.8112014 1398.26953,14.1210938 C1398.26953,13.7825504 1398.18164,13.5286467 1398.00586,13.359375 C1397.83008,13.1901033 1397.54688,13.1054688 1397.15625,13.1054688 Z M1386.86328,13.1054688 C1386.47265,13.1054688 1386.18945,13.1868481 1386.01367,13.3496094 C1385.83789,13.5123706 1385.75,13.7630191 1385.75,14.1015625 C1385.75,14.7916701 1386.07877,15.3222638 1386.73633,15.6933594 C1387.39388,16.064455 1388.08724,16.25 1388.81641,16.25 L1390.92578,16.25 C1390.48307,15.5989551 1389.89063,14.912113 1389.14844,14.1894531 C1388.40625,13.4667933 1387.64454,13.1054688 1386.86328,13.1054688 Z M1400.75,20 L1400.75,17.5 L1392.625,17.5 L1392.625,20 L1400.75,20 Z M1383.25,17.5 L1383.25,20 L1391.375,20 L1391.375,17.5 L1383.25,17.5 Z M1384.51953,21.25 L1384.51953,29.3945312 L1391.375,29.3945312 L1391.375,21.25 L1384.51953,21.25 Z M1399.5,29.3945312 L1399.5,21.25 L1392.625,21.25 L1392.625,29.3945312 L1399.5,29.3945312 Z" id="Present---simple-line-icons"></path>
            </g>
        </g>
    </g>
</svg>