<?xml version="1.0" encoding="UTF-8"?>
<svg width="20px" height="21px" viewBox="0 0 20 21" version="1.1" xmlns="http://www.w3.org/2000/svg" xmlns:xlink="http://www.w3.org/1999/xlink">
    <!-- Generator: Sketch 49.2 (51160) - http://www.bohemiancoding.com/sketch -->
    <title>Docs - simple-line-icons</title>
    <desc>Created with Sketch.</desc>
    <defs></defs>
    <g id="Screen" stroke="none" stroke-width="1" fill="none" fill-rule="evenodd">
        <g id="Profiles-List" transform="translate(-1400.000000, -26.000000)" fill="#000000">
            <g id="Header" transform="translate(18.000000, 15.000000)">
                <path d="M1397,11.25 L1402,16.25 L1402,27.5 C1402,27.8515643 1401.87956,28.1477853 1401.63867,28.3886719 C1401.39779,28.6295585 1401.10156,28.75 1400.75,28.75 L1396.375,28.75 L1396.375,27.5 L1400.75,27.5 L1400.75,17.5 L1395.75,17.5 L1395.75,12.5 L1388.875,12.5 C1388.875,12.1484357 1388.99544,11.8522147 1389.23633,11.6113281 C1389.47721,11.3704415 1389.77344,11.25 1390.125,11.25 L1397,11.25 Z M1397,16.25 L1400.22266,16.25 L1397,13.0078125 L1397,16.25 Z M1383.25,13.75 L1390.125,13.75 L1395.125,18.75 L1395.125,30 C1395.125,30.3515643 1395.00456,30.6477853 1394.76367,30.8886719 C1394.52279,31.1295585 1394.22656,31.25 1393.875,31.25 L1383.25,31.25 C1382.89844,31.25 1382.60221,31.1295585 1382.36133,30.8886719 C1382.12044,30.6477853 1382,30.3515643 1382,30 L1382,15 C1382,14.6484357 1382.12044,14.3522147 1382.36133,14.1113281 C1382.60221,13.8704415 1382.89844,13.75 1383.25,13.75 Z M1393.875,30 L1393.875,20 L1388.875,20 L1388.875,15 L1383.25,15 L1383.25,30 L1393.875,30 Z M1390.125,18.75 L1393.34766,18.75 L1390.125,15.5078125 L1390.125,18.75 Z" id="Docs---simple-line-icons"></path>
            </g>
        </g>
    </g>
</svg>