<?xml version="1.0" encoding="UTF-8"?>
<svg width="20px" height="21px" viewBox="0 0 20 21" version="1.1" xmlns="http://www.w3.org/2000/svg" xmlns:xlink="http://www.w3.org/1999/xlink">
    <!-- Generator: Sketch 49.2 (51160) - http://www.bohemiancoding.com/sketch -->
    <title>Login - simple-line-icons</title>
    <desc>Created with Sketch.</desc>
    <defs></defs>
    <g id="Screen" stroke="none" stroke-width="1" fill="none" fill-rule="evenodd">
        <g id="Profiles-List" transform="translate(-1400.000000, -26.000000)" fill="#000000">
            <g id="Header" transform="translate(18.000000, 15.000000)">
                <path d="M1392.41016,24.1601562 L1394.69531,21.875 L1382.625,21.875 C1382.45573,21.875 1382.30925,21.8131517 1382.18555,21.6894531 C1382.06185,21.5657546 1382,21.4192717 1382,21.25 C1382,21.0677074 1382.06185,20.9179693 1382.18555,20.8007812 C1382.30925,20.6835932 1382.45573,20.625 1382.625,20.625 L1394.65625,20.625 L1392.41016,18.359375 C1392.27995,18.2421869 1392.21484,18.095704 1392.21484,17.9199219 C1392.21484,17.7441397 1392.27995,17.5976568 1392.41016,17.4804688 C1392.52734,17.3502598 1392.67057,17.2851562 1392.83984,17.2851562 C1393.00912,17.2851562 1393.15885,17.3502598 1393.28906,17.4804688 L1396.98047,21.2695312 L1393.28906,25.0585938 C1393.22396,25.1106773 1393.15234,25.1529946 1393.07422,25.1855469 C1392.99609,25.2180991 1392.91797,25.234375 1392.83984,25.234375 C1392.76172,25.234375 1392.68359,25.2180991 1392.60547,25.1855469 C1392.52734,25.1529946 1392.46224,25.1106773 1392.41016,25.0585938 C1392.27995,24.9283848 1392.21484,24.7786467 1392.21484,24.609375 C1392.21484,24.4401033 1392.27995,24.2903652 1392.41016,24.1601562 Z M1400.75,11.25 C1401.10156,11.25 1401.39779,11.3704415 1401.63867,11.6113281 C1401.87956,11.8522147 1402,12.1484357 1402,12.5 L1402,30 C1402,30.3515643 1401.87956,30.6477853 1401.63867,30.8886719 C1401.39779,31.1295585 1401.10156,31.25 1400.75,31.25 L1389.5,31.25 C1389.16146,31.25 1388.86849,31.1295585 1388.62109,30.8886719 C1388.3737,30.6477853 1388.25,30.3515643 1388.25,30 L1388.25,24.3554688 L1389.51953,24.3554688 L1389.51953,29.2382812 C1389.51953,29.4466156 1389.59115,29.6256503 1389.73438,29.7753906 C1389.8776,29.925131 1390.05338,30 1390.26172,30 L1399.98828,30 C1400.19662,30 1400.37565,29.925131 1400.52539,29.7753906 C1400.67513,29.6256503 1400.75,29.4466156 1400.75,29.2382812 L1400.73047,13.2617188 C1400.73047,13.0533844 1400.6556,12.8743497 1400.50586,12.7246094 C1400.35612,12.574869 1400.17708,12.5 1399.96875,12.5 L1390.26172,12.5 C1390.05338,12.5 1389.8776,12.574869 1389.73438,12.7246094 C1389.59115,12.8743497 1389.51953,13.0533844 1389.51953,13.2617188 L1389.51953,18.125 L1388.25,18.125 L1388.25,12.5 C1388.25,12.1484357 1388.3737,11.8522147 1388.62109,11.6113281 C1388.86849,11.3704415 1389.16146,11.25 1389.5,11.25 L1400.75,11.25 Z" id="Login---simple-line-icons"></path>
            </g>
        </g>
    </g>
</svg>