<?xml version="1.0" encoding="UTF-8"?>
<svg width="12px" height="21px" viewBox="0 0 12 21" version="1.1" xmlns="http://www.w3.org/2000/svg" xmlns:xlink="http://www.w3.org/1999/xlink">
    <!-- Generator: Sketch 49.2 (51160) - http://www.bohemiancoding.com/sketch -->
    <title>Arrow-right - simple-line-icons</title>
    <desc>Created with Sketch.</desc>
    <defs></defs>
    <g id="Screen" stroke="none" stroke-width="1" fill="none" fill-rule="evenodd">
        <g id="Profiles-List" transform="translate(-1404.000000, -26.000000)" fill="#000000">
            <g id="Header" transform="translate(18.000000, 15.000000)">
                <path d="M1387.3125,31.2304688 C1387.22135,31.2304688 1387.13346,31.2141929 1387.04883,31.1816406 C1386.96419,31.1490884 1386.88932,31.1002607 1386.82422,31.0351562 C1386.69401,30.9049473 1386.62891,30.7486988 1386.62891,30.5664062 C1386.62891,30.3841137 1386.69401,30.2278652 1386.82422,30.0976562 L1395.75,21.171875 L1386.96094,12.4023438 C1386.83073,12.2721348 1386.76562,12.1126312 1386.76562,11.9238281 C1386.76562,11.7350251 1386.83073,11.5755215 1386.96094,11.4453125 C1387.09115,11.3151035 1387.25065,11.25 1387.43945,11.25 C1387.62826,11.25 1387.78776,11.3151035 1387.91797,11.4453125 L1397.15625,20.703125 C1397.28646,20.833334 1397.35156,20.9895824 1397.35156,21.171875 C1397.35156,21.3541676 1397.28646,21.510416 1397.15625,21.640625 L1387.78125,31.0351562 C1387.71615,31.1002607 1387.64128,31.1490884 1387.55664,31.1816406 C1387.472,31.2141929 1387.39063,31.2304688 1387.3125,31.2304688 Z" id="Arrow-right---simple-line-icons"></path>
            </g>
        </g>
    </g>
</svg>