<?xml version="1.0" encoding="UTF-8"?>
<svg width="20px" height="21px" viewBox="0 0 20 21" version="1.1" xmlns="http://www.w3.org/2000/svg" xmlns:xlink="http://www.w3.org/1999/xlink">
    <!-- Generator: Sketch 49.2 (51160) - http://www.bohemiancoding.com/sketch -->
    <title>Check - simple-line-icons</title>
    <desc>Created with Sketch.</desc>
    <defs></defs>
    <g id="Screen" stroke="none" stroke-width="1" fill="none" fill-rule="evenodd">
        <g id="Profiles-List" transform="translate(-1400.000000, -26.000000)" fill="#000000">
            <g id="Header" transform="translate(18.000000, 15.000000)">
                <path d="M1392,11.25 C1393.38022,11.25 1394.67903,11.5104141 1395.89648,12.03125 C1397.11394,12.5520859 1398.17513,13.2649694 1399.08008,14.1699219 C1399.98503,15.0748743 1400.69791,16.1360616 1401.21875,17.3535156 C1401.73959,18.5709696 1402,19.8697848 1402,21.25 C1402,22.6302152 1401.73959,23.9290304 1401.21875,25.1464844 C1400.69791,26.3639384 1399.98503,27.4251257 1399.08008,28.3300781 C1398.17513,29.2350306 1397.11394,29.9479141 1395.89648,30.46875 C1394.67903,30.9895859 1393.38022,31.25 1392,31.25 C1390.61978,31.25 1389.32097,30.9895859 1388.10352,30.46875 C1386.88606,29.9479141 1385.82487,29.2350306 1384.91992,28.3300781 C1384.01497,27.4251257 1383.30209,26.3639384 1382.78125,25.1464844 C1382.26041,23.9290304 1382,22.6302152 1382,21.25 C1382,19.8697848 1382.26041,18.5709696 1382.78125,17.3535156 C1383.30209,16.1360616 1384.01497,15.0748743 1384.91992,14.1699219 C1385.82487,13.2649694 1386.88606,12.5520859 1388.10352,12.03125 C1389.32097,11.5104141 1390.61978,11.25 1392,11.25 Z M1392,30.0195312 C1393.21094,30.0195312 1394.347,29.7884138 1395.4082,29.3261719 C1396.46941,28.86393 1397.39388,28.2356811 1398.18164,27.4414062 C1398.9694,26.6471314 1399.5944,25.7194063 1400.05664,24.6582031 C1400.51888,23.5969999 1400.75,22.4609436 1400.75,21.25 C1400.75,20.0390564 1400.51888,18.9030001 1400.05664,17.8417969 C1399.5944,16.7805937 1398.9694,15.8561237 1398.18164,15.0683594 C1397.39388,14.280595 1396.46941,13.6556013 1395.4082,13.1933594 C1394.347,12.7311175 1393.21094,12.5 1392,12.5 C1390.78906,12.5 1389.653,12.7311175 1388.5918,13.1933594 C1387.53059,13.6556013 1386.60612,14.280595 1385.81836,15.0683594 C1385.0306,15.8561237 1384.4056,16.7805937 1383.94336,17.8417969 C1383.48112,18.9030001 1383.25,20.0390564 1383.25,21.25 C1383.25,22.4609436 1383.48112,23.5969999 1383.94336,24.6582031 C1384.4056,25.7194063 1385.0306,26.6471314 1385.81836,27.4414062 C1386.60612,28.2356811 1387.53059,28.86393 1388.5918,29.3261719 C1389.653,29.7884138 1390.78906,30.0195312 1392,30.0195312 Z M1395.98438,17.5976562 C1396.11458,17.4674473 1396.26432,17.4023438 1396.43359,17.4023438 C1396.60287,17.4023438 1396.7526,17.4674473 1396.88281,17.5976562 C1397,17.7148443 1397.05859,17.8613272 1397.05859,18.0371094 C1397.05859,18.2128915 1397,18.3593744 1396.88281,18.4765625 L1390.65234,24.7460938 L1390.57422,24.8242188 C1390.45703,24.9544277 1390.31055,25.0195312 1390.13477,25.0195312 C1389.95898,25.0195312 1389.8125,24.9544277 1389.69531,24.8242188 L1386.58984,21.7382812 C1386.47266,21.6210932 1386.41406,21.4746103 1386.41406,21.2988281 C1386.41406,21.123046 1386.47266,20.9765631 1386.58984,20.859375 C1386.72005,20.729166 1386.86979,20.6640625 1387.03906,20.6640625 C1387.20833,20.6640625 1387.35807,20.729166 1387.48828,20.859375 L1390.125,23.4960938 L1395.98438,17.5976562 Z" id="Check---simple-line-icons"></path>
            </g>
        </g>
    </g>
</svg>