<?xml version="1.0" encoding="UTF-8"?>
<svg width="12px" height="21px" viewBox="0 0 12 21" version="1.1" xmlns="http://www.w3.org/2000/svg" xmlns:xlink="http://www.w3.org/1999/xlink">
    <!-- Generator: Sketch 49.2 (51160) - http://www.bohemiancoding.com/sketch -->
    <title>Screen-smartphone - simple-line-icons</title>
    <desc>Created with Sketch.</desc>
    <defs></defs>
    <g id="Screen" stroke="none" stroke-width="1" fill="none" fill-rule="evenodd">
        <g id="Profiles-List" transform="translate(-1404.000000, -26.000000)" fill="#000000">
            <g id="Header" transform="translate(18.000000, 15.000000)">
                <path d="M1395.75,11.25 C1396.27084,11.25 1396.71354,11.4322898 1397.07812,11.796875 C1397.44271,12.1614602 1397.625,12.6041641 1397.625,13.125 L1397.625,29.375 C1397.625,29.8958359 1397.44271,30.3385398 1397.07812,30.703125 C1396.71354,31.0677102 1396.27084,31.25 1395.75,31.25 L1388.25,31.25 C1387.72916,31.25 1387.28646,31.0677102 1386.92188,30.703125 C1386.55729,30.3385398 1386.375,29.8958359 1386.375,29.375 L1386.375,13.125 C1386.375,12.6041641 1386.55729,12.1614602 1386.92188,11.796875 C1387.28646,11.4322898 1387.72916,11.25 1388.25,11.25 L1395.75,11.25 Z M1396.375,29.375 L1396.375,13.125 C1396.375,12.9557283 1396.31315,12.8092454 1396.18945,12.6855469 C1396.06575,12.5618483 1395.91927,12.5 1395.75,12.5 L1388.25,12.5 C1388.08073,12.5 1387.93425,12.5618483 1387.81055,12.6855469 C1387.68685,12.8092454 1387.625,12.9557283 1387.625,13.125 L1387.625,29.375 C1387.625,29.5442717 1387.68685,29.6907546 1387.81055,29.8144531 C1387.93425,29.9381517 1388.08073,30 1388.25,30 L1395.75,30 C1395.91927,30 1396.06575,29.9381517 1396.18945,29.8144531 C1396.31315,29.6907546 1396.375,29.5442717 1396.375,29.375 Z M1392,26.875 C1392.35156,26.875 1392.64779,26.9986967 1392.88867,27.2460938 C1393.12956,27.4934908 1393.25,27.7864566 1393.25,28.125 C1393.25,28.4635434 1393.12956,28.7565092 1392.88867,29.0039062 C1392.64779,29.2513033 1392.35156,29.375 1392,29.375 C1391.66146,29.375 1391.36849,29.2513033 1391.12109,29.0039062 C1390.8737,28.7565092 1390.75,28.4635434 1390.75,28.125 C1390.75,27.7864566 1390.8737,27.4934908 1391.12109,27.2460938 C1391.36849,26.9986967 1391.66146,26.875 1392,26.875 Z M1393.25,13.125 C1393.41927,13.125 1393.56575,13.1868483 1393.68945,13.3105469 C1393.81315,13.4342454 1393.875,13.5807283 1393.875,13.75 C1393.875,13.9192717 1393.81315,14.0657546 1393.68945,14.1894531 C1393.56575,14.3131517 1393.41927,14.375 1393.25,14.375 L1390.75,14.375 C1390.58073,14.375 1390.43425,14.3131517 1390.31055,14.1894531 C1390.18685,14.0657546 1390.125,13.9192717 1390.125,13.75 C1390.125,13.5807283 1390.18685,13.4342454 1390.31055,13.3105469 C1390.43425,13.1868483 1390.58073,13.125 1390.75,13.125 L1393.25,13.125 Z" id="Screen-smartphone---simple-line-icons"></path>
            </g>
        </g>
    </g>
</svg>