<?xml version="1.0" encoding="UTF-8"?>
<svg width="18px" height="21px" viewBox="0 0 18 21" version="1.1" xmlns="http://www.w3.org/2000/svg" xmlns:xlink="http://www.w3.org/1999/xlink">
    <!-- Generator: Sketch 49.2 (51160) - http://www.bohemiancoding.com/sketch -->
    <title>Lock - simple-line-icons</title>
    <desc>Created with Sketch.</desc>
    <defs></defs>
    <g id="Screen" stroke="none" stroke-width="1" fill="none" fill-rule="evenodd">
        <g id="Profiles-List" transform="translate(-1401.000000, -26.000000)" fill="#000000">
            <g id="Header" transform="translate(18.000000, 15.000000)">
                <path d="M1397.625,18.75 C1398.31511,18.75 1398.90429,18.9941382 1399.39258,19.4824219 C1399.88086,19.9707056 1400.125,20.5598924 1400.125,21.25 L1400.125,28.75 C1400.125,29.4401076 1399.88086,30.0292944 1399.39258,30.5175781 C1398.90429,31.0058618 1398.31511,31.25 1397.625,31.25 L1386.375,31.25 C1385.68489,31.25 1385.09571,31.0058618 1384.60742,30.5175781 C1384.11914,30.0292944 1383.875,29.4401076 1383.875,28.75 L1383.875,21.25 C1383.875,20.5598924 1384.11914,19.9707056 1384.60742,19.4824219 C1385.09571,18.9941382 1385.68489,18.75 1386.375,18.75 L1387,18.75 L1387,16.3671875 C1387,15.664059 1387.12044,15.0000031 1387.36133,14.375 C1387.60221,13.7499969 1387.94075,13.2063825 1388.37695,12.7441406 C1388.81315,12.2818987 1389.33724,11.917319 1389.94922,11.6503906 C1390.5612,11.3834622 1391.23828,11.25 1391.98047,11.25 C1392.70964,11.25 1393.38346,11.3834622 1394.00195,11.6503906 C1394.62045,11.917319 1395.15104,12.2786436 1395.59375,12.734375 C1396.03646,13.1901064 1396.38151,13.7304656 1396.62891,14.3554688 C1396.8763,14.9804719 1397,15.6510381 1397,16.3671875 L1397,18.75 L1397.625,18.75 Z M1388.25,16.3671875 L1388.25,18.75 L1395.75,18.75 L1395.75,16.3671875 C1395.75,15.2864529 1395.4017,14.3717485 1394.70508,13.6230469 C1394.00846,12.8743452 1393.10027,12.5 1391.98047,12.5 C1390.84765,12.5 1389.94271,12.8776004 1389.26562,13.6328125 C1388.58854,14.3880246 1388.25,15.2994738 1388.25,16.3671875 Z M1398.875,28.75 L1398.875,21.25 C1398.875,20.9114566 1398.7513,20.6184908 1398.50391,20.3710938 C1398.25651,20.1236967 1397.96354,20 1397.625,20 L1386.375,20 C1386.03646,20 1385.74349,20.1236967 1385.49609,20.3710938 C1385.2487,20.6184908 1385.125,20.9114566 1385.125,21.25 L1385.125,28.75 C1385.125,29.0885434 1385.2487,29.3815092 1385.49609,29.6289062 C1385.74349,29.8763033 1386.03646,30 1386.375,30 L1397.625,30 C1397.96354,30 1398.25651,29.8763033 1398.50391,29.6289062 C1398.7513,29.3815092 1398.875,29.0885434 1398.875,28.75 Z M1392,22.5 C1392.35156,22.5 1392.64779,22.6204415 1392.88867,22.8613281 C1393.12956,23.1022147 1393.25,23.3984357 1393.25,23.75 C1393.25,23.9843762 1393.19141,24.1959626 1393.07422,24.3847656 C1392.95703,24.5735687 1392.80729,24.7200516 1392.625,24.8242188 L1392.625,26.875 C1392.625,27.0442717 1392.56315,27.1907546 1392.43945,27.3144531 C1392.31575,27.4381517 1392.16927,27.5 1392,27.5 C1391.83073,27.5 1391.68425,27.4381517 1391.56055,27.3144531 C1391.43685,27.1907546 1391.375,27.0442717 1391.375,26.875 L1391.375,24.8242188 C1391.19271,24.7200516 1391.04297,24.5735687 1390.92578,24.3847656 C1390.80859,24.1959626 1390.75,23.9843762 1390.75,23.75 C1390.75,23.3984357 1390.87044,23.1022147 1391.11133,22.8613281 C1391.35221,22.6204415 1391.64844,22.5 1392,22.5 Z" id="Lock---simple-line-icons"></path>
            </g>
        </g>
    </g>
</svg>