<?xml version="1.0" encoding="UTF-8"?>
<svg width="20px" height="15px" viewBox="0 0 20 15" version="1.1" xmlns="http://www.w3.org/2000/svg" xmlns:xlink="http://www.w3.org/1999/xlink">
    <!-- Generator: Sketch 49.2 (51160) - http://www.bohemiancoding.com/sketch -->
    <title></title>
    <desc>Created with Sketch.</desc>
    <defs></defs>
    <g id="Screen" stroke="none" stroke-width="1" fill="none" fill-rule="evenodd">
        <g id="Profile-view" transform="translate(-1267.000000, -28.000000)" fill="#000000">
            <g id="Header" transform="translate(18.000000, 15.000000)">
                <path d="M1268.98047,14.78125 C1268.99349,14.8072918 1269,14.8333332 1269,14.859375 L1269,24.9375 C1269,25.4583359 1268.86979,25.9531227 1268.60938,26.421875 C1268.34896,26.8906273 1267.95834,27.125 1267.4375,27.125 L1251.1875,27.125 C1250.66666,27.125 1250.17188,26.8906273 1249.70312,26.421875 C1249.23437,25.9531227 1249,25.4583359 1249,24.9375 L1249,14.859375 C1249,14.8333332 1249.00651,14.8072918 1249.01953,14.78125 C1248.99349,14.6901037 1248.99349,14.602214 1249.01953,14.5175781 C1249.04557,14.4329423 1249.09115,14.3515629 1249.15625,14.2734375 C1249.16927,14.2604166 1249.18229,14.2441407 1249.19531,14.2246094 C1249.20833,14.205078 1249.22786,14.1888021 1249.25391,14.1757812 C1249.44922,13.9153633 1249.72591,13.7167976 1250.08398,13.5800781 C1250.44206,13.4433587 1250.80989,13.375 1251.1875,13.375 L1267.4375,13.375 C1267.85417,13.375 1268.18945,13.4628897 1268.44336,13.6386719 C1268.69727,13.814454 1268.86328,14.0781232 1268.94141,14.4296875 C1268.96745,14.4817711 1268.98372,14.5371091 1268.99023,14.5957031 C1268.99674,14.6542972 1268.99349,14.7161455 1268.98047,14.78125 Z M1250.89453,14.625 C1250.79036,14.625 1250.6862,14.6315104 1250.58203,14.6445312 L1259,21.3632812 L1267.4375,14.625 L1250.89453,14.625 Z M1267.4375,25.875 C1267.60677,25.875 1267.70117,25.7610688 1267.7207,25.5332031 C1267.74023,25.3053374 1267.75,25.1067717 1267.75,24.9375 L1267.75,15.9921875 L1259.41016,22.6523438 C1259.34505,22.7044273 1259.27995,22.7434895 1259.21484,22.7695312 C1259.14974,22.795573 1259.07813,22.8085938 1259,22.8085938 C1258.92187,22.8085938 1258.85026,22.795573 1258.78516,22.7695312 C1258.72005,22.7434895 1258.65495,22.7044273 1258.58984,22.6523438 L1250.25,15.9921875 L1250.25,24.9375 C1250.25,25.1067717 1250.36393,25.3053374 1250.5918,25.5332031 C1250.81966,25.7610688 1251.01823,25.875 1251.1875,25.875 L1267.4375,25.875 Z" id=""></path>
            </g>
        </g>
    </g>
</svg>