<?xml version="1.0" encoding="UTF-8"?>
<svg width="12px" height="21px" viewBox="0 0 12 21" version="1.1" xmlns="http://www.w3.org/2000/svg" xmlns:xlink="http://www.w3.org/1999/xlink">
    <!-- Generator: Sketch 49.2 (51160) - http://www.bohemiancoding.com/sketch -->
    <title>Arrow-left - simple-line-icons</title>
    <desc>Created with Sketch.</desc>
    <defs></defs>
    <g id="Screen" stroke="none" stroke-width="1" fill="none" fill-rule="evenodd">
        <g id="Profiles-List" transform="translate(-1404.000000, -26.000000)" fill="#000000">
            <g id="Header" transform="translate(18.000000, 15.000000)">
                <path d="M1396.6875,11.25 C1396.77865,11.25 1396.86328,11.2662759 1396.94141,11.2988281 C1397.01953,11.3313804 1397.09115,11.380208 1397.15625,11.4453125 C1397.28646,11.5755215 1397.35156,11.7350251 1397.35156,11.9238281 C1397.35156,12.1126312 1397.28646,12.2721348 1397.15625,12.4023438 L1388.25,21.3085938 L1397.03906,30.0976562 C1397.16927,30.2278652 1397.23438,30.3841137 1397.23438,30.5664062 C1397.23438,30.7486988 1397.16927,30.9049473 1397.03906,31.0351562 C1396.90885,31.1653652 1396.74935,31.2304688 1396.56055,31.2304688 C1396.37174,31.2304688 1396.21224,31.1653652 1396.08203,31.0351562 L1386.82422,21.7773438 C1386.69401,21.6471348 1386.62891,21.4908863 1386.62891,21.3085938 C1386.62891,21.1263012 1386.69401,20.9700527 1386.82422,20.8398438 L1396.21875,11.4453125 C1396.28385,11.380208 1396.35872,11.3313804 1396.44336,11.2988281 C1396.528,11.2662759 1396.60937,11.25 1396.6875,11.25 Z" id="Arrow-left---simple-line-icons"></path>
            </g>
        </g>
    </g>
</svg>