<?xml version="1.0" encoding="UTF-8"?>
<svg width="20px" height="21px" viewBox="0 0 20 21" version="1.1" xmlns="http://www.w3.org/2000/svg" xmlns:xlink="http://www.w3.org/1999/xlink">
    <!-- Generator: Sketch 49.2 (51160) - http://www.bohemiancoding.com/sketch -->
    <title>Question - simple-line-icons</title>
    <desc>Created with Sketch.</desc>
    <defs></defs>
    <g id="Screen" stroke="none" stroke-width="1" fill="none" fill-rule="evenodd">
        <g id="Profiles-List" transform="translate(-1400.000000, -26.000000)" fill="#000000">
            <g id="Header" transform="translate(18.000000, 15.000000)">
                <path d="M1392,11.25 C1393.38022,11.25 1394.67903,11.5104141 1395.89648,12.03125 C1397.11394,12.5520859 1398.17513,13.2649694 1399.08008,14.1699219 C1399.98503,15.0748743 1400.69791,16.1360616 1401.21875,17.3535156 C1401.73959,18.5709696 1402,19.8697848 1402,21.25 C1402,22.6302152 1401.73959,23.9290304 1401.21875,25.1464844 C1400.69791,26.3639384 1399.98503,27.4251257 1399.08008,28.3300781 C1398.17513,29.2350306 1397.11394,29.9479141 1395.89648,30.46875 C1394.67903,30.9895859 1393.38022,31.25 1392,31.25 C1390.61978,31.25 1389.32097,30.9895859 1388.10352,30.46875 C1386.88606,29.9479141 1385.82487,29.2350306 1384.91992,28.3300781 C1384.01497,27.4251257 1383.30209,26.3639384 1382.78125,25.1464844 C1382.26041,23.9290304 1382,22.6302152 1382,21.25 C1382,19.8697848 1382.26041,18.5709696 1382.78125,17.3535156 C1383.30209,16.1360616 1384.01497,15.0748743 1384.91992,14.1699219 C1385.82487,13.2649694 1386.88606,12.5520859 1388.10352,12.03125 C1389.32097,11.5104141 1390.61978,11.25 1392,11.25 Z M1392,30.0195312 C1393.21094,30.0195312 1394.347,29.7884138 1395.4082,29.3261719 C1396.46941,28.86393 1397.39388,28.2356811 1398.18164,27.4414062 C1398.9694,26.6471314 1399.5944,25.7194063 1400.05664,24.6582031 C1400.51888,23.5969999 1400.75,22.4609436 1400.75,21.25 C1400.75,20.0390564 1400.51888,18.9030001 1400.05664,17.8417969 C1399.5944,16.7805937 1398.9694,15.8561237 1398.18164,15.0683594 C1397.39388,14.280595 1396.46941,13.6556013 1395.4082,13.1933594 C1394.347,12.7311175 1393.21094,12.5 1392,12.5 C1390.78906,12.5 1389.653,12.7311175 1388.5918,13.1933594 C1387.53059,13.6556013 1386.60612,14.280595 1385.81836,15.0683594 C1385.0306,15.8561237 1384.4056,16.7805937 1383.94336,17.8417969 C1383.48112,18.9030001 1383.25,20.0390564 1383.25,21.25 C1383.25,22.4609436 1383.48112,23.5969999 1383.94336,24.6582031 C1384.4056,25.7194063 1385.0306,26.6471314 1385.81836,27.4414062 C1386.60612,28.2356811 1387.53059,28.86393 1388.5918,29.3261719 C1389.653,29.7884138 1390.78906,30.0195312 1392,30.0195312 Z M1391.08203,26.875 L1391.08203,25.2929688 L1392.64453,25.2929688 L1392.64453,26.875 L1391.08203,26.875 Z M1391.98047,15.625 C1392.48828,15.625 1392.93424,15.6868483 1393.31836,15.8105469 C1393.70248,15.9342454 1394.03776,16.1263008 1394.32422,16.3867188 C1394.59766,16.6341158 1394.80273,16.9368472 1394.93945,17.2949219 C1395.07617,17.6529966 1395.14453,18.0598936 1395.14453,18.515625 C1395.14453,18.8541684 1395.09896,19.1731756 1395.00781,19.4726562 C1394.91667,19.7721369 1394.78646,20.0585924 1394.61719,20.3320312 C1394.43489,20.5924492 1394.22331,20.8626288 1393.98242,21.1425781 C1393.74154,21.4225274 1393.47787,21.7057277 1393.19141,21.9921875 C1393.04818,22.1354174 1392.93425,22.2688796 1392.84961,22.3925781 C1392.76497,22.5162767 1392.70964,22.6302078 1392.68359,22.734375 C1392.65755,22.8385422 1392.63802,22.9785147 1392.625,23.1542969 C1392.61198,23.330079 1392.60547,23.5286447 1392.60547,23.75 L1391.10156,23.75 C1391.10156,23.3854148 1391.11784,23.0761731 1391.15039,22.8222656 C1391.18294,22.5683581 1391.23177,22.3697924 1391.29688,22.2265625 C1391.34896,22.0833326 1391.45638,21.9173187 1391.61914,21.7285156 C1391.7819,21.5397126 1391.99349,21.3281262 1392.25391,21.09375 C1392.5013,20.7942693 1392.71614,20.5306001 1392.89844,20.3027344 C1393.08073,20.0748687 1393.22396,19.8828133 1393.32812,19.7265625 C1393.43229,19.5572908 1393.51042,19.3782562 1393.5625,19.1894531 C1393.61458,19.0006501 1393.64062,18.7890637 1393.64062,18.5546875 C1393.64062,18.2942695 1393.60482,18.0598969 1393.5332,17.8515625 C1393.46159,17.6432281 1393.35417,17.4674486 1393.21094,17.3242188 C1393.06771,17.1809889 1392.89518,17.0703129 1392.69336,16.9921875 C1392.49154,16.9140621 1392.25391,16.875 1391.98047,16.875 C1391.74609,16.875 1391.53125,16.9075518 1391.33594,16.9726562 C1391.14062,17.0377607 1390.96484,17.135416 1390.80859,17.265625 C1390.63932,17.3828131 1390.51563,17.5911443 1390.4375,17.890625 C1390.35937,18.1901057 1390.32031,18.4635404 1390.32031,18.7109375 L1388.875,18.7109375 L1388.85547,18.6523438 C1388.84245,18.2486959 1388.90755,17.825523 1389.05078,17.3828125 C1389.19401,16.940102 1389.41536,16.5950533 1389.71484,16.3476562 C1390.01432,16.1002592 1390.35286,15.9179693 1390.73047,15.8007812 C1391.10807,15.6835932 1391.52474,15.625 1391.98047,15.625 Z" id="Question---simple-line-icons"></path>
            </g>
        </g>
    </g>
</svg>