<?xml version="1.0" encoding="UTF-8"?>
<svg width="20px" height="21px" viewBox="0 0 20 21" version="1.1" xmlns="http://www.w3.org/2000/svg" xmlns:xlink="http://www.w3.org/1999/xlink">
    <!-- Generator: Sketch 49.2 (51160) - http://www.bohemiancoding.com/sketch -->
    <title>User-female - simple-line-icons</title>
    <desc>Created with Sketch.</desc>
    <defs></defs>
    <g id="Screen" stroke="none" stroke-width="1" fill="none" fill-rule="evenodd">
        <g id="Profiles-List" transform="translate(-1400.000000, -26.000000)" fill="#000000">
            <g id="Header" transform="translate(18.000000, 15.000000)">
                <path d="M1400.75,26.9335938 L1401.375,27.2753906 C1401.79167,27.5032563 1402,27.8776016 1402,28.3984375 L1402,30.0585938 C1402,30.3971371 1401.87956,30.6803374 1401.63867,30.9082031 C1401.39779,31.1360688 1401.10156,31.25 1400.75,31.25 L1383.25,31.25 C1382.89844,31.25 1382.60221,31.1360688 1382.36133,30.9082031 C1382.12044,30.6803374 1382,30.3971371 1382,30.0585938 L1382,28.3984375 C1382,27.8776016 1382.20833,27.5032563 1382.625,27.2753906 L1383.25,26.9335938 L1388.67969,24.3554688 C1388.32812,24.1731762 1387.63803,24.0201829 1386.60938,23.8964844 C1385.58072,23.7727858 1385.00781,23.5481787 1384.89062,23.2226562 L1385.48633,22.0898438 C1385.88347,21.3346316 1386.15365,20.397141 1386.29688,19.2773438 C1386.34896,18.8476541 1386.41732,18.3398467 1386.50195,17.7539062 C1386.58659,17.1679658 1386.67448,16.4713582 1386.76562,15.6640625 C1386.83073,15.0260385 1387.01302,14.4335965 1387.3125,13.8867188 C1387.61198,13.339841 1387.99284,12.8710957 1388.45508,12.4804688 C1388.91732,12.0898418 1389.45117,11.7871104 1390.05664,11.5722656 C1390.66211,11.3574208 1391.30989,11.25 1392,11.25 C1392.69011,11.25 1393.33789,11.3574208 1393.94336,11.5722656 C1394.54883,11.7871104 1395.08268,12.0898418 1395.54492,12.4804688 C1396.00716,12.8710957 1396.38802,13.339841 1396.6875,13.8867188 C1396.98698,14.4335965 1397.16927,15.0260385 1397.23438,15.6640625 C1397.32552,16.4713582 1397.41341,17.1679658 1397.49805,17.7539062 C1397.58268,18.3398467 1397.65104,18.8476541 1397.70312,19.2773438 C1397.84635,20.397141 1398.11653,21.3346316 1398.51367,22.0898438 L1399.10938,23.2226562 C1398.99219,23.5481787 1398.41928,23.7727858 1397.39062,23.8964844 C1396.36197,24.0201829 1395.67188,24.1731762 1395.32031,24.3554688 L1400.75,26.9335938 Z M1383.25,30 L1400.75,30 L1400.75,28.3984375 C1400.73698,28.3723957 1400.6849,28.3268232 1400.59375,28.2617188 C1400.5026,28.1966143 1400.41146,28.1445314 1400.32031,28.1054688 L1400.26172,28.0761719 C1400.2487,28.0696614 1400.23568,28.0664062 1400.22266,28.0664062 L1394.77344,25.46875 C1394.5651,25.3776037 1394.39583,25.2311208 1394.26562,25.0292969 C1394.13542,24.8274729 1394.07031,24.6028658 1394.07031,24.3554688 C1394.05729,24.1210926 1394.11263,23.9029958 1394.23633,23.7011719 C1394.36003,23.4993479 1394.53255,23.3398443 1394.75391,23.2226562 C1394.96224,23.1184891 1395.21289,23.0338545 1395.50586,22.96875 C1395.79883,22.9036455 1396.16666,22.8320316 1396.60938,22.7539062 C1396.71354,22.7408854 1396.83398,22.7213543 1396.9707,22.6953125 C1397.10742,22.6692707 1397.24088,22.6432293 1397.37109,22.6171875 C1397.20182,22.2135396 1397.0293,21.738284 1396.85352,21.1914062 C1396.67773,20.6445285 1396.55078,20.0520865 1396.47266,19.4140625 C1396.44661,19.2578117 1396.42383,19.0917978 1396.4043,18.9160156 C1396.38477,18.7402335 1396.36198,18.5546885 1396.33594,18.359375 C1396.28385,18.0208316 1396.22852,17.6399761 1396.16992,17.2167969 C1396.11133,16.7936177 1396.05599,16.3281275 1396.00391,15.8203125 C1395.88672,14.8437451 1395.45703,14.0462271 1394.71484,13.4277344 C1393.97265,12.8092417 1393.06771,12.5 1392,12.5 C1390.93229,12.5 1390.02735,12.8092417 1389.28516,13.4277344 C1388.54297,14.0462271 1388.11328,14.8437451 1387.99609,15.8203125 C1387.94401,16.3281275 1387.88867,16.7936177 1387.83008,17.2167969 C1387.77148,17.6399761 1387.71615,18.0208316 1387.66406,18.359375 C1387.63802,18.5546885 1387.61523,18.7402335 1387.5957,18.9160156 C1387.57617,19.0917978 1387.55339,19.2578117 1387.52734,19.4140625 C1387.44922,20.0520865 1387.32227,20.6445285 1387.14648,21.1914062 C1386.9707,21.738284 1386.79818,22.2135396 1386.62891,22.6171875 C1386.75912,22.6432293 1386.89258,22.6692707 1387.0293,22.6953125 C1387.16602,22.7213543 1387.28646,22.7408854 1387.39062,22.7539062 C1387.83334,22.8320316 1388.20117,22.9036455 1388.49414,22.96875 C1388.78711,23.0338545 1389.03776,23.1184891 1389.24609,23.2226562 C1389.46745,23.3398443 1389.63997,23.4993479 1389.76367,23.7011719 C1389.88737,23.9029958 1389.94271,24.1210926 1389.92969,24.3554688 C1389.92969,24.6028658 1389.86458,24.8274729 1389.73438,25.0292969 C1389.60417,25.2311208 1389.4349,25.3776037 1389.22656,25.46875 L1383.77734,28.046875 C1383.76432,28.0598959 1383.7513,28.0696614 1383.73828,28.0761719 L1383.67969,28.1054688 C1383.58854,28.1445314 1383.49414,28.1966143 1383.39648,28.2617188 C1383.29883,28.3268232 1383.25,28.3723957 1383.25,28.3984375 L1383.25,30 Z" id="User-female---simple-line-icons"></path>
            </g>
        </g>
    </g>
</svg>